<?xml version="1.0" encoding="utf-8" standalone="no"?>
<!DOCTYPE svg PUBLIC "-//W3C//DTD SVG 1.1//EN"
  "http://www.w3.org/Graphics/SVG/1.1/DTD/svg11.dtd">
<svg xmlns:xlink="http://www.w3.org/1999/xlink" width="928.078438pt" height="328.027291pt" viewBox="0 0 928.078438 328.027291" xmlns="http://www.w3.org/2000/svg" version="1.1">
 <metadata>
  <rdf:RDF xmlns:dc="http://purl.org/dc/elements/1.1/" xmlns:cc="http://creativecommons.org/ns#" xmlns:rdf="http://www.w3.org/1999/02/22-rdf-syntax-ns#">
   <cc:Work>
    <dc:type rdf:resource="http://purl.org/dc/dcmitype/StillImage"/>
    <dc:date>2026-07-15</dc:date>
    <dc:format>image/svg+xml</dc:format>
    <dc:creator>
     <cc:Agent>
      <dc:title>Matplotlib v3.11.0, https://matplotlib.org/</dc:title>
     </cc:Agent>
    </dc:creator>
   </cc:Work>
  </rdf:RDF>
 </metadata>
 <defs>
  <style type="text/css">*{stroke-linejoin: round; stroke-linecap: butt}</style>
 </defs>
 <g id="figure_1">
  <g id="patch_1">
   <path d="M 0 328.027291
L 928.078438 328.027291
L 928.078438 0
L 0 0
z
" style="fill: #ffffff"/>
  </g>
  <g id="axes_1">
   <g id="patch_2">
    <path d="M 45.800781 293.045801
L 469.028438 293.045801
L 469.028438 52.416703
L 45.800781 52.416703
z
" style="fill: #ffffff"/>
   </g>
   <g id="patch_3">
    <path d="M 65.038402 108683.793565
L 75.852449 108683.793565
L 75.852449 160.425912
L 65.038402 160.425912
z
" clip-path="url(#pb86f8b8ba7)" style="fill: #3b5b92"/>
   </g>
   <g id="patch_4">
    <path d="M 121.95444 108683.793565
L 132.768487 108683.793565
L 132.768487 273.28413
L 121.95444 273.28413
z
" clip-path="url(#pb86f8b8ba7)" style="fill: #3b5b92"/>
   </g>
   <g id="patch_5">
    <path d="M 178.870477 108683.793565
L 189.684525 108683.793565
L 189.684525 226.642808
L 178.870477 226.642808
z
" clip-path="url(#pb86f8b8ba7)" style="fill: #3b5b92"/>
   </g>
   <g id="patch_6">
    <path d="M 235.786515 108683.793565
L 246.600562 108683.793565
L 246.600562 278.123478
L 235.786515 278.123478
z
" clip-path="url(#pb86f8b8ba7)" style="fill: #3b5b92"/>
   </g>
   <g id="patch_7">
    <path d="M 292.702553 108683.793565
L 303.5166 108683.793565
L 303.5166 216.251944
L 292.702553 216.251944
z
" clip-path="url(#pb86f8b8ba7)" style="fill: #3b5b92"/>
   </g>
   <g id="patch_8">
    <path d="M 349.61859 108683.793565
L 360.432638 108683.793565
L 360.432638 99.380846
L 349.61859 99.380846
z
" clip-path="url(#pb86f8b8ba7)" style="fill: #3b5b92"/>
   </g>
   <g id="patch_9">
    <path d="M 406.534628 108683.793565
L 417.348675 108683.793565
L 417.348675 238.399444
L 406.534628 238.399444
z
" clip-path="url(#pb86f8b8ba7)" style="fill: #3b5b92"/>
   </g>
   <g id="patch_10">
    <path d="M 75.852449 108683.793565
L 86.666496 108683.793565
L 86.666496 170.697156
L 75.852449 170.697156
z
" clip-path="url(#pb86f8b8ba7)" style="fill: #d65f5f"/>
   </g>
   <g id="patch_11">
    <path d="M 132.768487 108683.793565
L 143.582534 108683.793565
L 143.582534 273.053178
L 132.768487 273.053178
z
" clip-path="url(#pb86f8b8ba7)" style="fill: #d65f5f"/>
   </g>
   <g id="patch_12">
    <path d="M 189.684525 108683.793565
L 200.498572 108683.793565
L 200.498572 231.994173
L 189.684525 231.994173
z
" clip-path="url(#pb86f8b8ba7)" style="fill: #d65f5f"/>
   </g>
   <g id="patch_13">
    <path d="M 246.600562 108683.793565
L 257.414609 108683.793565
L 257.414609 277.347541
L 246.600562 277.347541
z
" clip-path="url(#pb86f8b8ba7)" style="fill: #d65f5f"/>
   </g>
   <g id="patch_14">
    <path d="M 303.5166 108683.793565
L 314.330647 108683.793565
L 314.330647 219.8983
L 303.5166 219.8983
z
" clip-path="url(#pb86f8b8ba7)" style="fill: #d65f5f"/>
   </g>
   <g id="patch_15">
    <path d="M 360.432638 108683.793565
L 371.246685 108683.793565
L 371.246685 131.772753
L 360.432638 131.772753
z
" clip-path="url(#pb86f8b8ba7)" style="fill: #d65f5f"/>
   </g>
   <g id="patch_16">
    <path d="M 417.348675 108683.793565
L 428.162722 108683.793565
L 428.162722 233.021761
L 417.348675 233.021761
z
" clip-path="url(#pb86f8b8ba7)" style="fill: #d65f5f"/>
   </g>
   <g id="patch_17">
    <path d="M 86.666496 108683.793565
L 97.480543 108683.793565
L 97.480543 164.95781
L 86.666496 164.95781
z
" clip-path="url(#pb86f8b8ba7)" style="fill: #6a9f58"/>
   </g>
   <g id="patch_18">
    <path d="M 143.582534 108683.793565
L 154.396581 108683.793565
L 154.396581 282.108115
L 143.582534 282.108115
z
" clip-path="url(#pb86f8b8ba7)" style="fill: #6a9f58"/>
   </g>
   <g id="patch_19">
    <path d="M 200.498572 108683.793565
L 211.312619 108683.793565
L 211.312619 233.074254
L 200.498572 233.074254
z
" clip-path="url(#pb86f8b8ba7)" style="fill: #6a9f58"/>
   </g>
   <g id="patch_20">
    <path d="M 257.414609 108683.793565
L 268.228657 108683.793565
L 268.228657 277.57948
L 257.414609 277.57948
z
" clip-path="url(#pb86f8b8ba7)" style="fill: #6a9f58"/>
   </g>
   <g id="patch_21">
    <path d="M 314.330647 108683.793565
L 325.144694 108683.793565
L 325.144694 226.085851
L 314.330647 226.085851
z
" clip-path="url(#pb86f8b8ba7)" style="fill: #6a9f58"/>
   </g>
   <g id="patch_22">
    <path d="M 371.246685 108683.793565
L 382.060732 108683.793565
L 382.060732 93.382596
L 371.246685 93.382596
z
" clip-path="url(#pb86f8b8ba7)" style="fill: #6a9f58"/>
   </g>
   <g id="patch_23">
    <path d="M 428.162722 108683.793565
L 438.97677 108683.793565
L 438.97677 222.482395
L 428.162722 222.482395
z
" clip-path="url(#pb86f8b8ba7)" style="fill: #6a9f58"/>
   </g>
   <g id="patch_24">
    <path d="M 97.480543 108683.793565
L 108.294591 108683.793565
L 108.294591 165.087233
L 97.480543 165.087233
z
" clip-path="url(#pb86f8b8ba7)" style="fill: #8a63a8"/>
   </g>
   <g id="patch_25">
    <path d="M 154.396581 108683.793565
L 165.210628 108683.793565
L 165.210628 242.275279
L 154.396581 242.275279
z
" clip-path="url(#pb86f8b8ba7)" style="fill: #8a63a8"/>
   </g>
   <g id="patch_26">
    <path d="M 211.312619 108683.793565
L 222.126666 108683.793565
L 222.126666 187.351744
L 211.312619 187.351744
z
" clip-path="url(#pb86f8b8ba7)" style="fill: #8a63a8"/>
   </g>
   <g id="patch_27">
    <path d="M 268.228657 108683.793565
L 279.042704 108683.793565
L 279.042704 250.306621
L 268.228657 250.306621
z
" clip-path="url(#pb86f8b8ba7)" style="fill: #8a63a8"/>
   </g>
   <g id="patch_28">
    <path d="M 325.144694 108683.793565
L 335.958741 108683.793565
L 335.958741 228.986723
L 325.144694 228.986723
z
" clip-path="url(#pb86f8b8ba7)" style="fill: #8a63a8"/>
   </g>
   <g id="patch_29">
    <path d="M 382.060732 108683.793565
L 392.874779 108683.793565
L 392.874779 136.396531
L 382.060732 136.396531
z
" clip-path="url(#pb86f8b8ba7)" style="fill: #8a63a8"/>
   </g>
   <g id="patch_30">
    <path d="M 438.97677 108683.793565
L 449.790817 108683.793565
L 449.790817 182.993411
L 438.97677 182.993411
z
" clip-path="url(#pb86f8b8ba7)" style="fill: #8a63a8"/>
   </g>
   <g id="matplotlib.axis_1">
    <g id="xtick_1">
     <g id="line2d_1">
      <defs>
       <path id="md6ea544a47" d="M 0 0
L 0 3.5
" style="stroke: #000000; stroke-width: 0.8"/>
      </defs>
      <g>
       <use xlink:href="#md6ea544a47" x="86.666496" y="293.045801" style="stroke: #000000; stroke-width: 0.8"/>
      </g>
     </g>
     <g id="text_1">
      <!-- LSTM -->
      <g transform="translate(61.492455 318.197034) rotate(-25) scale(0.1 -0.1)">
       <defs>
        <path id="DejaVuSans-2f" d="M 628 4666
L 1259 4666
L 1259 531
L 3531 531
L 3531 0
L 628 0
L 628 4666
z
" transform="scale(0.015625)"/>
        <path id="DejaVuSans-36" d="M 3425 4513
L 3425 3897
Q 3066 4069 2747 4153
Q 2428 4238 2131 4238
Q 1616 4238 1336 4038
Q 1056 3838 1056 3469
Q 1056 3159 1242 3001
Q 1428 2844 1947 2747
L 2328 2669
Q 3034 2534 3370 2195
Q 3706 1856 3706 1288
Q 3706 609 3251 259
Q 2797 -91 1919 -91
Q 1588 -91 1214 -16
Q 841 59 441 206
L 441 856
Q 825 641 1194 531
Q 1563 422 1919 422
Q 2459 422 2753 634
Q 3047 847 3047 1241
Q 3047 1584 2836 1778
Q 2625 1972 2144 2069
L 1759 2144
Q 1053 2284 737 2584
Q 422 2884 422 3419
Q 422 4038 858 4394
Q 1294 4750 2059 4750
Q 2388 4750 2728 4690
Q 3069 4631 3425 4513
z
" transform="scale(0.015625)"/>
        <path id="DejaVuSans-37" d="M -19 4666
L 3928 4666
L 3928 4134
L 2272 4134
L 2272 0
L 1638 0
L 1638 4134
L -19 4134
L -19 4666
z
" transform="scale(0.015625)"/>
        <path id="DejaVuSans-30" d="M 628 4666
L 1569 4666
L 2759 1491
L 3956 4666
L 4897 4666
L 4897 0
L 4281 0
L 4281 4097
L 3078 897
L 2444 897
L 1241 4097
L 1241 0
L 628 0
L 628 4666
z
" transform="scale(0.015625)"/>
       </defs>
       <use xlink:href="#DejaVuSans-2f"/>
       <use xlink:href="#DejaVuSans-36" transform="translate(55.71875 0)"/>
       <use xlink:href="#DejaVuSans-37" transform="translate(119.203125 0)"/>
       <use xlink:href="#DejaVuSans-30" transform="translate(180.28125 0)"/>
      </g>
     </g>
    </g>
    <g id="xtick_2">
     <g id="line2d_2">
      <g>
       <use xlink:href="#md6ea544a47" x="143.582534" y="293.045801" style="stroke: #000000; stroke-width: 0.8"/>
      </g>
     </g>
     <g id="text_2">
      <!-- BA -->
      <g transform="translate(130.149427 312.722147) rotate(-25) scale(0.1 -0.1)">
       <defs>
        <path id="DejaVuSans-25" d="M 1259 2228
L 1259 519
L 2272 519
Q 2781 519 3026 730
Q 3272 941 3272 1375
Q 3272 1813 3026 2020
Q 2781 2228 2272 2228
L 1259 2228
z
M 1259 4147
L 1259 2741
L 2194 2741
Q 2656 2741 2882 2914
Q 3109 3088 3109 3444
Q 3109 3797 2882 3972
Q 2656 4147 2194 4147
L 1259 4147
z
M 628 4666
L 2241 4666
Q 2963 4666 3353 4366
Q 3744 4066 3744 3513
Q 3744 3084 3544 2831
Q 3344 2578 2956 2516
Q 3422 2416 3680 2098
Q 3938 1781 3938 1306
Q 3938 681 3513 340
Q 3088 0 2303 0
L 628 0
L 628 4666
z
" transform="scale(0.015625)"/>
        <path id="DejaVuSans-24" d="M 2188 4044
L 1331 1722
L 3047 1722
L 2188 4044
z
M 1831 4666
L 2547 4666
L 4325 0
L 3669 0
L 3244 1197
L 1141 1197
L 716 0
L 50 0
L 1831 4666
z
" transform="scale(0.015625)"/>
       </defs>
       <use xlink:href="#DejaVuSans-25"/>
       <use xlink:href="#DejaVuSans-24" transform="translate(68.609375 0)"/>
      </g>
     </g>
    </g>
    <g id="xtick_3">
     <g id="line2d_3">
      <g>
       <use xlink:href="#md6ea544a47" x="200.498572" y="293.045801" style="stroke: #000000; stroke-width: 0.8"/>
      </g>
     </g>
     <g id="text_3">
      <!-- GMM -->
      <g transform="translate(176.821354 317.499054) rotate(-25) scale(0.1 -0.1)">
       <defs>
        <path id="DejaVuSans-2a" d="M 3809 666
L 3809 1919
L 2778 1919
L 2778 2438
L 4434 2438
L 4434 434
Q 4069 175 3628 42
Q 3188 -91 2688 -91
Q 1594 -91 976 548
Q 359 1188 359 2328
Q 359 3472 976 4111
Q 1594 4750 2688 4750
Q 3144 4750 3555 4637
Q 3966 4525 4313 4306
L 4313 3634
Q 3963 3931 3569 4081
Q 3175 4231 2741 4231
Q 1884 4231 1454 3753
Q 1025 3275 1025 2328
Q 1025 1384 1454 906
Q 1884 428 2741 428
Q 3075 428 3337 486
Q 3600 544 3809 666
z
" transform="scale(0.015625)"/>
       </defs>
       <use xlink:href="#DejaVuSans-2a"/>
       <use xlink:href="#DejaVuSans-30" transform="translate(77.484375 0)"/>
       <use xlink:href="#DejaVuSans-30" transform="translate(163.765625 0)"/>
      </g>
     </g>
    </g>
    <g id="xtick_4">
     <g id="line2d_4">
      <g>
       <use xlink:href="#md6ea544a47" x="257.414609" y="293.045801" style="stroke: #000000; stroke-width: 0.8"/>
      </g>
     </g>
     <g id="text_4">
      <!-- Euler -->
      <g transform="translate(233.108641 317.792953) rotate(-25) scale(0.1 -0.1)">
       <defs>
        <path id="DejaVuSans-28" d="M 628 4666
L 3578 4666
L 3578 4134
L 1259 4134
L 1259 2753
L 3481 2753
L 3481 2222
L 1259 2222
L 1259 531
L 3634 531
L 3634 0
L 628 0
L 628 4666
z
" transform="scale(0.015625)"/>
        <path id="DejaVuSans-58" d="M 544 1381
L 544 3500
L 1119 3500
L 1119 1403
Q 1119 906 1312 657
Q 1506 409 1894 409
Q 2359 409 2629 706
Q 2900 1003 2900 1516
L 2900 3500
L 3475 3500
L 3475 0
L 2900 0
L 2900 538
Q 2691 219 2414 64
Q 2138 -91 1772 -91
Q 1169 -91 856 284
Q 544 659 544 1381
z
M 1991 3584
L 1991 3584
z
" transform="scale(0.015625)"/>
        <path id="DejaVuSans-4f" d="M 603 4863
L 1178 4863
L 1178 0
L 603 0
L 603 4863
z
" transform="scale(0.015625)"/>
        <path id="DejaVuSans-48" d="M 3597 1894
L 3597 1613
L 953 1613
Q 991 1019 1311 708
Q 1631 397 2203 397
Q 2534 397 2845 478
Q 3156 559 3463 722
L 3463 178
Q 3153 47 2828 -22
Q 2503 -91 2169 -91
Q 1331 -91 842 396
Q 353 884 353 1716
Q 353 2575 817 3079
Q 1281 3584 2069 3584
Q 2775 3584 3186 3129
Q 3597 2675 3597 1894
z
M 3022 2063
Q 3016 2534 2758 2815
Q 2500 3097 2075 3097
Q 1594 3097 1305 2825
Q 1016 2553 972 2059
L 3022 2063
z
" transform="scale(0.015625)"/>
        <path id="DejaVuSans-55" d="M 2631 2963
Q 2534 3019 2420 3045
Q 2306 3072 2169 3072
Q 1681 3072 1420 2755
Q 1159 2438 1159 1844
L 1159 0
L 581 0
L 581 3500
L 1159 3500
L 1159 2956
Q 1341 3275 1631 3429
Q 1922 3584 2338 3584
Q 2397 3584 2469 3576
Q 2541 3569 2628 3553
L 2631 2963
z
" transform="scale(0.015625)"/>
       </defs>
       <use xlink:href="#DejaVuSans-28"/>
       <use xlink:href="#DejaVuSans-58" transform="translate(63.1875 0)"/>
       <use xlink:href="#DejaVuSans-4f" transform="translate(126.5625 0)"/>
       <use xlink:href="#DejaVuSans-48" transform="translate(154.34375 0)"/>
       <use xlink:href="#DejaVuSans-55" transform="translate(215.875 0)"/>
      </g>
     </g>
    </g>
    <g id="xtick_5">
     <g id="line2d_5">
      <g>
       <use xlink:href="#md6ea544a47" x="314.330647" y="293.045801" style="stroke: #000000; stroke-width: 0.8"/>
      </g>
     </g>
     <g id="text_5">
      <!-- RK4 -->
      <g transform="translate(295.30817 315.328513) rotate(-25) scale(0.1 -0.1)">
       <defs>
        <path id="DejaVuSans-35" d="M 2841 2188
Q 3044 2119 3236 1894
Q 3428 1669 3622 1275
L 4263 0
L 3584 0
L 2988 1197
Q 2756 1666 2539 1819
Q 2322 1972 1947 1972
L 1259 1972
L 1259 0
L 628 0
L 628 4666
L 2053 4666
Q 2853 4666 3247 4331
Q 3641 3997 3641 3322
Q 3641 2881 3436 2590
Q 3231 2300 2841 2188
z
M 1259 4147
L 1259 2491
L 2053 2491
Q 2509 2491 2742 2702
Q 2975 2913 2975 3322
Q 2975 3731 2742 3939
Q 2509 4147 2053 4147
L 1259 4147
z
" transform="scale(0.015625)"/>
        <path id="DejaVuSans-2e" d="M 628 4666
L 1259 4666
L 1259 2694
L 3353 4666
L 4166 4666
L 1850 2491
L 4331 0
L 3500 0
L 1259 2247
L 1259 0
L 628 0
L 628 4666
z
" transform="scale(0.015625)"/>
        <path id="DejaVuSans-17" d="M 2419 4116
L 825 1625
L 2419 1625
L 2419 4116
z
M 2253 4666
L 3047 4666
L 3047 1625
L 3713 1625
L 3713 1100
L 3047 1100
L 3047 0
L 2419 0
L 2419 1100
L 313 1100
L 313 1709
L 2253 4666
z
" transform="scale(0.015625)"/>
       </defs>
       <use xlink:href="#DejaVuSans-35"/>
       <use xlink:href="#DejaVuSans-2e" transform="translate(69.484375 0)"/>
       <use xlink:href="#DejaVuSans-17" transform="translate(135.0625 0)"/>
      </g>
     </g>
    </g>
    <g id="xtick_6">
     <g id="line2d_6">
      <g>
       <use xlink:href="#md6ea544a47" x="371.246685" y="293.045801" style="stroke: #000000; stroke-width: 0.8"/>
      </g>
     </g>
     <g id="text_6">
      <!-- FFT -->
      <g transform="translate(354.429084 314.300362) rotate(-25) scale(0.1 -0.1)">
       <defs>
        <path id="DejaVuSans-29" d="M 628 4666
L 3309 4666
L 3309 4134
L 1259 4134
L 1259 2759
L 3109 2759
L 3109 2228
L 1259 2228
L 1259 0
L 628 0
L 628 4666
z
" transform="scale(0.015625)"/>
       </defs>
       <use xlink:href="#DejaVuSans-29"/>
       <use xlink:href="#DejaVuSans-29" transform="translate(57.515625 0)"/>
       <use xlink:href="#DejaVuSans-37" transform="translate(113.28125 0)"/>
      </g>
     </g>
    </g>
    <g id="xtick_7">
     <g id="line2d_7">
      <g>
       <use xlink:href="#md6ea544a47" x="428.162722" y="293.045801" style="stroke: #000000; stroke-width: 0.8"/>
      </g>
     </g>
     <g id="text_7">
      <!-- Bruss -->
      <g transform="translate(402.017232 318.650028) rotate(-25) scale(0.1 -0.1)">
       <defs>
        <path id="DejaVuSans-56" d="M 2834 3397
L 2834 2853
Q 2591 2978 2328 3040
Q 2066 3103 1784 3103
Q 1356 3103 1142 2972
Q 928 2841 928 2578
Q 928 2378 1081 2264
Q 1234 2150 1697 2047
L 1894 2003
Q 2506 1872 2764 1633
Q 3022 1394 3022 966
Q 3022 478 2636 193
Q 2250 -91 1575 -91
Q 1294 -91 989 -36
Q 684 19 347 128
L 347 722
Q 666 556 975 473
Q 1284 391 1588 391
Q 1994 391 2212 530
Q 2431 669 2431 922
Q 2431 1156 2273 1281
Q 2116 1406 1581 1522
L 1381 1569
Q 847 1681 609 1914
Q 372 2147 372 2553
Q 372 3047 722 3315
Q 1072 3584 1716 3584
Q 2034 3584 2315 3537
Q 2597 3491 2834 3397
z
" transform="scale(0.015625)"/>
       </defs>
       <use xlink:href="#DejaVuSans-25"/>
       <use xlink:href="#DejaVuSans-55" transform="translate(68.609375 0)"/>
       <use xlink:href="#DejaVuSans-58" transform="translate(109.71875 0)"/>
       <use xlink:href="#DejaVuSans-56" transform="translate(173.09375 0)"/>
       <use xlink:href="#DejaVuSans-56" transform="translate(225.1875 0)"/>
      </g>
     </g>
    </g>
   </g>
   <g id="matplotlib.axis_2">
    <g id="ytick_1">
     <g id="line2d_8">
      <path d="M 45.800781 246.580574
L 469.028438 246.580574
" clip-path="url(#pb86f8b8ba7)" style="fill: none; stroke: #b0b0b0; stroke-opacity: 0.22; stroke-width: 0.8; stroke-linecap: square"/>
     </g>
     <g id="line2d_9">
      <defs>
       <path id="m5d10743984" d="M 0 0
L -3.5 0
" style="stroke: #000000; stroke-width: 0.8"/>
      </defs>
      <g>
       <use xlink:href="#m5d10743984" x="45.800781" y="246.580574" style="stroke: #000000; stroke-width: 0.8"/>
      </g>
     </g>
     <g id="text_8">
      <!-- $\mathdefault{10^{1}}$ -->
      <g transform="translate(21.200781 251.230574) scale(0.1 -0.1)">
       <defs>
        <path id="DejaVuSans-14" d="M 794 531
L 1825 531
L 1825 4091
L 703 3866
L 703 4441
L 1819 4666
L 2450 4666
L 2450 531
L 3481 531
L 3481 0
L 794 0
L 794 531
z
" transform="scale(0.015625)"/>
        <path id="DejaVuSans-13" d="M 2034 4250
Q 1547 4250 1301 3770
Q 1056 3291 1056 2328
Q 1056 1369 1301 889
Q 1547 409 2034 409
Q 2525 409 2770 889
Q 3016 1369 3016 2328
Q 3016 3291 2770 3770
Q 2525 4250 2034 4250
z
M 2034 4750
Q 2819 4750 3233 4129
Q 3647 3509 3647 2328
Q 3647 1150 3233 529
Q 2819 -91 2034 -91
Q 1250 -91 836 529
Q 422 1150 422 2328
Q 422 3509 836 4129
Q 1250 4750 2034 4750
z
" transform="scale(0.015625)"/>
       </defs>
       <use xlink:href="#DejaVuSans-14" transform="translate(0 0.665625)"/>
       <use xlink:href="#DejaVuSans-13" transform="translate(63.623047 0.665625)"/>
       <use xlink:href="#DejaVuSans-14" transform="translate(128.203125 41.965625) scale(0.7)"/>
      </g>
     </g>
    </g>
    <g id="ytick_2">
     <g id="line2d_10">
      <path d="M 45.800781 138.25169
L 469.028438 138.25169
" clip-path="url(#pb86f8b8ba7)" style="fill: none; stroke: #b0b0b0; stroke-opacity: 0.22; stroke-width: 0.8; stroke-linecap: square"/>
     </g>
     <g id="line2d_11">
      <g>
       <use xlink:href="#m5d10743984" x="45.800781" y="138.25169" style="stroke: #000000; stroke-width: 0.8"/>
      </g>
     </g>
     <g id="text_9">
      <!-- $\mathdefault{10^{2}}$ -->
      <g transform="translate(21.200781 142.95169) scale(0.1 -0.1)">
       <defs>
        <path id="DejaVuSans-15" d="M 1228 531
L 3431 531
L 3431 0
L 469 0
L 469 531
Q 828 903 1448 1529
Q 2069 2156 2228 2338
Q 2531 2678 2651 2914
Q 2772 3150 2772 3378
Q 2772 3750 2511 3984
Q 2250 4219 1831 4219
Q 1534 4219 1204 4116
Q 875 4013 500 3803
L 500 4441
Q 881 4594 1212 4672
Q 1544 4750 1819 4750
Q 2544 4750 2975 4387
Q 3406 4025 3406 3419
Q 3406 3131 3298 2873
Q 3191 2616 2906 2266
Q 2828 2175 2409 1742
Q 1991 1309 1228 531
z
" transform="scale(0.015625)"/>
       </defs>
       <use xlink:href="#DejaVuSans-14" transform="translate(0 0.746875)"/>
       <use xlink:href="#DejaVuSans-13" transform="translate(63.623047 0.746875)"/>
       <use xlink:href="#DejaVuSans-15" transform="translate(128.203125 42.046875) scale(0.7)"/>
      </g>
     </g>
    </g>
    <g id="ytick_3">
     <g id="line2d_12">
      <path d="M 45.800781 289.688971
L 469.028438 289.688971
" clip-path="url(#pb86f8b8ba7)" style="fill: none; stroke: #b0b0b0; stroke-opacity: 0.22; stroke-width: 0.8; stroke-linecap: square"/>
     </g>
     <g id="line2d_13">
      <defs>
       <path id="m502bc11d73" d="M 0 0
L -2 0
" style="stroke: #000000; stroke-width: 0.6"/>
      </defs>
      <g>
       <use xlink:href="#m502bc11d73" x="45.800781" y="289.688971" style="stroke: #000000; stroke-width: 0.6"/>
      </g>
     </g>
    </g>
    <g id="ytick_4">
     <g id="line2d_14">
      <path d="M 45.800781 279.190818
L 469.028438 279.190818
" clip-path="url(#pb86f8b8ba7)" style="fill: none; stroke: #b0b0b0; stroke-opacity: 0.22; stroke-width: 0.8; stroke-linecap: square"/>
     </g>
     <g id="line2d_15">
      <g>
       <use xlink:href="#m502bc11d73" x="45.800781" y="279.190818" style="stroke: #000000; stroke-width: 0.6"/>
      </g>
     </g>
    </g>
    <g id="ytick_5">
     <g id="line2d_16">
      <path d="M 45.800781 270.613202
L 469.028438 270.613202
" clip-path="url(#pb86f8b8ba7)" style="fill: none; stroke: #b0b0b0; stroke-opacity: 0.22; stroke-width: 0.8; stroke-linecap: square"/>
     </g>
     <g id="line2d_17">
      <g>
       <use xlink:href="#m502bc11d73" x="45.800781" y="270.613202" style="stroke: #000000; stroke-width: 0.6"/>
      </g>
     </g>
    </g>
    <g id="ytick_6">
     <g id="line2d_18">
      <path d="M 45.800781 263.360931
L 469.028438 263.360931
" clip-path="url(#pb86f8b8ba7)" style="fill: none; stroke: #b0b0b0; stroke-opacity: 0.22; stroke-width: 0.8; stroke-linecap: square"/>
     </g>
     <g id="line2d_19">
      <g>
       <use xlink:href="#m502bc11d73" x="45.800781" y="263.360931" style="stroke: #000000; stroke-width: 0.6"/>
      </g>
     </g>
    </g>
    <g id="ytick_7">
     <g id="line2d_20">
      <path d="M 45.800781 257.078728
L 469.028438 257.078728
" clip-path="url(#pb86f8b8ba7)" style="fill: none; stroke: #b0b0b0; stroke-opacity: 0.22; stroke-width: 0.8; stroke-linecap: square"/>
     </g>
     <g id="line2d_21">
      <g>
       <use xlink:href="#m502bc11d73" x="45.800781" y="257.078728" style="stroke: #000000; stroke-width: 0.6"/>
      </g>
     </g>
    </g>
    <g id="ytick_8">
     <g id="line2d_22">
      <path d="M 45.800781 251.537432
L 469.028438 251.537432
" clip-path="url(#pb86f8b8ba7)" style="fill: none; stroke: #b0b0b0; stroke-opacity: 0.22; stroke-width: 0.8; stroke-linecap: square"/>
     </g>
     <g id="line2d_23">
      <g>
       <use xlink:href="#m502bc11d73" x="45.800781" y="251.537432" style="stroke: #000000; stroke-width: 0.6"/>
      </g>
     </g>
    </g>
    <g id="ytick_9">
     <g id="line2d_24">
      <path d="M 45.800781 213.970331
L 469.028438 213.970331
" clip-path="url(#pb86f8b8ba7)" style="fill: none; stroke: #b0b0b0; stroke-opacity: 0.22; stroke-width: 0.8; stroke-linecap: square"/>
     </g>
     <g id="line2d_25">
      <g>
       <use xlink:href="#m502bc11d73" x="45.800781" y="213.970331" style="stroke: #000000; stroke-width: 0.6"/>
      </g>
     </g>
    </g>
    <g id="ytick_10">
     <g id="line2d_26">
      <path d="M 45.800781 194.894561
L 469.028438 194.894561
" clip-path="url(#pb86f8b8ba7)" style="fill: none; stroke: #b0b0b0; stroke-opacity: 0.22; stroke-width: 0.8; stroke-linecap: square"/>
     </g>
     <g id="line2d_27">
      <g>
       <use xlink:href="#m502bc11d73" x="45.800781" y="194.894561" style="stroke: #000000; stroke-width: 0.6"/>
      </g>
     </g>
    </g>
    <g id="ytick_11">
     <g id="line2d_28">
      <path d="M 45.800781 181.360087
L 469.028438 181.360087
" clip-path="url(#pb86f8b8ba7)" style="fill: none; stroke: #b0b0b0; stroke-opacity: 0.22; stroke-width: 0.8; stroke-linecap: square"/>
     </g>
     <g id="line2d_29">
      <g>
       <use xlink:href="#m502bc11d73" x="45.800781" y="181.360087" style="stroke: #000000; stroke-width: 0.6"/>
      </g>
     </g>
    </g>
    <g id="ytick_12">
     <g id="line2d_30">
      <path d="M 45.800781 170.861934
L 469.028438 170.861934
" clip-path="url(#pb86f8b8ba7)" style="fill: none; stroke: #b0b0b0; stroke-opacity: 0.22; stroke-width: 0.8; stroke-linecap: square"/>
     </g>
     <g id="line2d_31">
      <g>
       <use xlink:href="#m502bc11d73" x="45.800781" y="170.861934" style="stroke: #000000; stroke-width: 0.6"/>
      </g>
     </g>
    </g>
    <g id="ytick_13">
     <g id="line2d_32">
      <path d="M 45.800781 162.284318
L 469.028438 162.284318
" clip-path="url(#pb86f8b8ba7)" style="fill: none; stroke: #b0b0b0; stroke-opacity: 0.22; stroke-width: 0.8; stroke-linecap: square"/>
     </g>
     <g id="line2d_33">
      <g>
       <use xlink:href="#m502bc11d73" x="45.800781" y="162.284318" style="stroke: #000000; stroke-width: 0.6"/>
      </g>
     </g>
    </g>
    <g id="ytick_14">
     <g id="line2d_34">
      <path d="M 45.800781 155.032047
L 469.028438 155.032047
" clip-path="url(#pb86f8b8ba7)" style="fill: none; stroke: #b0b0b0; stroke-opacity: 0.22; stroke-width: 0.8; stroke-linecap: square"/>
     </g>
     <g id="line2d_35">
      <g>
       <use xlink:href="#m502bc11d73" x="45.800781" y="155.032047" style="stroke: #000000; stroke-width: 0.6"/>
      </g>
     </g>
    </g>
    <g id="ytick_15">
     <g id="line2d_36">
      <path d="M 45.800781 148.749844
L 469.028438 148.749844
" clip-path="url(#pb86f8b8ba7)" style="fill: none; stroke: #b0b0b0; stroke-opacity: 0.22; stroke-width: 0.8; stroke-linecap: square"/>
     </g>
     <g id="line2d_37">
      <g>
       <use xlink:href="#m502bc11d73" x="45.800781" y="148.749844" style="stroke: #000000; stroke-width: 0.6"/>
      </g>
     </g>
    </g>
    <g id="ytick_16">
     <g id="line2d_38">
      <path d="M 45.800781 143.208548
L 469.028438 143.208548
" clip-path="url(#pb86f8b8ba7)" style="fill: none; stroke: #b0b0b0; stroke-opacity: 0.22; stroke-width: 0.8; stroke-linecap: square"/>
     </g>
     <g id="line2d_39">
      <g>
       <use xlink:href="#m502bc11d73" x="45.800781" y="143.208548" style="stroke: #000000; stroke-width: 0.6"/>
      </g>
     </g>
    </g>
    <g id="ytick_17">
     <g id="line2d_40">
      <path d="M 45.800781 105.641447
L 469.028438 105.641447
" clip-path="url(#pb86f8b8ba7)" style="fill: none; stroke: #b0b0b0; stroke-opacity: 0.22; stroke-width: 0.8; stroke-linecap: square"/>
     </g>
     <g id="line2d_41">
      <g>
       <use xlink:href="#m502bc11d73" x="45.800781" y="105.641447" style="stroke: #000000; stroke-width: 0.6"/>
      </g>
     </g>
    </g>
    <g id="ytick_18">
     <g id="line2d_42">
      <path d="M 45.800781 86.565677
L 469.028438 86.565677
" clip-path="url(#pb86f8b8ba7)" style="fill: none; stroke: #b0b0b0; stroke-opacity: 0.22; stroke-width: 0.8; stroke-linecap: square"/>
     </g>
     <g id="line2d_43">
      <g>
       <use xlink:href="#m502bc11d73" x="45.800781" y="86.565677" style="stroke: #000000; stroke-width: 0.6"/>
      </g>
     </g>
    </g>
    <g id="ytick_19">
     <g id="line2d_44">
      <path d="M 45.800781 73.031203
L 469.028438 73.031203
" clip-path="url(#pb86f8b8ba7)" style="fill: none; stroke: #b0b0b0; stroke-opacity: 0.22; stroke-width: 0.8; stroke-linecap: square"/>
     </g>
     <g id="line2d_45">
      <g>
       <use xlink:href="#m502bc11d73" x="45.800781" y="73.031203" style="stroke: #000000; stroke-width: 0.6"/>
      </g>
     </g>
    </g>
    <g id="ytick_20">
     <g id="line2d_46">
      <path d="M 45.800781 62.53305
L 469.028438 62.53305
" clip-path="url(#pb86f8b8ba7)" style="fill: none; stroke: #b0b0b0; stroke-opacity: 0.22; stroke-width: 0.8; stroke-linecap: square"/>
     </g>
     <g id="line2d_47">
      <g>
       <use xlink:href="#m502bc11d73" x="45.800781" y="62.53305" style="stroke: #000000; stroke-width: 0.6"/>
      </g>
     </g>
    </g>
    <g id="ytick_21">
     <g id="line2d_48">
      <path d="M 45.800781 53.955434
L 469.028438 53.955434
" clip-path="url(#pb86f8b8ba7)" style="fill: none; stroke: #b0b0b0; stroke-opacity: 0.22; stroke-width: 0.8; stroke-linecap: square"/>
     </g>
     <g id="line2d_49">
      <g>
       <use xlink:href="#m502bc11d73" x="45.800781" y="53.955434" style="stroke: #000000; stroke-width: 0.6"/>
      </g>
     </g>
    </g>
    <g id="text_10">
     <!-- time per call (µs, log scale) -->
     <g transform="translate(14.798438 240.653127) rotate(-90) scale(0.1 -0.1)">
      <defs>
       <path id="DejaVuSans-57" d="M 1172 4494
L 1172 3500
L 2356 3500
L 2356 3053
L 1172 3053
L 1172 1153
Q 1172 725 1289 603
Q 1406 481 1766 481
L 2356 481
L 2356 0
L 1766 0
Q 1100 0 847 248
Q 594 497 594 1153
L 594 3053
L 172 3053
L 172 3500
L 594 3500
L 594 4494
L 1172 4494
z
" transform="scale(0.015625)"/>
       <path id="DejaVuSans-4c" d="M 603 3500
L 1178 3500
L 1178 0
L 603 0
L 603 3500
z
M 603 4863
L 1178 4863
L 1178 4134
L 603 4134
L 603 4863
z
" transform="scale(0.015625)"/>
       <path id="DejaVuSans-50" d="M 3328 2828
Q 3544 3216 3844 3400
Q 4144 3584 4550 3584
Q 5097 3584 5394 3201
Q 5691 2819 5691 2113
L 5691 0
L 5113 0
L 5113 2094
Q 5113 2597 4934 2840
Q 4756 3084 4391 3084
Q 3944 3084 3684 2787
Q 3425 2491 3425 1978
L 3425 0
L 2847 0
L 2847 2094
Q 2847 2600 2669 2842
Q 2491 3084 2119 3084
Q 1678 3084 1418 2786
Q 1159 2488 1159 1978
L 1159 0
L 581 0
L 581 3500
L 1159 3500
L 1159 2956
Q 1356 3278 1631 3431
Q 1906 3584 2284 3584
Q 2666 3584 2933 3390
Q 3200 3197 3328 2828
z
" transform="scale(0.015625)"/>
       <path id="DejaVuSans-3" transform="scale(0.015625)"/>
       <path id="DejaVuSans-53" d="M 1159 525
L 1159 -1331
L 581 -1331
L 581 3500
L 1159 3500
L 1159 2969
Q 1341 3281 1617 3432
Q 1894 3584 2278 3584
Q 2916 3584 3314 3078
Q 3713 2572 3713 1747
Q 3713 922 3314 415
Q 2916 -91 2278 -91
Q 1894 -91 1617 61
Q 1341 213 1159 525
z
M 3116 1747
Q 3116 2381 2855 2742
Q 2594 3103 2138 3103
Q 1681 3103 1420 2742
Q 1159 2381 1159 1747
Q 1159 1113 1420 752
Q 1681 391 2138 391
Q 2594 391 2855 752
Q 3116 1113 3116 1747
z
" transform="scale(0.015625)"/>
       <path id="DejaVuSans-46" d="M 3122 3366
L 3122 2828
Q 2878 2963 2633 3030
Q 2388 3097 2138 3097
Q 1578 3097 1268 2742
Q 959 2388 959 1747
Q 959 1106 1268 751
Q 1578 397 2138 397
Q 2388 397 2633 464
Q 2878 531 3122 666
L 3122 134
Q 2881 22 2623 -34
Q 2366 -91 2075 -91
Q 1284 -91 818 406
Q 353 903 353 1747
Q 353 2603 823 3093
Q 1294 3584 2113 3584
Q 2378 3584 2631 3529
Q 2884 3475 3122 3366
z
" transform="scale(0.015625)"/>
       <path id="DejaVuSans-44" d="M 2194 1759
Q 1497 1759 1228 1600
Q 959 1441 959 1056
Q 959 750 1161 570
Q 1363 391 1709 391
Q 2188 391 2477 730
Q 2766 1069 2766 1631
L 2766 1759
L 2194 1759
z
M 3341 1997
L 3341 0
L 2766 0
L 2766 531
Q 2569 213 2275 61
Q 1981 -91 1556 -91
Q 1019 -91 701 211
Q 384 513 384 1019
Q 384 1609 779 1909
Q 1175 2209 1959 2209
L 2766 2209
L 2766 2266
Q 2766 2663 2505 2880
Q 2244 3097 1772 3097
Q 1472 3097 1187 3025
Q 903 2953 641 2809
L 641 3341
Q 956 3463 1253 3523
Q 1550 3584 1831 3584
Q 2591 3584 2966 3190
Q 3341 2797 3341 1997
z
" transform="scale(0.015625)"/>
       <path id="DejaVuSans-b" d="M 1984 4856
Q 1566 4138 1362 3434
Q 1159 2731 1159 2009
Q 1159 1288 1364 580
Q 1569 -128 1984 -844
L 1484 -844
Q 1016 -109 783 600
Q 550 1309 550 2009
Q 550 2706 781 3412
Q 1013 4119 1484 4856
L 1984 4856
z
" transform="scale(0.015625)"/>
       <path id="DejaVuSans-77" d="M 544 -1331
L 544 3500
L 1119 3500
L 1119 1325
Q 1119 872 1334 640
Q 1550 409 1972 409
Q 2434 409 2667 671
Q 2900 934 2900 1459
L 2900 3500
L 3475 3500
L 3475 806
Q 3475 619 3529 530
Q 3584 441 3700 441
Q 3728 441 3778 458
Q 3828 475 3916 513
L 3916 50
Q 3788 -22 3673 -56
Q 3559 -91 3450 -91
Q 3234 -91 3106 31
Q 2978 153 2931 403
Q 2775 156 2548 32
Q 2322 -91 2016 -91
Q 1697 -91 1473 31
Q 1250 153 1119 397
L 1119 -1331
L 544 -1331
z
" transform="scale(0.015625)"/>
       <path id="DejaVuSans-f" d="M 750 794
L 1409 794
L 1409 256
L 897 -744
L 494 -744
L 750 256
L 750 794
z
" transform="scale(0.015625)"/>
       <path id="DejaVuSans-52" d="M 1959 3097
Q 1497 3097 1228 2736
Q 959 2375 959 1747
Q 959 1119 1226 758
Q 1494 397 1959 397
Q 2419 397 2687 759
Q 2956 1122 2956 1747
Q 2956 2369 2687 2733
Q 2419 3097 1959 3097
z
M 1959 3584
Q 2709 3584 3137 3096
Q 3566 2609 3566 1747
Q 3566 888 3137 398
Q 2709 -91 1959 -91
Q 1206 -91 779 398
Q 353 888 353 1747
Q 353 2609 779 3096
Q 1206 3584 1959 3584
z
" transform="scale(0.015625)"/>
       <path id="DejaVuSans-4a" d="M 2906 1791
Q 2906 2416 2648 2759
Q 2391 3103 1925 3103
Q 1463 3103 1205 2759
Q 947 2416 947 1791
Q 947 1169 1205 825
Q 1463 481 1925 481
Q 2391 481 2648 825
Q 2906 1169 2906 1791
z
M 3481 434
Q 3481 -459 3084 -895
Q 2688 -1331 1869 -1331
Q 1566 -1331 1297 -1286
Q 1028 -1241 775 -1147
L 775 -588
Q 1028 -725 1275 -790
Q 1522 -856 1778 -856
Q 2344 -856 2625 -561
Q 2906 -266 2906 331
L 2906 616
Q 2728 306 2450 153
Q 2172 0 1784 0
Q 1141 0 747 490
Q 353 981 353 1791
Q 353 2603 747 3093
Q 1141 3584 1784 3584
Q 2172 3584 2450 3431
Q 2728 3278 2906 2969
L 2906 3500
L 3481 3500
L 3481 434
z
" transform="scale(0.015625)"/>
       <path id="DejaVuSans-c" d="M 513 4856
L 1013 4856
Q 1481 4119 1714 3412
Q 1947 2706 1947 2009
Q 1947 1309 1714 600
Q 1481 -109 1013 -844
L 513 -844
Q 928 -128 1133 580
Q 1338 1288 1338 2009
Q 1338 2731 1133 3434
Q 928 4138 513 4856
z
" transform="scale(0.015625)"/>
      </defs>
      <use xlink:href="#DejaVuSans-57"/>
      <use xlink:href="#DejaVuSans-4c" transform="translate(39.203125 0)"/>
      <use xlink:href="#DejaVuSans-50" transform="translate(66.984375 0)"/>
      <use xlink:href="#DejaVuSans-48" transform="translate(164.390625 0)"/>
      <use xlink:href="#DejaVuSans-3" transform="translate(225.921875 0)"/>
      <use xlink:href="#DejaVuSans-53" transform="translate(257.703125 0)"/>
      <use xlink:href="#DejaVuSans-48" transform="translate(321.1875 0)"/>
      <use xlink:href="#DejaVuSans-55" transform="translate(382.71875 0)"/>
      <use xlink:href="#DejaVuSans-3" transform="translate(423.828125 0)"/>
      <use xlink:href="#DejaVuSans-46" transform="translate(455.609375 0)"/>
      <use xlink:href="#DejaVuSans-44" transform="translate(510.59375 0)"/>
      <use xlink:href="#DejaVuSans-4f" transform="translate(571.875 0)"/>
      <use xlink:href="#DejaVuSans-4f" transform="translate(599.65625 0)"/>
      <use xlink:href="#DejaVuSans-3" transform="translate(627.4375 0)"/>
      <use xlink:href="#DejaVuSans-b" transform="translate(659.21875 0)"/>
      <use xlink:href="#DejaVuSans-77" transform="translate(698.234375 0)"/>
      <use xlink:href="#DejaVuSans-56" transform="translate(761.859375 0)"/>
      <use xlink:href="#DejaVuSans-f" transform="translate(813.953125 0)"/>
      <use xlink:href="#DejaVuSans-3" transform="translate(845.734375 0)"/>
      <use xlink:href="#DejaVuSans-4f" transform="translate(877.515625 0)"/>
      <use xlink:href="#DejaVuSans-52" transform="translate(905.296875 0)"/>
      <use xlink:href="#DejaVuSans-4a" transform="translate(966.484375 0)"/>
      <use xlink:href="#DejaVuSans-3" transform="translate(1029.96875 0)"/>
      <use xlink:href="#DejaVuSans-56" transform="translate(1061.75 0)"/>
      <use xlink:href="#DejaVuSans-46" transform="translate(1113.84375 0)"/>
      <use xlink:href="#DejaVuSans-44" transform="translate(1168.828125 0)"/>
      <use xlink:href="#DejaVuSans-4f" transform="translate(1230.109375 0)"/>
      <use xlink:href="#DejaVuSans-48" transform="translate(1257.890625 0)"/>
      <use xlink:href="#DejaVuSans-c" transform="translate(1319.421875 0)"/>
     </g>
    </g>
   </g>
   <g id="patch_31">
    <path d="M 45.800781 293.045801
L 45.800781 52.416703
" style="fill: none; stroke: #000000; stroke-width: 0.8; stroke-linejoin: miter; stroke-linecap: square"/>
   </g>
   <g id="patch_32">
    <path d="M 469.028438 293.045801
L 469.028438 52.416703
" style="fill: none; stroke: #000000; stroke-width: 0.8; stroke-linejoin: miter; stroke-linecap: square"/>
   </g>
   <g id="patch_33">
    <path d="M 45.800781 293.045801
L 469.028438 293.045801
" style="fill: none; stroke: #000000; stroke-width: 0.8; stroke-linejoin: miter; stroke-linecap: square"/>
   </g>
   <g id="patch_34">
    <path d="M 45.800781 52.416703
L 469.028438 52.416703
" style="fill: none; stroke: #000000; stroke-width: 0.8; stroke-linejoin: miter; stroke-linecap: square"/>
   </g>
   <g id="text_11">
    <!-- PRIMAL -->
    <g transform="translate(235.233359 46.416703) scale(0.12 -0.12)">
     <defs>
      <path id="DejaVuSans-33" d="M 1259 4147
L 1259 2394
L 2053 2394
Q 2494 2394 2734 2622
Q 2975 2850 2975 3272
Q 2975 3691 2734 3919
Q 2494 4147 2053 4147
L 1259 4147
z
M 628 4666
L 2053 4666
Q 2838 4666 3239 4311
Q 3641 3956 3641 3272
Q 3641 2581 3239 2228
Q 2838 1875 2053 1875
L 1259 1875
L 1259 0
L 628 0
L 628 4666
z
" transform="scale(0.015625)"/>
      <path id="DejaVuSans-2c" d="M 628 4666
L 1259 4666
L 1259 0
L 628 0
L 628 4666
z
" transform="scale(0.015625)"/>
     </defs>
     <use xlink:href="#DejaVuSans-33"/>
     <use xlink:href="#DejaVuSans-35" transform="translate(60.296875 0)"/>
     <use xlink:href="#DejaVuSans-2c" transform="translate(129.78125 0)"/>
     <use xlink:href="#DejaVuSans-30" transform="translate(159.28125 0)"/>
     <use xlink:href="#DejaVuSans-24" transform="translate(245.5625 0)"/>
     <use xlink:href="#DejaVuSans-2f" transform="translate(313.96875 0)"/>
    </g>
   </g>
  </g>
  <g id="axes_2">
   <g id="patch_35">
    <path d="M 497.650781 293.045801
L 920.878438 293.045801
L 920.878438 52.416703
L 497.650781 52.416703
z
" style="fill: #ffffff"/>
   </g>
   <g id="patch_36">
    <path d="M 516.888402 108683.793565
L 527.702449 108683.793565
L 527.702449 122.540721
L 516.888402 122.540721
z
" clip-path="url(#p5ee5ec0649)" style="fill: #3b5b92"/>
   </g>
   <g id="patch_37">
    <path d="M 573.80444 108683.793565
L 584.618487 108683.793565
L 584.618487 230.583081
L 573.80444 230.583081
z
" clip-path="url(#p5ee5ec0649)" style="fill: #3b5b92"/>
   </g>
   <g id="patch_38">
    <path d="M 630.720477 108683.793565
L 641.534525 108683.793565
L 641.534525 199.22757
L 630.720477 199.22757
z
" clip-path="url(#p5ee5ec0649)" style="fill: #3b5b92"/>
   </g>
   <g id="patch_39">
    <path d="M 687.636515 108683.793565
L 698.450562 108683.793565
L 698.450562 264.345972
L 687.636515 264.345972
z
" clip-path="url(#p5ee5ec0649)" style="fill: #3b5b92"/>
   </g>
   <g id="patch_40">
    <path d="M 744.552553 108683.793565
L 755.3666 108683.793565
L 755.3666 227.180535
L 744.552553 227.180535
z
" clip-path="url(#p5ee5ec0649)" style="fill: #3b5b92"/>
   </g>
   <g id="patch_41">
    <path d="M 801.46859 108683.793565
L 812.282638 108683.793565
L 812.282638 72.027505
L 801.46859 72.027505
z
" clip-path="url(#p5ee5ec0649)" style="fill: #3b5b92"/>
   </g>
   <g id="patch_42">
    <path d="M 858.384628 108683.793565
L 869.198675 108683.793565
L 869.198675 196.087589
L 858.384628 196.087589
z
" clip-path="url(#p5ee5ec0649)" style="fill: #3b5b92"/>
   </g>
   <g id="patch_43">
    <path d="M 527.702449 108683.793565
L 538.516496 108683.793565
L 538.516496 133.081258
L 527.702449 133.081258
z
" clip-path="url(#p5ee5ec0649)" style="fill: #d65f5f"/>
   </g>
   <g id="patch_44">
    <path d="M 584.618487 108683.793565
L 595.432534 108683.793565
L 595.432534 233.336792
L 584.618487 233.336792
z
" clip-path="url(#p5ee5ec0649)" style="fill: #d65f5f"/>
   </g>
   <g id="patch_45">
    <path d="M 641.534525 108683.793565
L 652.348572 108683.793565
L 652.348572 219.132982
L 641.534525 219.132982
z
" clip-path="url(#p5ee5ec0649)" style="fill: #d65f5f"/>
   </g>
   <g id="patch_46">
    <path d="M 698.450562 108683.793565
L 709.264609 108683.793565
L 709.264609 271.153189
L 698.450562 271.153189
z
" clip-path="url(#p5ee5ec0649)" style="fill: #d65f5f"/>
   </g>
   <g id="patch_47">
    <path d="M 755.3666 108683.793565
L 766.180647 108683.793565
L 766.180647 234.504966
L 755.3666 234.504966
z
" clip-path="url(#p5ee5ec0649)" style="fill: #d65f5f"/>
   </g>
   <g id="patch_48">
    <path d="M 812.282638 108683.793565
L 823.096685 108683.793565
L 823.096685 93.238813
L 812.282638 93.238813
z
" clip-path="url(#p5ee5ec0649)" style="fill: #d65f5f"/>
   </g>
   <g id="patch_49">
    <path d="M 869.198675 108683.793565
L 880.012722 108683.793565
L 880.012722 181.273122
L 869.198675 181.273122
z
" clip-path="url(#p5ee5ec0649)" style="fill: #d65f5f"/>
   </g>
   <g id="patch_50">
    <path d="M 538.516496 108683.793565
L 549.330543 108683.793565
L 549.330543 137.129096
L 538.516496 137.129096
z
" clip-path="url(#p5ee5ec0649)" style="fill: #6a9f58"/>
   </g>
   <g id="patch_51">
    <path d="M 595.432534 108683.793565
L 606.246581 108683.793565
L 606.246581 250.276822
L 595.432534 250.276822
z
" clip-path="url(#p5ee5ec0649)" style="fill: #6a9f58"/>
   </g>
   <g id="patch_52">
    <path d="M 652.348572 108683.793565
L 663.162619 108683.793565
L 663.162619 209.433849
L 652.348572 209.433849
z
" clip-path="url(#p5ee5ec0649)" style="fill: #6a9f58"/>
   </g>
   <g id="patch_53">
    <path d="M 709.264609 108683.793565
L 720.078657 108683.793565
L 720.078657 265.01626
L 709.264609 265.01626
z
" clip-path="url(#p5ee5ec0649)" style="fill: #6a9f58"/>
   </g>
   <g id="patch_54">
    <path d="M 766.180647 108683.793565
L 776.994694 108683.793565
L 776.994694 236.150844
L 766.180647 236.150844
z
" clip-path="url(#p5ee5ec0649)" style="fill: #6a9f58"/>
   </g>
   <g id="patch_55">
    <path d="M 823.096685 108683.793565
L 833.910732 108683.793565
L 833.910732 63.354389
L 823.096685 63.354389
z
" clip-path="url(#p5ee5ec0649)" style="fill: #6a9f58"/>
   </g>
   <g id="patch_56">
    <path d="M 880.012722 108683.793565
L 890.82677 108683.793565
L 890.82677 180.745532
L 880.012722 180.745532
z
" clip-path="url(#p5ee5ec0649)" style="fill: #6a9f58"/>
   </g>
   <g id="patch_57">
    <path d="M 549.330543 108683.793565
L 560.144591 108683.793565
L 560.144591 150.611747
L 549.330543 150.611747
z
" clip-path="url(#p5ee5ec0649)" style="fill: #8a63a8"/>
   </g>
   <g id="patch_58">
    <path d="M 606.246581 108683.793565
L 617.060628 108683.793565
L 617.060628 218.387891
L 606.246581 218.387891
z
" clip-path="url(#p5ee5ec0649)" style="fill: #8a63a8"/>
   </g>
   <g id="patch_59">
    <path d="M 663.162619 108683.793565
L 673.976666 108683.793565
L 673.976666 176.042283
L 663.162619 176.042283
z
" clip-path="url(#p5ee5ec0649)" style="fill: #8a63a8"/>
   </g>
   <g id="patch_60">
    <path d="M 720.078657 108683.793565
L 730.892704 108683.793565
L 730.892704 251.839861
L 720.078657 251.839861
z
" clip-path="url(#p5ee5ec0649)" style="fill: #8a63a8"/>
   </g>
   <g id="patch_61">
    <path d="M 776.994694 108683.793565
L 787.808741 108683.793565
L 787.808741 231.981549
L 776.994694 231.981549
z
" clip-path="url(#p5ee5ec0649)" style="fill: #8a63a8"/>
   </g>
   <g id="patch_62">
    <path d="M 833.910732 108683.793565
L 844.724779 108683.793565
L 844.724779 96.738213
L 833.910732 96.738213
z
" clip-path="url(#p5ee5ec0649)" style="fill: #8a63a8"/>
   </g>
   <g id="patch_63">
    <path d="M 890.82677 108683.793565
L 901.640817 108683.793565
L 901.640817 138.476136
L 890.82677 138.476136
z
" clip-path="url(#p5ee5ec0649)" style="fill: #8a63a8"/>
   </g>
   <g id="matplotlib.axis_3">
    <g id="xtick_8">
     <g id="line2d_50">
      <g>
       <use xlink:href="#md6ea544a47" x="538.516496" y="293.045801" style="stroke: #000000; stroke-width: 0.8"/>
      </g>
     </g>
     <g id="text_12">
      <!-- LSTM -->
      <g transform="translate(513.342455 318.197034) rotate(-25) scale(0.1 -0.1)">
       <use xlink:href="#DejaVuSans-2f"/>
       <use xlink:href="#DejaVuSans-36" transform="translate(55.71875 0)"/>
       <use xlink:href="#DejaVuSans-37" transform="translate(119.203125 0)"/>
       <use xlink:href="#DejaVuSans-30" transform="translate(180.28125 0)"/>
      </g>
     </g>
    </g>
    <g id="xtick_9">
     <g id="line2d_51">
      <g>
       <use xlink:href="#md6ea544a47" x="595.432534" y="293.045801" style="stroke: #000000; stroke-width: 0.8"/>
      </g>
     </g>
     <g id="text_13">
      <!-- BA -->
      <g transform="translate(581.999427 312.722147) rotate(-25) scale(0.1 -0.1)">
       <use xlink:href="#DejaVuSans-25"/>
       <use xlink:href="#DejaVuSans-24" transform="translate(68.609375 0)"/>
      </g>
     </g>
    </g>
    <g id="xtick_10">
     <g id="line2d_52">
      <g>
       <use xlink:href="#md6ea544a47" x="652.348572" y="293.045801" style="stroke: #000000; stroke-width: 0.8"/>
      </g>
     </g>
     <g id="text_14">
      <!-- GMM -->
      <g transform="translate(628.671354 317.499054) rotate(-25) scale(0.1 -0.1)">
       <use xlink:href="#DejaVuSans-2a"/>
       <use xlink:href="#DejaVuSans-30" transform="translate(77.484375 0)"/>
       <use xlink:href="#DejaVuSans-30" transform="translate(163.765625 0)"/>
      </g>
     </g>
    </g>
    <g id="xtick_11">
     <g id="line2d_53">
      <g>
       <use xlink:href="#md6ea544a47" x="709.264609" y="293.045801" style="stroke: #000000; stroke-width: 0.8"/>
      </g>
     </g>
     <g id="text_15">
      <!-- Euler -->
      <g transform="translate(684.958641 317.792953) rotate(-25) scale(0.1 -0.1)">
       <use xlink:href="#DejaVuSans-28"/>
       <use xlink:href="#DejaVuSans-58" transform="translate(63.1875 0)"/>
       <use xlink:href="#DejaVuSans-4f" transform="translate(126.5625 0)"/>
       <use xlink:href="#DejaVuSans-48" transform="translate(154.34375 0)"/>
       <use xlink:href="#DejaVuSans-55" transform="translate(215.875 0)"/>
      </g>
     </g>
    </g>
    <g id="xtick_12">
     <g id="line2d_54">
      <g>
       <use xlink:href="#md6ea544a47" x="766.180647" y="293.045801" style="stroke: #000000; stroke-width: 0.8"/>
      </g>
     </g>
     <g id="text_16">
      <!-- RK4 -->
      <g transform="translate(747.15817 315.328513) rotate(-25) scale(0.1 -0.1)">
       <use xlink:href="#DejaVuSans-35"/>
       <use xlink:href="#DejaVuSans-2e" transform="translate(69.484375 0)"/>
       <use xlink:href="#DejaVuSans-17" transform="translate(135.0625 0)"/>
      </g>
     </g>
    </g>
    <g id="xtick_13">
     <g id="line2d_55">
      <g>
       <use xlink:href="#md6ea544a47" x="823.096685" y="293.045801" style="stroke: #000000; stroke-width: 0.8"/>
      </g>
     </g>
     <g id="text_17">
      <!-- FFT -->
      <g transform="translate(806.279084 314.300362) rotate(-25) scale(0.1 -0.1)">
       <use xlink:href="#DejaVuSans-29"/>
       <use xlink:href="#DejaVuSans-29" transform="translate(57.515625 0)"/>
       <use xlink:href="#DejaVuSans-37" transform="translate(113.28125 0)"/>
      </g>
     </g>
    </g>
    <g id="xtick_14">
     <g id="line2d_56">
      <g>
       <use xlink:href="#md6ea544a47" x="880.012722" y="293.045801" style="stroke: #000000; stroke-width: 0.8"/>
      </g>
     </g>
     <g id="text_18">
      <!-- Bruss -->
      <g transform="translate(853.867232 318.650028) rotate(-25) scale(0.1 -0.1)">
       <use xlink:href="#DejaVuSans-25"/>
       <use xlink:href="#DejaVuSans-55" transform="translate(68.609375 0)"/>
       <use xlink:href="#DejaVuSans-58" transform="translate(109.71875 0)"/>
       <use xlink:href="#DejaVuSans-56" transform="translate(173.09375 0)"/>
       <use xlink:href="#DejaVuSans-56" transform="translate(225.1875 0)"/>
      </g>
     </g>
    </g>
   </g>
   <g id="matplotlib.axis_4">
    <g id="ytick_22">
     <g id="line2d_57">
      <path d="M 497.650781 246.580574
L 920.878438 246.580574
" clip-path="url(#p5ee5ec0649)" style="fill: none; stroke: #b0b0b0; stroke-opacity: 0.22; stroke-width: 0.8; stroke-linecap: square"/>
     </g>
     <g id="line2d_58">
      <g>
       <use xlink:href="#m5d10743984" x="497.650781" y="246.580574" style="stroke: #000000; stroke-width: 0.8"/>
      </g>
     </g>
    </g>
    <g id="ytick_23">
     <g id="line2d_59">
      <path d="M 497.650781 138.25169
L 920.878438 138.25169
" clip-path="url(#p5ee5ec0649)" style="fill: none; stroke: #b0b0b0; stroke-opacity: 0.22; stroke-width: 0.8; stroke-linecap: square"/>
     </g>
     <g id="line2d_60">
      <g>
       <use xlink:href="#m5d10743984" x="497.650781" y="138.25169" style="stroke: #000000; stroke-width: 0.8"/>
      </g>
     </g>
    </g>
    <g id="ytick_24">
     <g id="line2d_61">
      <path d="M 497.650781 289.688971
L 920.878438 289.688971
" clip-path="url(#p5ee5ec0649)" style="fill: none; stroke: #b0b0b0; stroke-opacity: 0.22; stroke-width: 0.8; stroke-linecap: square"/>
     </g>
     <g id="line2d_62">
      <g>
       <use xlink:href="#m502bc11d73" x="497.650781" y="289.688971" style="stroke: #000000; stroke-width: 0.6"/>
      </g>
     </g>
    </g>
    <g id="ytick_25">
     <g id="line2d_63">
      <path d="M 497.650781 279.190818
L 920.878438 279.190818
" clip-path="url(#p5ee5ec0649)" style="fill: none; stroke: #b0b0b0; stroke-opacity: 0.22; stroke-width: 0.8; stroke-linecap: square"/>
     </g>
     <g id="line2d_64">
      <g>
       <use xlink:href="#m502bc11d73" x="497.650781" y="279.190818" style="stroke: #000000; stroke-width: 0.6"/>
      </g>
     </g>
    </g>
    <g id="ytick_26">
     <g id="line2d_65">
      <path d="M 497.650781 270.613202
L 920.878438 270.613202
" clip-path="url(#p5ee5ec0649)" style="fill: none; stroke: #b0b0b0; stroke-opacity: 0.22; stroke-width: 0.8; stroke-linecap: square"/>
     </g>
     <g id="line2d_66">
      <g>
       <use xlink:href="#m502bc11d73" x="497.650781" y="270.613202" style="stroke: #000000; stroke-width: 0.6"/>
      </g>
     </g>
    </g>
    <g id="ytick_27">
     <g id="line2d_67">
      <path d="M 497.650781 263.360931
L 920.878438 263.360931
" clip-path="url(#p5ee5ec0649)" style="fill: none; stroke: #b0b0b0; stroke-opacity: 0.22; stroke-width: 0.8; stroke-linecap: square"/>
     </g>
     <g id="line2d_68">
      <g>
       <use xlink:href="#m502bc11d73" x="497.650781" y="263.360931" style="stroke: #000000; stroke-width: 0.6"/>
      </g>
     </g>
    </g>
    <g id="ytick_28">
     <g id="line2d_69">
      <path d="M 497.650781 257.078728
L 920.878438 257.078728
" clip-path="url(#p5ee5ec0649)" style="fill: none; stroke: #b0b0b0; stroke-opacity: 0.22; stroke-width: 0.8; stroke-linecap: square"/>
     </g>
     <g id="line2d_70">
      <g>
       <use xlink:href="#m502bc11d73" x="497.650781" y="257.078728" style="stroke: #000000; stroke-width: 0.6"/>
      </g>
     </g>
    </g>
    <g id="ytick_29">
     <g id="line2d_71">
      <path d="M 497.650781 251.537432
L 920.878438 251.537432
" clip-path="url(#p5ee5ec0649)" style="fill: none; stroke: #b0b0b0; stroke-opacity: 0.22; stroke-width: 0.8; stroke-linecap: square"/>
     </g>
     <g id="line2d_72">
      <g>
       <use xlink:href="#m502bc11d73" x="497.650781" y="251.537432" style="stroke: #000000; stroke-width: 0.6"/>
      </g>
     </g>
    </g>
    <g id="ytick_30">
     <g id="line2d_73">
      <path d="M 497.650781 213.970331
L 920.878438 213.970331
" clip-path="url(#p5ee5ec0649)" style="fill: none; stroke: #b0b0b0; stroke-opacity: 0.22; stroke-width: 0.8; stroke-linecap: square"/>
     </g>
     <g id="line2d_74">
      <g>
       <use xlink:href="#m502bc11d73" x="497.650781" y="213.970331" style="stroke: #000000; stroke-width: 0.6"/>
      </g>
     </g>
    </g>
    <g id="ytick_31">
     <g id="line2d_75">
      <path d="M 497.650781 194.894561
L 920.878438 194.894561
" clip-path="url(#p5ee5ec0649)" style="fill: none; stroke: #b0b0b0; stroke-opacity: 0.22; stroke-width: 0.8; stroke-linecap: square"/>
     </g>
     <g id="line2d_76">
      <g>
       <use xlink:href="#m502bc11d73" x="497.650781" y="194.894561" style="stroke: #000000; stroke-width: 0.6"/>
      </g>
     </g>
    </g>
    <g id="ytick_32">
     <g id="line2d_77">
      <path d="M 497.650781 181.360087
L 920.878438 181.360087
" clip-path="url(#p5ee5ec0649)" style="fill: none; stroke: #b0b0b0; stroke-opacity: 0.22; stroke-width: 0.8; stroke-linecap: square"/>
     </g>
     <g id="line2d_78">
      <g>
       <use xlink:href="#m502bc11d73" x="497.650781" y="181.360087" style="stroke: #000000; stroke-width: 0.6"/>
      </g>
     </g>
    </g>
    <g id="ytick_33">
     <g id="line2d_79">
      <path d="M 497.650781 170.861934
L 920.878438 170.861934
" clip-path="url(#p5ee5ec0649)" style="fill: none; stroke: #b0b0b0; stroke-opacity: 0.22; stroke-width: 0.8; stroke-linecap: square"/>
     </g>
     <g id="line2d_80">
      <g>
       <use xlink:href="#m502bc11d73" x="497.650781" y="170.861934" style="stroke: #000000; stroke-width: 0.6"/>
      </g>
     </g>
    </g>
    <g id="ytick_34">
     <g id="line2d_81">
      <path d="M 497.650781 162.284318
L 920.878438 162.284318
" clip-path="url(#p5ee5ec0649)" style="fill: none; stroke: #b0b0b0; stroke-opacity: 0.22; stroke-width: 0.8; stroke-linecap: square"/>
     </g>
     <g id="line2d_82">
      <g>
       <use xlink:href="#m502bc11d73" x="497.650781" y="162.284318" style="stroke: #000000; stroke-width: 0.6"/>
      </g>
     </g>
    </g>
    <g id="ytick_35">
     <g id="line2d_83">
      <path d="M 497.650781 155.032047
L 920.878438 155.032047
" clip-path="url(#p5ee5ec0649)" style="fill: none; stroke: #b0b0b0; stroke-opacity: 0.22; stroke-width: 0.8; stroke-linecap: square"/>
     </g>
     <g id="line2d_84">
      <g>
       <use xlink:href="#m502bc11d73" x="497.650781" y="155.032047" style="stroke: #000000; stroke-width: 0.6"/>
      </g>
     </g>
    </g>
    <g id="ytick_36">
     <g id="line2d_85">
      <path d="M 497.650781 148.749844
L 920.878438 148.749844
" clip-path="url(#p5ee5ec0649)" style="fill: none; stroke: #b0b0b0; stroke-opacity: 0.22; stroke-width: 0.8; stroke-linecap: square"/>
     </g>
     <g id="line2d_86">
      <g>
       <use xlink:href="#m502bc11d73" x="497.650781" y="148.749844" style="stroke: #000000; stroke-width: 0.6"/>
      </g>
     </g>
    </g>
    <g id="ytick_37">
     <g id="line2d_87">
      <path d="M 497.650781 143.208548
L 920.878438 143.208548
" clip-path="url(#p5ee5ec0649)" style="fill: none; stroke: #b0b0b0; stroke-opacity: 0.22; stroke-width: 0.8; stroke-linecap: square"/>
     </g>
     <g id="line2d_88">
      <g>
       <use xlink:href="#m502bc11d73" x="497.650781" y="143.208548" style="stroke: #000000; stroke-width: 0.6"/>
      </g>
     </g>
    </g>
    <g id="ytick_38">
     <g id="line2d_89">
      <path d="M 497.650781 105.641447
L 920.878438 105.641447
" clip-path="url(#p5ee5ec0649)" style="fill: none; stroke: #b0b0b0; stroke-opacity: 0.22; stroke-width: 0.8; stroke-linecap: square"/>
     </g>
     <g id="line2d_90">
      <g>
       <use xlink:href="#m502bc11d73" x="497.650781" y="105.641447" style="stroke: #000000; stroke-width: 0.6"/>
      </g>
     </g>
    </g>
    <g id="ytick_39">
     <g id="line2d_91">
      <path d="M 497.650781 86.565677
L 920.878438 86.565677
" clip-path="url(#p5ee5ec0649)" style="fill: none; stroke: #b0b0b0; stroke-opacity: 0.22; stroke-width: 0.8; stroke-linecap: square"/>
     </g>
     <g id="line2d_92">
      <g>
       <use xlink:href="#m502bc11d73" x="497.650781" y="86.565677" style="stroke: #000000; stroke-width: 0.6"/>
      </g>
     </g>
    </g>
    <g id="ytick_40">
     <g id="line2d_93">
      <path d="M 497.650781 73.031203
L 920.878438 73.031203
" clip-path="url(#p5ee5ec0649)" style="fill: none; stroke: #b0b0b0; stroke-opacity: 0.22; stroke-width: 0.8; stroke-linecap: square"/>
     </g>
     <g id="line2d_94">
      <g>
       <use xlink:href="#m502bc11d73" x="497.650781" y="73.031203" style="stroke: #000000; stroke-width: 0.6"/>
      </g>
     </g>
    </g>
    <g id="ytick_41">
     <g id="line2d_95">
      <path d="M 497.650781 62.53305
L 920.878438 62.53305
" clip-path="url(#p5ee5ec0649)" style="fill: none; stroke: #b0b0b0; stroke-opacity: 0.22; stroke-width: 0.8; stroke-linecap: square"/>
     </g>
     <g id="line2d_96">
      <g>
       <use xlink:href="#m502bc11d73" x="497.650781" y="62.53305" style="stroke: #000000; stroke-width: 0.6"/>
      </g>
     </g>
    </g>
    <g id="ytick_42">
     <g id="line2d_97">
      <path d="M 497.650781 53.955434
L 920.878438 53.955434
" clip-path="url(#p5ee5ec0649)" style="fill: none; stroke: #b0b0b0; stroke-opacity: 0.22; stroke-width: 0.8; stroke-linecap: square"/>
     </g>
     <g id="line2d_98">
      <g>
       <use xlink:href="#m502bc11d73" x="497.650781" y="53.955434" style="stroke: #000000; stroke-width: 0.6"/>
      </g>
     </g>
    </g>
    <g id="text_19">
     <!-- time per call (µs, log scale) -->
     <g transform="translate(487.748438 240.653127) rotate(-90) scale(0.1 -0.1)">
      <use xlink:href="#DejaVuSans-57"/>
      <use xlink:href="#DejaVuSans-4c" transform="translate(39.203125 0)"/>
      <use xlink:href="#DejaVuSans-50" transform="translate(66.984375 0)"/>
      <use xlink:href="#DejaVuSans-48" transform="translate(164.390625 0)"/>
      <use xlink:href="#DejaVuSans-3" transform="translate(225.921875 0)"/>
      <use xlink:href="#DejaVuSans-53" transform="translate(257.703125 0)"/>
      <use xlink:href="#DejaVuSans-48" transform="translate(321.1875 0)"/>
      <use xlink:href="#DejaVuSans-55" transform="translate(382.71875 0)"/>
      <use xlink:href="#DejaVuSans-3" transform="translate(423.828125 0)"/>
      <use xlink:href="#DejaVuSans-46" transform="translate(455.609375 0)"/>
      <use xlink:href="#DejaVuSans-44" transform="translate(510.59375 0)"/>
      <use xlink:href="#DejaVuSans-4f" transform="translate(571.875 0)"/>
      <use xlink:href="#DejaVuSans-4f" transform="translate(599.65625 0)"/>
      <use xlink:href="#DejaVuSans-3" transform="translate(627.4375 0)"/>
      <use xlink:href="#DejaVuSans-b" transform="translate(659.21875 0)"/>
      <use xlink:href="#DejaVuSans-77" transform="translate(698.234375 0)"/>
      <use xlink:href="#DejaVuSans-56" transform="translate(761.859375 0)"/>
      <use xlink:href="#DejaVuSans-f" transform="translate(813.953125 0)"/>
      <use xlink:href="#DejaVuSans-3" transform="translate(845.734375 0)"/>
      <use xlink:href="#DejaVuSans-4f" transform="translate(877.515625 0)"/>
      <use xlink:href="#DejaVuSans-52" transform="translate(905.296875 0)"/>
      <use xlink:href="#DejaVuSans-4a" transform="translate(966.484375 0)"/>
      <use xlink:href="#DejaVuSans-3" transform="translate(1029.96875 0)"/>
      <use xlink:href="#DejaVuSans-56" transform="translate(1061.75 0)"/>
      <use xlink:href="#DejaVuSans-46" transform="translate(1113.84375 0)"/>
      <use xlink:href="#DejaVuSans-44" transform="translate(1168.828125 0)"/>
      <use xlink:href="#DejaVuSans-4f" transform="translate(1230.109375 0)"/>
      <use xlink:href="#DejaVuSans-48" transform="translate(1257.890625 0)"/>
      <use xlink:href="#DejaVuSans-c" transform="translate(1319.421875 0)"/>
     </g>
    </g>
   </g>
   <g id="patch_64">
    <path d="M 497.650781 293.045801
L 497.650781 52.416703
" style="fill: none; stroke: #000000; stroke-width: 0.8; stroke-linejoin: miter; stroke-linecap: square"/>
   </g>
   <g id="patch_65">
    <path d="M 920.878438 293.045801
L 920.878438 52.416703
" style="fill: none; stroke: #000000; stroke-width: 0.8; stroke-linejoin: miter; stroke-linecap: square"/>
   </g>
   <g id="patch_66">
    <path d="M 497.650781 293.045801
L 920.878438 293.045801
" style="fill: none; stroke: #000000; stroke-width: 0.8; stroke-linejoin: miter; stroke-linecap: square"/>
   </g>
   <g id="patch_67">
    <path d="M 497.650781 52.416703
L 920.878438 52.416703
" style="fill: none; stroke: #000000; stroke-width: 0.8; stroke-linejoin: miter; stroke-linecap: square"/>
   </g>
   <g id="text_20">
    <!-- VJP -->
    <g transform="translate(699.772422 46.416703) scale(0.12 -0.12)">
     <defs>
      <path id="DejaVuSans-39" d="M 1831 0
L 50 4666
L 709 4666
L 2188 738
L 3669 4666
L 4325 4666
L 2547 0
L 1831 0
z
" transform="scale(0.015625)"/>
      <path id="DejaVuSans-2d" d="M 628 4666
L 1259 4666
L 1259 325
Q 1259 -519 939 -900
Q 619 -1281 -91 -1281
L -331 -1281
L -331 -750
L -134 -750
Q 284 -750 456 -515
Q 628 -281 628 325
L 628 4666
z
" transform="scale(0.015625)"/>
     </defs>
     <use xlink:href="#DejaVuSans-39"/>
     <use xlink:href="#DejaVuSans-2d" transform="translate(68.40625 0)"/>
     <use xlink:href="#DejaVuSans-33" transform="translate(97.90625 0)"/>
    </g>
   </g>
   <g id="legend_1">
    <g id="patch_68">
     <path d="M 505.750781 67.355297
L 523.750781 67.355297
L 523.750781 61.055297
L 505.750781 61.055297
z
" style="fill: #3b5b92"/>
    </g>
    <g id="text_21">
     <!-- C++ Enzyme -->
     <g transform="translate(530.950781 67.355297) scale(0.09 -0.09)">
      <defs>
       <path id="DejaVuSans-26" d="M 4122 4306
L 4122 3641
Q 3803 3938 3442 4084
Q 3081 4231 2675 4231
Q 1875 4231 1450 3742
Q 1025 3253 1025 2328
Q 1025 1406 1450 917
Q 1875 428 2675 428
Q 3081 428 3442 575
Q 3803 722 4122 1019
L 4122 359
Q 3791 134 3420 21
Q 3050 -91 2638 -91
Q 1578 -91 968 557
Q 359 1206 359 2328
Q 359 3453 968 4101
Q 1578 4750 2638 4750
Q 3056 4750 3426 4639
Q 3797 4528 4122 4306
z
" transform="scale(0.015625)"/>
       <path id="DejaVuSans-e" d="M 2944 4013
L 2944 2272
L 4684 2272
L 4684 1741
L 2944 1741
L 2944 0
L 2419 0
L 2419 1741
L 678 1741
L 678 2272
L 2419 2272
L 2419 4013
L 2944 4013
z
" transform="scale(0.015625)"/>
       <path id="DejaVuSans-51" d="M 3513 2113
L 3513 0
L 2938 0
L 2938 2094
Q 2938 2591 2744 2837
Q 2550 3084 2163 3084
Q 1697 3084 1428 2787
Q 1159 2491 1159 1978
L 1159 0
L 581 0
L 581 3500
L 1159 3500
L 1159 2956
Q 1366 3272 1645 3428
Q 1925 3584 2291 3584
Q 2894 3584 3203 3211
Q 3513 2838 3513 2113
z
" transform="scale(0.015625)"/>
       <path id="DejaVuSans-5d" d="M 353 3500
L 3084 3500
L 3084 2975
L 922 459
L 3084 459
L 3084 0
L 275 0
L 275 525
L 2438 3041
L 353 3041
L 353 3500
z
" transform="scale(0.015625)"/>
       <path id="DejaVuSans-5c" d="M 2059 -325
Q 1816 -950 1584 -1140
Q 1353 -1331 966 -1331
L 506 -1331
L 506 -850
L 844 -850
Q 1081 -850 1212 -737
Q 1344 -625 1503 -206
L 1606 56
L 191 3500
L 800 3500
L 1894 763
L 2988 3500
L 3597 3500
L 2059 -325
z
" transform="scale(0.015625)"/>
      </defs>
      <use xlink:href="#DejaVuSans-26"/>
      <use xlink:href="#DejaVuSans-e" transform="translate(69.828125 0)"/>
      <use xlink:href="#DejaVuSans-e" transform="translate(153.625 0)"/>
      <use xlink:href="#DejaVuSans-3" transform="translate(237.421875 0)"/>
      <use xlink:href="#DejaVuSans-28" transform="translate(269.203125 0)"/>
      <use xlink:href="#DejaVuSans-51" transform="translate(332.390625 0)"/>
      <use xlink:href="#DejaVuSans-5d" transform="translate(395.765625 0)"/>
      <use xlink:href="#DejaVuSans-5c" transform="translate(448.25 0)"/>
      <use xlink:href="#DejaVuSans-50" transform="translate(507.4375 0)"/>
      <use xlink:href="#DejaVuSans-48" transform="translate(604.84375 0)"/>
     </g>
    </g>
    <g id="patch_69">
     <path d="M 505.750781 80.856
L 523.750781 80.856
L 523.750781 74.556
L 505.750781 74.556
z
" style="fill: #d65f5f"/>
    </g>
    <g id="text_22">
     <!-- Flang Enzyme -->
     <g transform="translate(530.950781 80.856) scale(0.09 -0.09)">
      <use xlink:href="#DejaVuSans-29"/>
      <use xlink:href="#DejaVuSans-4f" transform="translate(57.515625 0)"/>
      <use xlink:href="#DejaVuSans-44" transform="translate(85.296875 0)"/>
      <use xlink:href="#DejaVuSans-51" transform="translate(146.578125 0)"/>
      <use xlink:href="#DejaVuSans-4a" transform="translate(209.953125 0)"/>
      <use xlink:href="#DejaVuSans-3" transform="translate(273.4375 0)"/>
      <use xlink:href="#DejaVuSans-28" transform="translate(305.21875 0)"/>
      <use xlink:href="#DejaVuSans-51" transform="translate(368.40625 0)"/>
      <use xlink:href="#DejaVuSans-5d" transform="translate(431.78125 0)"/>
      <use xlink:href="#DejaVuSans-5c" transform="translate(484.265625 0)"/>
      <use xlink:href="#DejaVuSans-50" transform="translate(543.453125 0)"/>
      <use xlink:href="#DejaVuSans-48" transform="translate(640.859375 0)"/>
     </g>
    </g>
    <g id="patch_70">
     <path d="M 505.750781 94.356703
L 523.750781 94.356703
L 523.750781 88.056703
L 505.750781 88.056703
z
" style="fill: #6a9f58"/>
    </g>
    <g id="text_23">
     <!-- LFortran Enzyme -->
     <g transform="translate(530.950781 94.356703) scale(0.09 -0.09)">
      <use xlink:href="#DejaVuSans-2f"/>
      <use xlink:href="#DejaVuSans-29" transform="translate(55.71875 0)"/>
      <use xlink:href="#DejaVuSans-52" transform="translate(109.671875 0)"/>
      <use xlink:href="#DejaVuSans-55" transform="translate(170.859375 0)"/>
      <use xlink:href="#DejaVuSans-57" transform="translate(211.96875 0)"/>
      <use xlink:href="#DejaVuSans-55" transform="translate(251.171875 0)"/>
      <use xlink:href="#DejaVuSans-44" transform="translate(292.28125 0)"/>
      <use xlink:href="#DejaVuSans-51" transform="translate(353.5625 0)"/>
      <use xlink:href="#DejaVuSans-3" transform="translate(416.9375 0)"/>
      <use xlink:href="#DejaVuSans-28" transform="translate(448.71875 0)"/>
      <use xlink:href="#DejaVuSans-51" transform="translate(511.90625 0)"/>
      <use xlink:href="#DejaVuSans-5d" transform="translate(575.28125 0)"/>
      <use xlink:href="#DejaVuSans-5c" transform="translate(627.765625 0)"/>
      <use xlink:href="#DejaVuSans-50" transform="translate(686.953125 0)"/>
      <use xlink:href="#DejaVuSans-48" transform="translate(784.359375 0)"/>
     </g>
    </g>
    <g id="patch_71">
     <path d="M 505.750781 107.857406
L 523.750781 107.857406
L 523.750781 101.557406
L 505.750781 101.557406
z
" style="fill: #8a63a8"/>
    </g>
    <g id="text_24">
     <!-- JAX JIT -->
     <g transform="translate(530.950781 107.857406) scale(0.09 -0.09)">
      <defs>
       <path id="DejaVuSans-3b" d="M 403 4666
L 1081 4666
L 2241 2931
L 3406 4666
L 4084 4666
L 2584 2425
L 4184 0
L 3506 0
L 2194 1984
L 872 0
L 191 0
L 1856 2491
L 403 4666
z
" transform="scale(0.015625)"/>
      </defs>
      <use xlink:href="#DejaVuSans-2d"/>
      <use xlink:href="#DejaVuSans-24" transform="translate(27.75 0)"/>
      <use xlink:href="#DejaVuSans-3b" transform="translate(96.15625 0)"/>
      <use xlink:href="#DejaVuSans-3" transform="translate(164.65625 0)"/>
      <use xlink:href="#DejaVuSans-2d" transform="translate(196.4375 0)"/>
      <use xlink:href="#DejaVuSans-2c" transform="translate(225.9375 0)"/>
      <use xlink:href="#DejaVuSans-37" transform="translate(255.4375 0)"/>
     </g>
    </g>
   </g>
  </g>
  <g id="text_25">
   <!-- Largest measured case for each workload -->
   <g transform="translate(306.518281 18.597656) scale(0.15 -0.15)">
    <defs>
     <path id="DejaVuSans-47" d="M 2906 2969
L 2906 4863
L 3481 4863
L 3481 0
L 2906 0
L 2906 525
Q 2725 213 2448 61
Q 2172 -91 1784 -91
Q 1150 -91 751 415
Q 353 922 353 1747
Q 353 2572 751 3078
Q 1150 3584 1784 3584
Q 2172 3584 2448 3432
Q 2725 3281 2906 2969
z
M 947 1747
Q 947 1113 1208 752
Q 1469 391 1925 391
Q 2381 391 2643 752
Q 2906 1113 2906 1747
Q 2906 2381 2643 2742
Q 2381 3103 1925 3103
Q 1469 3103 1208 2742
Q 947 2381 947 1747
z
" transform="scale(0.015625)"/>
     <path id="DejaVuSans-49" d="M 2375 4863
L 2375 4384
L 1825 4384
Q 1516 4384 1395 4259
Q 1275 4134 1275 3809
L 1275 3500
L 2222 3500
L 2222 3053
L 1275 3053
L 1275 0
L 697 0
L 697 3053
L 147 3053
L 147 3500
L 697 3500
L 697 3744
Q 697 4328 969 4595
Q 1241 4863 1831 4863
L 2375 4863
z
" transform="scale(0.015625)"/>
     <path id="DejaVuSans-4b" d="M 3513 2113
L 3513 0
L 2938 0
L 2938 2094
Q 2938 2591 2744 2837
Q 2550 3084 2163 3084
Q 1697 3084 1428 2787
Q 1159 2491 1159 1978
L 1159 0
L 581 0
L 581 4863
L 1159 4863
L 1159 2956
Q 1366 3272 1645 3428
Q 1925 3584 2291 3584
Q 2894 3584 3203 3211
Q 3513 2838 3513 2113
z
" transform="scale(0.015625)"/>
     <path id="DejaVuSans-5a" d="M 269 3500
L 844 3500
L 1563 769
L 2278 3500
L 2956 3500
L 3675 769
L 4391 3500
L 4966 3500
L 4050 0
L 3372 0
L 2619 2869
L 1863 0
L 1184 0
L 269 3500
z
" transform="scale(0.015625)"/>
     <path id="DejaVuSans-4e" d="M 581 4863
L 1159 4863
L 1159 1991
L 2875 3500
L 3609 3500
L 1753 1863
L 3688 0
L 2938 0
L 1159 1709
L 1159 0
L 581 0
L 581 4863
z
" transform="scale(0.015625)"/>
    </defs>
    <use xlink:href="#DejaVuSans-2f"/>
    <use xlink:href="#DejaVuSans-44" transform="translate(55.71875 0)"/>
    <use xlink:href="#DejaVuSans-55" transform="translate(117 0)"/>
    <use xlink:href="#DejaVuSans-4a" transform="translate(156.359375 0)"/>
    <use xlink:href="#DejaVuSans-48" transform="translate(219.84375 0)"/>
    <use xlink:href="#DejaVuSans-56" transform="translate(281.375 0)"/>
    <use xlink:href="#DejaVuSans-57" transform="translate(333.46875 0)"/>
    <use xlink:href="#DejaVuSans-3" transform="translate(372.671875 0)"/>
    <use xlink:href="#DejaVuSans-50" transform="translate(404.453125 0)"/>
    <use xlink:href="#DejaVuSans-48" transform="translate(501.859375 0)"/>
    <use xlink:href="#DejaVuSans-44" transform="translate(563.390625 0)"/>
    <use xlink:href="#DejaVuSans-56" transform="translate(624.671875 0)"/>
    <use xlink:href="#DejaVuSans-58" transform="translate(676.765625 0)"/>
    <use xlink:href="#DejaVuSans-55" transform="translate(740.140625 0)"/>
    <use xlink:href="#DejaVuSans-48" transform="translate(779.046875 0)"/>
    <use xlink:href="#DejaVuSans-47" transform="translate(840.578125 0)"/>
    <use xlink:href="#DejaVuSans-3" transform="translate(904.0625 0)"/>
    <use xlink:href="#DejaVuSans-46" transform="translate(935.84375 0)"/>
    <use xlink:href="#DejaVuSans-44" transform="translate(990.828125 0)"/>
    <use xlink:href="#DejaVuSans-56" transform="translate(1052.109375 0)"/>
    <use xlink:href="#DejaVuSans-48" transform="translate(1104.203125 0)"/>
    <use xlink:href="#DejaVuSans-3" transform="translate(1165.734375 0)"/>
    <use xlink:href="#DejaVuSans-49" transform="translate(1197.515625 0)"/>
    <use xlink:href="#DejaVuSans-52" transform="translate(1232.71875 0)"/>
    <use xlink:href="#DejaVuSans-55" transform="translate(1293.90625 0)"/>
    <use xlink:href="#DejaVuSans-3" transform="translate(1335.015625 0)"/>
    <use xlink:href="#DejaVuSans-48" transform="translate(1366.796875 0)"/>
    <use xlink:href="#DejaVuSans-44" transform="translate(1428.328125 0)"/>
    <use xlink:href="#DejaVuSans-46" transform="translate(1489.609375 0)"/>
    <use xlink:href="#DejaVuSans-4b" transform="translate(1544.59375 0)"/>
    <use xlink:href="#DejaVuSans-3" transform="translate(1607.96875 0)"/>
    <use xlink:href="#DejaVuSans-5a" transform="translate(1639.75 0)"/>
    <use xlink:href="#DejaVuSans-52" transform="translate(1721.53125 0)"/>
    <use xlink:href="#DejaVuSans-55" transform="translate(1782.71875 0)"/>
    <use xlink:href="#DejaVuSans-4e" transform="translate(1823.828125 0)"/>
    <use xlink:href="#DejaVuSans-4f" transform="translate(1881.734375 0)"/>
    <use xlink:href="#DejaVuSans-52" transform="translate(1909.515625 0)"/>
    <use xlink:href="#DejaVuSans-44" transform="translate(1970.703125 0)"/>
    <use xlink:href="#DejaVuSans-47" transform="translate(2031.984375 0)"/>
   </g>
  </g>
 </g>
 <defs>
  <clipPath id="pb86f8b8ba7">
   <rect x="45.800781" y="52.416703" width="423.227656" height="240.629098"/>
  </clipPath>
  <clipPath id="p5ee5ec0649">
   <rect x="497.650781" y="52.416703" width="423.227656" height="240.629098"/>
  </clipPath>
 </defs>
</svg>
