<?xml version="1.0" encoding="utf-8" standalone="no"?>
<!DOCTYPE svg PUBLIC "-//W3C//DTD SVG 1.1//EN"
  "http://www.w3.org/Graphics/SVG/1.1/DTD/svg11.dtd">
<svg xmlns:xlink="http://www.w3.org/1999/xlink" width="507.874375pt" height="280.518437pt" viewBox="0 0 507.874375 280.518437" xmlns="http://www.w3.org/2000/svg" version="1.1">
 <metadata>
  <rdf:RDF xmlns:dc="http://purl.org/dc/elements/1.1/" xmlns:cc="http://creativecommons.org/ns#" xmlns:rdf="http://www.w3.org/1999/02/22-rdf-syntax-ns#">
   <cc:Work>
    <dc:type rdf:resource="http://purl.org/dc/dcmitype/StillImage"/>
    <dc:format>image/svg+xml</dc:format>
    <dc:creator>
     <cc:Agent>
      <dc:title>Matplotlib v3.11.0, https://matplotlib.org/</dc:title>
     </cc:Agent>
    </dc:creator>
   </cc:Work>
  </rdf:RDF>
 </metadata>
 <defs>
  <style type="text/css">*{stroke-linejoin: round; stroke-linecap: butt}</style>
 </defs>
 <g id="figure_1">
  <g id="patch_1">
   <path d="M 0 280.518437
L 507.874375 280.518437
L 507.874375 0
L 0 0
z
" style="fill: #ffffff"/>
  </g>
  <g id="axes_1">
   <g id="patch_2">
    <path d="M 142.184375 240.515312
L 500.674375 240.515312
L 500.674375 7.2
L 142.184375 7.2
z
" style="fill: #ffffff"/>
   </g>
   <g id="matplotlib.axis_1">
    <g id="xtick_1">
     <g id="line2d_1">
      <path d="M 143.122109 240.515312
L 143.122109 7.2
" clip-path="url(#p0000000001)" style="fill: none; stroke: #b0b0b0; stroke-opacity: 0.22; stroke-width: 0.8; stroke-linecap: square"/>
     </g>
     <g id="line2d_2">
      <defs>
       <path id="m0000000001" d="M 0 0
L 0 3.5
" style="stroke: #000000; stroke-width: 0.8"/>
      </defs>
      <g>
       <use xlink:href="#m0000000001" x="143.122109" y="240.515312" style="stroke: #000000; stroke-width: 0.8"/>
      </g>
     </g>
     <g id="text_1">
      <!-- $\mathdefault{10^{-18}}$ -->
      <g transform="translate(129.172109 256.915312) scale(0.1 -0.1)">
       <defs>
        <path id="DejaVuSans-14" d="M 794 531
L 1825 531
L 1825 4091
L 703 3866
L 703 4441
L 1819 4666
L 2450 4666
L 2450 531
L 3481 531
L 3481 0
L 794 0
L 794 531
z
" transform="scale(0.015625)"/>
        <path id="DejaVuSans-13" d="M 2034 4250
Q 1547 4250 1301 3770
Q 1056 3291 1056 2328
Q 1056 1369 1301 889
Q 1547 409 2034 409
Q 2525 409 2770 889
Q 3016 1369 3016 2328
Q 3016 3291 2770 3770
Q 2525 4250 2034 4250
z
M 2034 4750
Q 2819 4750 3233 4129
Q 3647 3509 3647 2328
Q 3647 1150 3233 529
Q 2819 -91 2034 -91
Q 1250 -91 836 529
Q 422 1150 422 2328
Q 422 3509 836 4129
Q 1250 4750 2034 4750
z
" transform="scale(0.015625)"/>
        <path id="DejaVuSans-c9c" d="M 678 2272
L 4684 2272
L 4684 1741
L 678 1741
L 678 2272
z
" transform="scale(0.015625)"/>
        <path id="DejaVuSans-1b" d="M 2034 2216
Q 1584 2216 1326 1975
Q 1069 1734 1069 1313
Q 1069 891 1326 650
Q 1584 409 2034 409
Q 2484 409 2743 651
Q 3003 894 3003 1313
Q 3003 1734 2745 1975
Q 2488 2216 2034 2216
z
M 1403 2484
Q 997 2584 770 2862
Q 544 3141 544 3541
Q 544 4100 942 4425
Q 1341 4750 2034 4750
Q 2731 4750 3128 4425
Q 3525 4100 3525 3541
Q 3525 3141 3298 2862
Q 3072 2584 2669 2484
Q 3125 2378 3379 2068
Q 3634 1759 3634 1313
Q 3634 634 3220 271
Q 2806 -91 2034 -91
Q 1263 -91 848 271
Q 434 634 434 1313
Q 434 1759 690 2068
Q 947 2378 1403 2484
z
M 1172 3481
Q 1172 3119 1398 2916
Q 1625 2713 2034 2713
Q 2441 2713 2670 2916
Q 2900 3119 2900 3481
Q 2900 3844 2670 4047
Q 2441 4250 2034 4250
Q 1625 4250 1398 4047
Q 1172 3844 1172 3481
z
" transform="scale(0.015625)"/>
       </defs>
       <use xlink:href="#DejaVuSans-14" transform="translate(0 0.746875)"/>
       <use xlink:href="#DejaVuSans-13" transform="translate(63.623047 0.746875)"/>
       <use xlink:href="#DejaVuSans-c9c" transform="translate(128.203125 42.046875) scale(0.7)"/>
       <use xlink:href="#DejaVuSans-14" transform="translate(186.855469 42.046875) scale(0.7)"/>
       <use xlink:href="#DejaVuSans-1b" transform="translate(231.391602 42.046875) scale(0.7)"/>
      </g>
     </g>
    </g>
    <g id="xtick_2">
     <g id="line2d_3">
      <path d="M 221.869847 240.515312
L 221.869847 7.2
" clip-path="url(#p0000000001)" style="fill: none; stroke: #b0b0b0; stroke-opacity: 0.22; stroke-width: 0.8; stroke-linecap: square"/>
     </g>
     <g id="line2d_4">
      <g>
       <use xlink:href="#m0000000001" x="221.869847" y="240.515312" style="stroke: #000000; stroke-width: 0.8"/>
      </g>
     </g>
     <g id="text_2">
      <!-- $\mathdefault{10^{-16}}$ -->
      <g transform="translate(207.919847 256.915312) scale(0.1 -0.1)">
       <defs>
        <path id="DejaVuSans-19" d="M 2113 2584
Q 1688 2584 1439 2293
Q 1191 2003 1191 1497
Q 1191 994 1439 701
Q 1688 409 2113 409
Q 2538 409 2786 701
Q 3034 994 3034 1497
Q 3034 2003 2786 2293
Q 2538 2584 2113 2584
z
M 3366 4563
L 3366 3988
Q 3128 4100 2886 4159
Q 2644 4219 2406 4219
Q 1781 4219 1451 3797
Q 1122 3375 1075 2522
Q 1259 2794 1537 2939
Q 1816 3084 2150 3084
Q 2853 3084 3261 2657
Q 3669 2231 3669 1497
Q 3669 778 3244 343
Q 2819 -91 2113 -91
Q 1303 -91 875 529
Q 447 1150 447 2328
Q 447 3434 972 4092
Q 1497 4750 2381 4750
Q 2619 4750 2861 4703
Q 3103 4656 3366 4563
z
" transform="scale(0.015625)"/>
       </defs>
       <use xlink:href="#DejaVuSans-14" transform="translate(0 0.746875)"/>
       <use xlink:href="#DejaVuSans-13" transform="translate(63.623047 0.746875)"/>
       <use xlink:href="#DejaVuSans-c9c" transform="translate(128.203125 42.046875) scale(0.7)"/>
       <use xlink:href="#DejaVuSans-14" transform="translate(186.855469 42.046875) scale(0.7)"/>
       <use xlink:href="#DejaVuSans-19" transform="translate(231.391602 42.046875) scale(0.7)"/>
      </g>
     </g>
    </g>
    <g id="xtick_3">
     <g id="line2d_5">
      <path d="M 300.617586 240.515312
L 300.617586 7.2
" clip-path="url(#p0000000001)" style="fill: none; stroke: #b0b0b0; stroke-opacity: 0.22; stroke-width: 0.8; stroke-linecap: square"/>
     </g>
     <g id="line2d_6">
      <g>
       <use xlink:href="#m0000000001" x="300.617586" y="240.515312" style="stroke: #000000; stroke-width: 0.8"/>
      </g>
     </g>
     <g id="text_3">
      <!-- $\mathdefault{10^{-14}}$ -->
      <g transform="translate(286.667586 256.815312) scale(0.1 -0.1)">
       <defs>
        <path id="DejaVuSans-17" d="M 2419 4116
L 825 1625
L 2419 1625
L 2419 4116
z
M 2253 4666
L 3047 4666
L 3047 1625
L 3713 1625
L 3713 1100
L 3047 1100
L 3047 0
L 2419 0
L 2419 1100
L 313 1100
L 313 1709
L 2253 4666
z
" transform="scale(0.015625)"/>
       </defs>
       <use xlink:href="#DejaVuSans-14" transform="translate(0 0.665625)"/>
       <use xlink:href="#DejaVuSans-13" transform="translate(63.623047 0.665625)"/>
       <use xlink:href="#DejaVuSans-c9c" transform="translate(128.203125 41.965625) scale(0.7)"/>
       <use xlink:href="#DejaVuSans-14" transform="translate(186.855469 41.965625) scale(0.7)"/>
       <use xlink:href="#DejaVuSans-17" transform="translate(231.391602 41.965625) scale(0.7)"/>
      </g>
     </g>
    </g>
    <g id="xtick_4">
     <g id="line2d_7">
      <path d="M 379.365324 240.515312
L 379.365324 7.2
" clip-path="url(#p0000000001)" style="fill: none; stroke: #b0b0b0; stroke-opacity: 0.22; stroke-width: 0.8; stroke-linecap: square"/>
     </g>
     <g id="line2d_8">
      <g>
       <use xlink:href="#m0000000001" x="379.365324" y="240.515312" style="stroke: #000000; stroke-width: 0.8"/>
      </g>
     </g>
     <g id="text_4">
      <!-- $\mathdefault{10^{-12}}$ -->
      <g transform="translate(365.415324 256.915312) scale(0.1 -0.1)">
       <defs>
        <path id="DejaVuSans-15" d="M 1228 531
L 3431 531
L 3431 0
L 469 0
L 469 531
Q 828 903 1448 1529
Q 2069 2156 2228 2338
Q 2531 2678 2651 2914
Q 2772 3150 2772 3378
Q 2772 3750 2511 3984
Q 2250 4219 1831 4219
Q 1534 4219 1204 4116
Q 875 4013 500 3803
L 500 4441
Q 881 4594 1212 4672
Q 1544 4750 1819 4750
Q 2544 4750 2975 4387
Q 3406 4025 3406 3419
Q 3406 3131 3298 2873
Q 3191 2616 2906 2266
Q 2828 2175 2409 1742
Q 1991 1309 1228 531
z
" transform="scale(0.015625)"/>
       </defs>
       <use xlink:href="#DejaVuSans-14" transform="translate(0 0.746875)"/>
       <use xlink:href="#DejaVuSans-13" transform="translate(63.623047 0.746875)"/>
       <use xlink:href="#DejaVuSans-c9c" transform="translate(128.203125 42.046875) scale(0.7)"/>
       <use xlink:href="#DejaVuSans-14" transform="translate(186.855469 42.046875) scale(0.7)"/>
       <use xlink:href="#DejaVuSans-15" transform="translate(231.391602 42.046875) scale(0.7)"/>
      </g>
     </g>
    </g>
    <g id="xtick_5">
     <g id="line2d_9">
      <path d="M 458.113063 240.515312
L 458.113063 7.2
" clip-path="url(#p0000000001)" style="fill: none; stroke: #b0b0b0; stroke-opacity: 0.22; stroke-width: 0.8; stroke-linecap: square"/>
     </g>
     <g id="line2d_10">
      <g>
       <use xlink:href="#m0000000001" x="458.113063" y="240.515312" style="stroke: #000000; stroke-width: 0.8"/>
      </g>
     </g>
     <g id="text_5">
      <!-- $\mathdefault{10^{-10}}$ -->
      <g transform="translate(444.163063 256.915312) scale(0.1 -0.1)">
       <use xlink:href="#DejaVuSans-14" transform="translate(0 0.746875)"/>
       <use xlink:href="#DejaVuSans-13" transform="translate(63.623047 0.746875)"/>
       <use xlink:href="#DejaVuSans-c9c" transform="translate(128.203125 42.046875) scale(0.7)"/>
       <use xlink:href="#DejaVuSans-14" transform="translate(186.855469 42.046875) scale(0.7)"/>
       <use xlink:href="#DejaVuSans-13" transform="translate(231.391602 42.046875) scale(0.7)"/>
      </g>
     </g>
    </g>
    <g id="text_6">
     <!-- Relative L2 error against analytical derivative -->
     <g transform="translate(207.521562 270.916094) scale(0.1 -0.1)">
      <defs>
       <path id="DejaVuSans-35" d="M 2841 2188
Q 3044 2119 3236 1894
Q 3428 1669 3622 1275
L 4263 0
L 3584 0
L 2988 1197
Q 2756 1666 2539 1819
Q 2322 1972 1947 1972
L 1259 1972
L 1259 0
L 628 0
L 628 4666
L 2053 4666
Q 2853 4666 3247 4331
Q 3641 3997 3641 3322
Q 3641 2881 3436 2590
Q 3231 2300 2841 2188
z
M 1259 4147
L 1259 2491
L 2053 2491
Q 2509 2491 2742 2702
Q 2975 2913 2975 3322
Q 2975 3731 2742 3939
Q 2509 4147 2053 4147
L 1259 4147
z
" transform="scale(0.015625)"/>
       <path id="DejaVuSans-48" d="M 3597 1894
L 3597 1613
L 953 1613
Q 991 1019 1311 708
Q 1631 397 2203 397
Q 2534 397 2845 478
Q 3156 559 3463 722
L 3463 178
Q 3153 47 2828 -22
Q 2503 -91 2169 -91
Q 1331 -91 842 396
Q 353 884 353 1716
Q 353 2575 817 3079
Q 1281 3584 2069 3584
Q 2775 3584 3186 3129
Q 3597 2675 3597 1894
z
M 3022 2063
Q 3016 2534 2758 2815
Q 2500 3097 2075 3097
Q 1594 3097 1305 2825
Q 1016 2553 972 2059
L 3022 2063
z
" transform="scale(0.015625)"/>
       <path id="DejaVuSans-4f" d="M 603 4863
L 1178 4863
L 1178 0
L 603 0
L 603 4863
z
" transform="scale(0.015625)"/>
       <path id="DejaVuSans-44" d="M 2194 1759
Q 1497 1759 1228 1600
Q 959 1441 959 1056
Q 959 750 1161 570
Q 1363 391 1709 391
Q 2188 391 2477 730
Q 2766 1069 2766 1631
L 2766 1759
L 2194 1759
z
M 3341 1997
L 3341 0
L 2766 0
L 2766 531
Q 2569 213 2275 61
Q 1981 -91 1556 -91
Q 1019 -91 701 211
Q 384 513 384 1019
Q 384 1609 779 1909
Q 1175 2209 1959 2209
L 2766 2209
L 2766 2266
Q 2766 2663 2505 2880
Q 2244 3097 1772 3097
Q 1472 3097 1187 3025
Q 903 2953 641 2809
L 641 3341
Q 956 3463 1253 3523
Q 1550 3584 1831 3584
Q 2591 3584 2966 3190
Q 3341 2797 3341 1997
z
" transform="scale(0.015625)"/>
       <path id="DejaVuSans-57" d="M 1172 4494
L 1172 3500
L 2356 3500
L 2356 3053
L 1172 3053
L 1172 1153
Q 1172 725 1289 603
Q 1406 481 1766 481
L 2356 481
L 2356 0
L 1766 0
Q 1100 0 847 248
Q 594 497 594 1153
L 594 3053
L 172 3053
L 172 3500
L 594 3500
L 594 4494
L 1172 4494
z
" transform="scale(0.015625)"/>
       <path id="DejaVuSans-4c" d="M 603 3500
L 1178 3500
L 1178 0
L 603 0
L 603 3500
z
M 603 4863
L 1178 4863
L 1178 4134
L 603 4134
L 603 4863
z
" transform="scale(0.015625)"/>
       <path id="DejaVuSans-59" d="M 191 3500
L 800 3500
L 1894 563
L 2988 3500
L 3597 3500
L 2284 0
L 1503 0
L 191 3500
z
" transform="scale(0.015625)"/>
       <path id="DejaVuSans-3" transform="scale(0.015625)"/>
       <path id="DejaVuSans-2f" d="M 628 4666
L 1259 4666
L 1259 531
L 3531 531
L 3531 0
L 628 0
L 628 4666
z
" transform="scale(0.015625)"/>
       <path id="DejaVuSans-55" d="M 2631 2963
Q 2534 3019 2420 3045
Q 2306 3072 2169 3072
Q 1681 3072 1420 2755
Q 1159 2438 1159 1844
L 1159 0
L 581 0
L 581 3500
L 1159 3500
L 1159 2956
Q 1341 3275 1631 3429
Q 1922 3584 2338 3584
Q 2397 3584 2469 3576
Q 2541 3569 2628 3553
L 2631 2963
z
" transform="scale(0.015625)"/>
       <path id="DejaVuSans-52" d="M 1959 3097
Q 1497 3097 1228 2736
Q 959 2375 959 1747
Q 959 1119 1226 758
Q 1494 397 1959 397
Q 2419 397 2687 759
Q 2956 1122 2956 1747
Q 2956 2369 2687 2733
Q 2419 3097 1959 3097
z
M 1959 3584
Q 2709 3584 3137 3096
Q 3566 2609 3566 1747
Q 3566 888 3137 398
Q 2709 -91 1959 -91
Q 1206 -91 779 398
Q 353 888 353 1747
Q 353 2609 779 3096
Q 1206 3584 1959 3584
z
" transform="scale(0.015625)"/>
       <path id="DejaVuSans-4a" d="M 2906 1791
Q 2906 2416 2648 2759
Q 2391 3103 1925 3103
Q 1463 3103 1205 2759
Q 947 2416 947 1791
Q 947 1169 1205 825
Q 1463 481 1925 481
Q 2391 481 2648 825
Q 2906 1169 2906 1791
z
M 3481 434
Q 3481 -459 3084 -895
Q 2688 -1331 1869 -1331
Q 1566 -1331 1297 -1286
Q 1028 -1241 775 -1147
L 775 -588
Q 1028 -725 1275 -790
Q 1522 -856 1778 -856
Q 2344 -856 2625 -561
Q 2906 -266 2906 331
L 2906 616
Q 2728 306 2450 153
Q 2172 0 1784 0
Q 1141 0 747 490
Q 353 981 353 1791
Q 353 2603 747 3093
Q 1141 3584 1784 3584
Q 2172 3584 2450 3431
Q 2728 3278 2906 2969
L 2906 3500
L 3481 3500
L 3481 434
z
" transform="scale(0.015625)"/>
       <path id="DejaVuSans-51" d="M 3513 2113
L 3513 0
L 2938 0
L 2938 2094
Q 2938 2591 2744 2837
Q 2550 3084 2163 3084
Q 1697 3084 1428 2787
Q 1159 2491 1159 1978
L 1159 0
L 581 0
L 581 3500
L 1159 3500
L 1159 2956
Q 1366 3272 1645 3428
Q 1925 3584 2291 3584
Q 2894 3584 3203 3211
Q 3513 2838 3513 2113
z
" transform="scale(0.015625)"/>
       <path id="DejaVuSans-56" d="M 2834 3397
L 2834 2853
Q 2591 2978 2328 3040
Q 2066 3103 1784 3103
Q 1356 3103 1142 2972
Q 928 2841 928 2578
Q 928 2378 1081 2264
Q 1234 2150 1697 2047
L 1894 2003
Q 2506 1872 2764 1633
Q 3022 1394 3022 966
Q 3022 478 2636 193
Q 2250 -91 1575 -91
Q 1294 -91 989 -36
Q 684 19 347 128
L 347 722
Q 666 556 975 473
Q 1284 391 1588 391
Q 1994 391 2212 530
Q 2431 669 2431 922
Q 2431 1156 2273 1281
Q 2116 1406 1581 1522
L 1381 1569
Q 847 1681 609 1914
Q 372 2147 372 2553
Q 372 3047 722 3315
Q 1072 3584 1716 3584
Q 2034 3584 2315 3537
Q 2597 3491 2834 3397
z
" transform="scale(0.015625)"/>
       <path id="DejaVuSans-5c" d="M 2059 -325
Q 1816 -950 1584 -1140
Q 1353 -1331 966 -1331
L 506 -1331
L 506 -850
L 844 -850
Q 1081 -850 1212 -737
Q 1344 -625 1503 -206
L 1606 56
L 191 3500
L 800 3500
L 1894 763
L 2988 3500
L 3597 3500
L 2059 -325
z
" transform="scale(0.015625)"/>
       <path id="DejaVuSans-46" d="M 3122 3366
L 3122 2828
Q 2878 2963 2633 3030
Q 2388 3097 2138 3097
Q 1578 3097 1268 2742
Q 959 2388 959 1747
Q 959 1106 1268 751
Q 1578 397 2138 397
Q 2388 397 2633 464
Q 2878 531 3122 666
L 3122 134
Q 2881 22 2623 -34
Q 2366 -91 2075 -91
Q 1284 -91 818 406
Q 353 903 353 1747
Q 353 2603 823 3093
Q 1294 3584 2113 3584
Q 2378 3584 2631 3529
Q 2884 3475 3122 3366
z
" transform="scale(0.015625)"/>
       <path id="DejaVuSans-47" d="M 2906 2969
L 2906 4863
L 3481 4863
L 3481 0
L 2906 0
L 2906 525
Q 2725 213 2448 61
Q 2172 -91 1784 -91
Q 1150 -91 751 415
Q 353 922 353 1747
Q 353 2572 751 3078
Q 1150 3584 1784 3584
Q 2172 3584 2448 3432
Q 2725 3281 2906 2969
z
M 947 1747
Q 947 1113 1208 752
Q 1469 391 1925 391
Q 2381 391 2643 752
Q 2906 1113 2906 1747
Q 2906 2381 2643 2742
Q 2381 3103 1925 3103
Q 1469 3103 1208 2742
Q 947 2381 947 1747
z
" transform="scale(0.015625)"/>
      </defs>
      <use xlink:href="#DejaVuSans-35"/>
      <use xlink:href="#DejaVuSans-48" transform="translate(65 0)"/>
      <use xlink:href="#DejaVuSans-4f" transform="translate(126.53125 0)"/>
      <use xlink:href="#DejaVuSans-44" transform="translate(154.3125 0)"/>
      <use xlink:href="#DejaVuSans-57" transform="translate(215.59375 0)"/>
      <use xlink:href="#DejaVuSans-4c" transform="translate(254.796875 0)"/>
      <use xlink:href="#DejaVuSans-59" transform="translate(282.578125 0)"/>
      <use xlink:href="#DejaVuSans-48" transform="translate(341.765625 0)"/>
      <use xlink:href="#DejaVuSans-3" transform="translate(403.296875 0)"/>
      <use xlink:href="#DejaVuSans-2f" transform="translate(435.078125 0)"/>
      <use xlink:href="#DejaVuSans-15" transform="translate(490.796875 0)"/>
      <use xlink:href="#DejaVuSans-3" transform="translate(554.421875 0)"/>
      <use xlink:href="#DejaVuSans-48" transform="translate(586.203125 0)"/>
      <use xlink:href="#DejaVuSans-55" transform="translate(647.734375 0)"/>
      <use xlink:href="#DejaVuSans-55" transform="translate(687.09375 0)"/>
      <use xlink:href="#DejaVuSans-52" transform="translate(726 0)"/>
      <use xlink:href="#DejaVuSans-55" transform="translate(787.1875 0)"/>
      <use xlink:href="#DejaVuSans-3" transform="translate(828.296875 0)"/>
      <use xlink:href="#DejaVuSans-44" transform="translate(860.078125 0)"/>
      <use xlink:href="#DejaVuSans-4a" transform="translate(921.359375 0)"/>
      <use xlink:href="#DejaVuSans-44" transform="translate(984.84375 0)"/>
      <use xlink:href="#DejaVuSans-4c" transform="translate(1046.125 0)"/>
      <use xlink:href="#DejaVuSans-51" transform="translate(1073.90625 0)"/>
      <use xlink:href="#DejaVuSans-56" transform="translate(1137.28125 0)"/>
      <use xlink:href="#DejaVuSans-57" transform="translate(1189.375 0)"/>
      <use xlink:href="#DejaVuSans-3" transform="translate(1228.578125 0)"/>
      <use xlink:href="#DejaVuSans-44" transform="translate(1260.359375 0)"/>
      <use xlink:href="#DejaVuSans-51" transform="translate(1321.640625 0)"/>
      <use xlink:href="#DejaVuSans-44" transform="translate(1385.015625 0)"/>
      <use xlink:href="#DejaVuSans-4f" transform="translate(1446.296875 0)"/>
      <use xlink:href="#DejaVuSans-5c" transform="translate(1474.078125 0)"/>
      <use xlink:href="#DejaVuSans-57" transform="translate(1533.265625 0)"/>
      <use xlink:href="#DejaVuSans-4c" transform="translate(1572.46875 0)"/>
      <use xlink:href="#DejaVuSans-46" transform="translate(1600.25 0)"/>
      <use xlink:href="#DejaVuSans-44" transform="translate(1655.234375 0)"/>
      <use xlink:href="#DejaVuSans-4f" transform="translate(1716.515625 0)"/>
      <use xlink:href="#DejaVuSans-3" transform="translate(1744.296875 0)"/>
      <use xlink:href="#DejaVuSans-47" transform="translate(1776.078125 0)"/>
      <use xlink:href="#DejaVuSans-48" transform="translate(1839.5625 0)"/>
      <use xlink:href="#DejaVuSans-55" transform="translate(1901.09375 0)"/>
      <use xlink:href="#DejaVuSans-4c" transform="translate(1942.203125 0)"/>
      <use xlink:href="#DejaVuSans-59" transform="translate(1969.984375 0)"/>
      <use xlink:href="#DejaVuSans-44" transform="translate(2029.171875 0)"/>
      <use xlink:href="#DejaVuSans-57" transform="translate(2090.453125 0)"/>
      <use xlink:href="#DejaVuSans-4c" transform="translate(2129.65625 0)"/>
      <use xlink:href="#DejaVuSans-59" transform="translate(2157.4375 0)"/>
      <use xlink:href="#DejaVuSans-48" transform="translate(2216.625 0)"/>
     </g>
    </g>
   </g>
   <g id="matplotlib.axis_2">
    <g id="ytick_1">
     <g id="line2d_11">
      <defs>
       <path id="m0000000002" d="M 0 0
L -3.5 0
" style="stroke: #000000; stroke-width: 0.8"/>
      </defs>
      <g>
       <use xlink:href="#m0000000002" x="142.184375" y="229.910071" style="stroke: #000000; stroke-width: 0.8"/>
      </g>
     </g>
     <g id="text_7">
      <!-- Centered finite difference -->
      <g transform="translate(7.2 233.70929) scale(0.1 -0.1)">
       <defs>
        <path id="DejaVuSans-26" d="M 4122 4306
L 4122 3641
Q 3803 3938 3442 4084
Q 3081 4231 2675 4231
Q 1875 4231 1450 3742
Q 1025 3253 1025 2328
Q 1025 1406 1450 917
Q 1875 428 2675 428
Q 3081 428 3442 575
Q 3803 722 4122 1019
L 4122 359
Q 3791 134 3420 21
Q 3050 -91 2638 -91
Q 1578 -91 968 557
Q 359 1206 359 2328
Q 359 3453 968 4101
Q 1578 4750 2638 4750
Q 3056 4750 3426 4639
Q 3797 4528 4122 4306
z
" transform="scale(0.015625)"/>
        <path id="DejaVuSans-13af" d="M 3431 3500
L 3431 0
L 2853 0
L 2853 3053
L 1275 3053
L 1275 0
L 697 0
L 697 3053
L 147 3053
L 147 3500
L 697 3500
L 697 3744
Q 697 4316 967 4589
Q 1238 4863 1797 4863
L 2375 4863
L 2375 4384
L 1825 4384
Q 1516 4384 1395 4259
Q 1275 4134 1275 3809
L 1275 3500
L 3431 3500
z
M 2853 4856
L 3431 4856
L 3431 4128
L 2853 4128
L 2853 4856
z
" transform="scale(0.015625)"/>
        <path id="DejaVuSans-13ae" d="M 4531 4863
L 4531 4384
L 3981 4384
Q 3672 4384 3551 4259
Q 3431 4134 3431 3809
L 3431 3500
L 4378 3500
L 4378 3053
L 3431 3053
L 3431 0
L 2853 0
L 2853 3053
L 1275 3053
L 1275 0
L 697 0
L 697 3053
L 147 3053
L 147 3500
L 697 3500
L 697 3744
Q 697 4328 969 4595
Q 1241 4863 1831 4863
L 2375 4863
L 2375 4384
L 1825 4384
Q 1516 4384 1394 4259
Q 1275 4134 1275 3809
L 1275 3500
L 2853 3500
L 2853 3744
Q 2853 4328 3125 4595
Q 3397 4863 3988 4863
L 4531 4863
z
" transform="scale(0.015625)"/>
       </defs>
       <use xlink:href="#DejaVuSans-26"/>
       <use xlink:href="#DejaVuSans-48" transform="translate(69.828125 0)"/>
       <use xlink:href="#DejaVuSans-51" transform="translate(131.359375 0)"/>
       <use xlink:href="#DejaVuSans-57" transform="translate(194.734375 0)"/>
       <use xlink:href="#DejaVuSans-48" transform="translate(233.9375 0)"/>
       <use xlink:href="#DejaVuSans-55" transform="translate(295.46875 0)"/>
       <use xlink:href="#DejaVuSans-48" transform="translate(334.375 0)"/>
       <use xlink:href="#DejaVuSans-47" transform="translate(395.90625 0)"/>
       <use xlink:href="#DejaVuSans-3" transform="translate(459.390625 0)"/>
       <use xlink:href="#DejaVuSans-13af" transform="translate(491.171875 0)"/>
       <use xlink:href="#DejaVuSans-51" transform="translate(554.15625 0)"/>
       <use xlink:href="#DejaVuSans-4c" transform="translate(617.53125 0)"/>
       <use xlink:href="#DejaVuSans-57" transform="translate(645.3125 0)"/>
       <use xlink:href="#DejaVuSans-48" transform="translate(684.515625 0)"/>
       <use xlink:href="#DejaVuSans-3" transform="translate(746.046875 0)"/>
       <use xlink:href="#DejaVuSans-47" transform="translate(777.828125 0)"/>
       <use xlink:href="#DejaVuSans-4c" transform="translate(841.3125 0)"/>
       <use xlink:href="#DejaVuSans-13ae" transform="translate(869.09375 0)"/>
       <use xlink:href="#DejaVuSans-48" transform="translate(937.984375 0)"/>
       <use xlink:href="#DejaVuSans-55" transform="translate(999.515625 0)"/>
       <use xlink:href="#DejaVuSans-48" transform="translate(1038.421875 0)"/>
       <use xlink:href="#DejaVuSans-51" transform="translate(1099.953125 0)"/>
       <use xlink:href="#DejaVuSans-46" transform="translate(1163.328125 0)"/>
       <use xlink:href="#DejaVuSans-48" transform="translate(1218.3125 0)"/>
      </g>
     </g>
    </g>
    <g id="ytick_2">
     <g id="line2d_12">
      <g>
       <use xlink:href="#m0000000002" x="142.184375" y="187.489105" style="stroke: #000000; stroke-width: 0.8"/>
      </g>
     </g>
     <g id="text_8">
      <!-- PyTorch native (compile) -->
      <g transform="translate(12.170312 191.288324) scale(0.1 -0.1)">
       <defs>
        <path id="DejaVuSans-33" d="M 1259 4147
L 1259 2394
L 2053 2394
Q 2494 2394 2734 2622
Q 2975 2850 2975 3272
Q 2975 3691 2734 3919
Q 2494 4147 2053 4147
L 1259 4147
z
M 628 4666
L 2053 4666
Q 2838 4666 3239 4311
Q 3641 3956 3641 3272
Q 3641 2581 3239 2228
Q 2838 1875 2053 1875
L 1259 1875
L 1259 0
L 628 0
L 628 4666
z
" transform="scale(0.015625)"/>
        <path id="DejaVuSans-37" d="M -19 4666
L 3928 4666
L 3928 4134
L 2272 4134
L 2272 0
L 1638 0
L 1638 4134
L -19 4134
L -19 4666
z
" transform="scale(0.015625)"/>
        <path id="DejaVuSans-4b" d="M 3513 2113
L 3513 0
L 2938 0
L 2938 2094
Q 2938 2591 2744 2837
Q 2550 3084 2163 3084
Q 1697 3084 1428 2787
Q 1159 2491 1159 1978
L 1159 0
L 581 0
L 581 4863
L 1159 4863
L 1159 2956
Q 1366 3272 1645 3428
Q 1925 3584 2291 3584
Q 2894 3584 3203 3211
Q 3513 2838 3513 2113
z
" transform="scale(0.015625)"/>
        <path id="DejaVuSans-b" d="M 1984 4856
Q 1566 4138 1362 3434
Q 1159 2731 1159 2009
Q 1159 1288 1364 580
Q 1569 -128 1984 -844
L 1484 -844
Q 1016 -109 783 600
Q 550 1309 550 2009
Q 550 2706 781 3412
Q 1013 4119 1484 4856
L 1984 4856
z
" transform="scale(0.015625)"/>
        <path id="DejaVuSans-50" d="M 3328 2828
Q 3544 3216 3844 3400
Q 4144 3584 4550 3584
Q 5097 3584 5394 3201
Q 5691 2819 5691 2113
L 5691 0
L 5113 0
L 5113 2094
Q 5113 2597 4934 2840
Q 4756 3084 4391 3084
Q 3944 3084 3684 2787
Q 3425 2491 3425 1978
L 3425 0
L 2847 0
L 2847 2094
Q 2847 2600 2669 2842
Q 2491 3084 2119 3084
Q 1678 3084 1418 2786
Q 1159 2488 1159 1978
L 1159 0
L 581 0
L 581 3500
L 1159 3500
L 1159 2956
Q 1356 3278 1631 3431
Q 1906 3584 2284 3584
Q 2666 3584 2933 3390
Q 3200 3197 3328 2828
z
" transform="scale(0.015625)"/>
        <path id="DejaVuSans-53" d="M 1159 525
L 1159 -1331
L 581 -1331
L 581 3500
L 1159 3500
L 1159 2969
Q 1341 3281 1617 3432
Q 1894 3584 2278 3584
Q 2916 3584 3314 3078
Q 3713 2572 3713 1747
Q 3713 922 3314 415
Q 2916 -91 2278 -91
Q 1894 -91 1617 61
Q 1341 213 1159 525
z
M 3116 1747
Q 3116 2381 2855 2742
Q 2594 3103 2138 3103
Q 1681 3103 1420 2742
Q 1159 2381 1159 1747
Q 1159 1113 1420 752
Q 1681 391 2138 391
Q 2594 391 2855 752
Q 3116 1113 3116 1747
z
" transform="scale(0.015625)"/>
        <path id="DejaVuSans-c" d="M 513 4856
L 1013 4856
Q 1481 4119 1714 3412
Q 1947 2706 1947 2009
Q 1947 1309 1714 600
Q 1481 -109 1013 -844
L 513 -844
Q 928 -128 1133 580
Q 1338 1288 1338 2009
Q 1338 2731 1133 3434
Q 928 4138 513 4856
z
" transform="scale(0.015625)"/>
       </defs>
       <use xlink:href="#DejaVuSans-33"/>
       <use xlink:href="#DejaVuSans-5c" transform="translate(60.296875 0)"/>
       <use xlink:href="#DejaVuSans-37" transform="translate(119.484375 0)"/>
       <use xlink:href="#DejaVuSans-52" transform="translate(163.578125 0)"/>
       <use xlink:href="#DejaVuSans-55" transform="translate(224.765625 0)"/>
       <use xlink:href="#DejaVuSans-46" transform="translate(263.671875 0)"/>
       <use xlink:href="#DejaVuSans-4b" transform="translate(318.65625 0)"/>
       <use xlink:href="#DejaVuSans-3" transform="translate(382.03125 0)"/>
       <use xlink:href="#DejaVuSans-51" transform="translate(413.8125 0)"/>
       <use xlink:href="#DejaVuSans-44" transform="translate(477.1875 0)"/>
       <use xlink:href="#DejaVuSans-57" transform="translate(538.46875 0)"/>
       <use xlink:href="#DejaVuSans-4c" transform="translate(577.671875 0)"/>
       <use xlink:href="#DejaVuSans-59" transform="translate(605.453125 0)"/>
       <use xlink:href="#DejaVuSans-48" transform="translate(664.640625 0)"/>
       <use xlink:href="#DejaVuSans-3" transform="translate(726.171875 0)"/>
       <use xlink:href="#DejaVuSans-b" transform="translate(757.953125 0)"/>
       <use xlink:href="#DejaVuSans-46" transform="translate(796.96875 0)"/>
       <use xlink:href="#DejaVuSans-52" transform="translate(851.953125 0)"/>
       <use xlink:href="#DejaVuSans-50" transform="translate(913.140625 0)"/>
       <use xlink:href="#DejaVuSans-53" transform="translate(1010.546875 0)"/>
       <use xlink:href="#DejaVuSans-4c" transform="translate(1074.03125 0)"/>
       <use xlink:href="#DejaVuSans-4f" transform="translate(1101.8125 0)"/>
       <use xlink:href="#DejaVuSans-48" transform="translate(1129.59375 0)"/>
       <use xlink:href="#DejaVuSans-c" transform="translate(1191.125 0)"/>
      </g>
     </g>
    </g>
    <g id="ytick_3">
     <g id="line2d_13">
      <g>
       <use xlink:href="#m0000000002" x="142.184375" y="145.068139" style="stroke: #000000; stroke-width: 0.8"/>
      </g>
     </g>
     <g id="text_9">
      <!-- JAX native (jit) -->
      <g transform="translate(63.846875 148.867358) scale(0.1 -0.1)">
       <defs>
        <path id="DejaVuSans-2d" d="M 628 4666
L 1259 4666
L 1259 325
Q 1259 -519 939 -900
Q 619 -1281 -91 -1281
L -331 -1281
L -331 -750
L -134 -750
Q 284 -750 456 -515
Q 628 -281 628 325
L 628 4666
z
" transform="scale(0.015625)"/>
        <path id="DejaVuSans-24" d="M 2188 4044
L 1331 1722
L 3047 1722
L 2188 4044
z
M 1831 4666
L 2547 4666
L 4325 0
L 3669 0
L 3244 1197
L 1141 1197
L 716 0
L 50 0
L 1831 4666
z
" transform="scale(0.015625)"/>
        <path id="DejaVuSans-3b" d="M 403 4666
L 1081 4666
L 2241 2931
L 3406 4666
L 4084 4666
L 2584 2425
L 4184 0
L 3506 0
L 2194 1984
L 872 0
L 191 0
L 1856 2491
L 403 4666
z
" transform="scale(0.015625)"/>
        <path id="DejaVuSans-4d" d="M 603 3500
L 1178 3500
L 1178 -63
Q 1178 -731 923 -1031
Q 669 -1331 103 -1331
L -116 -1331
L -116 -844
L 38 -844
Q 366 -844 484 -692
Q 603 -541 603 -63
L 603 3500
z
M 603 4863
L 1178 4863
L 1178 4134
L 603 4134
L 603 4863
z
" transform="scale(0.015625)"/>
       </defs>
       <use xlink:href="#DejaVuSans-2d"/>
       <use xlink:href="#DejaVuSans-24" transform="translate(27.75 0)"/>
       <use xlink:href="#DejaVuSans-3b" transform="translate(96.15625 0)"/>
       <use xlink:href="#DejaVuSans-3" transform="translate(164.65625 0)"/>
       <use xlink:href="#DejaVuSans-51" transform="translate(196.4375 0)"/>
       <use xlink:href="#DejaVuSans-44" transform="translate(259.8125 0)"/>
       <use xlink:href="#DejaVuSans-57" transform="translate(321.09375 0)"/>
       <use xlink:href="#DejaVuSans-4c" transform="translate(360.296875 0)"/>
       <use xlink:href="#DejaVuSans-59" transform="translate(388.078125 0)"/>
       <use xlink:href="#DejaVuSans-48" transform="translate(447.265625 0)"/>
       <use xlink:href="#DejaVuSans-3" transform="translate(508.796875 0)"/>
       <use xlink:href="#DejaVuSans-b" transform="translate(540.578125 0)"/>
       <use xlink:href="#DejaVuSans-4d" transform="translate(579.59375 0)"/>
       <use xlink:href="#DejaVuSans-4c" transform="translate(607.375 0)"/>
       <use xlink:href="#DejaVuSans-57" transform="translate(635.15625 0)"/>
       <use xlink:href="#DejaVuSans-c" transform="translate(674.359375 0)"/>
      </g>
     </g>
    </g>
    <g id="ytick_4">
     <g id="line2d_14">
      <g>
       <use xlink:href="#m0000000002" x="142.184375" y="102.647173" style="stroke: #000000; stroke-width: 0.8"/>
      </g>
     </g>
     <g id="text_10">
      <!-- Autograd (eager) -->
      <g transform="translate(49.15625 106.446392) scale(0.1 -0.1)">
       <defs>
        <path id="DejaVuSans-58" d="M 544 1381
L 544 3500
L 1119 3500
L 1119 1403
Q 1119 906 1312 657
Q 1506 409 1894 409
Q 2359 409 2629 706
Q 2900 1003 2900 1516
L 2900 3500
L 3475 3500
L 3475 0
L 2900 0
L 2900 538
Q 2691 219 2414 64
Q 2138 -91 1772 -91
Q 1169 -91 856 284
Q 544 659 544 1381
z
M 1991 3584
L 1991 3584
z
" transform="scale(0.015625)"/>
       </defs>
       <use xlink:href="#DejaVuSans-24"/>
       <use xlink:href="#DejaVuSans-58" transform="translate(68.40625 0)"/>
       <use xlink:href="#DejaVuSans-57" transform="translate(131.78125 0)"/>
       <use xlink:href="#DejaVuSans-52" transform="translate(170.984375 0)"/>
       <use xlink:href="#DejaVuSans-4a" transform="translate(232.171875 0)"/>
       <use xlink:href="#DejaVuSans-55" transform="translate(295.65625 0)"/>
       <use xlink:href="#DejaVuSans-44" transform="translate(336.765625 0)"/>
       <use xlink:href="#DejaVuSans-47" transform="translate(398.046875 0)"/>
       <use xlink:href="#DejaVuSans-3" transform="translate(461.53125 0)"/>
       <use xlink:href="#DejaVuSans-b" transform="translate(493.3125 0)"/>
       <use xlink:href="#DejaVuSans-48" transform="translate(532.328125 0)"/>
       <use xlink:href="#DejaVuSans-44" transform="translate(593.859375 0)"/>
       <use xlink:href="#DejaVuSans-4a" transform="translate(655.140625 0)"/>
       <use xlink:href="#DejaVuSans-48" transform="translate(718.625 0)"/>
       <use xlink:href="#DejaVuSans-55" transform="translate(780.15625 0)"/>
       <use xlink:href="#DejaVuSans-c" transform="translate(821.265625 0)"/>
      </g>
     </g>
    </g>
    <g id="ytick_5">
     <g id="line2d_15">
      <g>
       <use xlink:href="#m0000000002" x="142.184375" y="60.226207" style="stroke: #000000; stroke-width: 0.8"/>
      </g>
     </g>
     <g id="text_11">
      <!-- LFortran + Enzyme -->
      <g transform="translate(39.0375 64.025036) scale(0.1 -0.1)">
       <defs>
        <path id="DejaVuSans-29" d="M 628 4666
L 3309 4666
L 3309 4134
L 1259 4134
L 1259 2759
L 3109 2759
L 3109 2228
L 1259 2228
L 1259 0
L 628 0
L 628 4666
z
" transform="scale(0.015625)"/>
        <path id="DejaVuSans-e" d="M 2944 4013
L 2944 2272
L 4684 2272
L 4684 1741
L 2944 1741
L 2944 0
L 2419 0
L 2419 1741
L 678 1741
L 678 2272
L 2419 2272
L 2419 4013
L 2944 4013
z
" transform="scale(0.015625)"/>
        <path id="DejaVuSans-28" d="M 628 4666
L 3578 4666
L 3578 4134
L 1259 4134
L 1259 2753
L 3481 2753
L 3481 2222
L 1259 2222
L 1259 531
L 3634 531
L 3634 0
L 628 0
L 628 4666
z
" transform="scale(0.015625)"/>
        <path id="DejaVuSans-5d" d="M 353 3500
L 3084 3500
L 3084 2975
L 922 459
L 3084 459
L 3084 0
L 275 0
L 275 525
L 2438 3041
L 353 3041
L 353 3500
z
" transform="scale(0.015625)"/>
       </defs>
       <use xlink:href="#DejaVuSans-2f"/>
       <use xlink:href="#DejaVuSans-29" transform="translate(55.71875 0)"/>
       <use xlink:href="#DejaVuSans-52" transform="translate(109.671875 0)"/>
       <use xlink:href="#DejaVuSans-55" transform="translate(170.859375 0)"/>
       <use xlink:href="#DejaVuSans-57" transform="translate(211.96875 0)"/>
       <use xlink:href="#DejaVuSans-55" transform="translate(251.171875 0)"/>
       <use xlink:href="#DejaVuSans-44" transform="translate(292.28125 0)"/>
       <use xlink:href="#DejaVuSans-51" transform="translate(353.5625 0)"/>
       <use xlink:href="#DejaVuSans-3" transform="translate(416.9375 0)"/>
       <use xlink:href="#DejaVuSans-e" transform="translate(448.71875 0)"/>
       <use xlink:href="#DejaVuSans-3" transform="translate(532.515625 0)"/>
       <use xlink:href="#DejaVuSans-28" transform="translate(564.296875 0)"/>
       <use xlink:href="#DejaVuSans-51" transform="translate(627.484375 0)"/>
       <use xlink:href="#DejaVuSans-5d" transform="translate(690.859375 0)"/>
       <use xlink:href="#DejaVuSans-5c" transform="translate(743.34375 0)"/>
       <use xlink:href="#DejaVuSans-50" transform="translate(802.53125 0)"/>
       <use xlink:href="#DejaVuSans-48" transform="translate(899.9375 0)"/>
      </g>
     </g>
    </g>
    <g id="ytick_6">
     <g id="line2d_16">
      <g>
       <use xlink:href="#m0000000002" x="142.184375" y="17.805241" style="stroke: #000000; stroke-width: 0.8"/>
      </g>
     </g>
     <g id="text_12">
      <!-- Flang + Enzyme -->
      <g transform="translate(53.3875 21.60446) scale(0.1 -0.1)">
       <use xlink:href="#DejaVuSans-29"/>
       <use xlink:href="#DejaVuSans-4f" transform="translate(57.515625 0)"/>
       <use xlink:href="#DejaVuSans-44" transform="translate(85.296875 0)"/>
       <use xlink:href="#DejaVuSans-51" transform="translate(146.578125 0)"/>
       <use xlink:href="#DejaVuSans-4a" transform="translate(209.953125 0)"/>
       <use xlink:href="#DejaVuSans-3" transform="translate(273.4375 0)"/>
       <use xlink:href="#DejaVuSans-e" transform="translate(305.21875 0)"/>
       <use xlink:href="#DejaVuSans-3" transform="translate(389.015625 0)"/>
       <use xlink:href="#DejaVuSans-28" transform="translate(420.796875 0)"/>
       <use xlink:href="#DejaVuSans-51" transform="translate(483.984375 0)"/>
       <use xlink:href="#DejaVuSans-5d" transform="translate(547.359375 0)"/>
       <use xlink:href="#DejaVuSans-5c" transform="translate(599.84375 0)"/>
       <use xlink:href="#DejaVuSans-50" transform="translate(659.03125 0)"/>
       <use xlink:href="#DejaVuSans-48" transform="translate(756.4375 0)"/>
      </g>
     </g>
    </g>
   </g>
   <g id="patch_3">
    <path d="M 142.184375 240.515312
L 142.184375 7.2
" style="fill: none; stroke: #000000; stroke-width: 0.8; stroke-linejoin: miter; stroke-linecap: square"/>
   </g>
   <g id="patch_4">
    <path d="M 142.184375 240.515312
L 500.674375 240.515312
" style="fill: none; stroke: #000000; stroke-width: 0.8; stroke-linejoin: miter; stroke-linecap: square"/>
   </g>
   <g id="PathCollection_1">
    <defs>
     <path id="m0000000003" d="M 0 3.24037
C 0.859356 3.24037 1.683631 2.898944 2.291288 2.291288
C 2.898944 1.683631 3.24037 0.859356 3.24037 0
C 3.24037 -0.859356 2.898944 -1.683631 2.291288 -2.291288
C 1.683631 -2.898944 0.859356 -3.24037 0 -3.24037
C -0.859356 -3.24037 -1.683631 -2.898944 -2.291288 -2.291288
C -2.898944 -1.683631 -3.24037 -0.859356 -3.24037 0
C -3.24037 0.859356 -2.898944 1.683631 -2.291288 2.291288
C -1.683631 2.898944 -0.859356 3.24037 0 3.24037
z
" style="stroke: #0072b2"/>
    </defs>
    <g clip-path="url(#p0000000001)">
     <use xlink:href="#m0000000003" x="217.029416" y="17.805241" style="fill: #0072b2; stroke: #0072b2"/>
     <use xlink:href="#m0000000003" x="215.36861" y="60.226207" style="fill: #0072b2; stroke: #0072b2"/>
     <use xlink:href="#m0000000003" x="158.479375" y="102.647173" style="fill: #0072b2; stroke: #0072b2"/>
     <use xlink:href="#m0000000003" x="158.479375" y="145.068139" style="fill: #0072b2; stroke: #0072b2"/>
     <use xlink:href="#m0000000003" x="158.479375" y="187.489105" style="fill: #0072b2; stroke: #0072b2"/>
     <use xlink:href="#m0000000003" x="484.379375" y="229.910071" style="fill: #0072b2; stroke: #0072b2"/>
    </g>
   </g>
   <g id="PathCollection_2">
    <defs>
     <path id="m0000000004" d="M -3.24037 3.24037
L 3.24037 3.24037
L 3.24037 -3.24037
L -3.24037 -3.24037
z
" style="stroke: #d55e00"/>
    </defs>
    <g clip-path="url(#p0000000001)">
     <use xlink:href="#m0000000004" x="220.728231" y="17.805241" style="fill: #d55e00; stroke: #d55e00"/>
     <use xlink:href="#m0000000004" x="215.507688" y="60.226207" style="fill: #d55e00; stroke: #d55e00"/>
     <use xlink:href="#m0000000004" x="230.19042" y="102.647173" style="fill: #d55e00; stroke: #d55e00"/>
     <use xlink:href="#m0000000004" x="230.193533" y="145.068139" style="fill: #d55e00; stroke: #d55e00"/>
     <use xlink:href="#m0000000004" x="230.191765" y="187.489105" style="fill: #d55e00; stroke: #d55e00"/>
    </g>
   </g>
   <g id="legend_1">
    <g id="PathCollection_3">
     <g>
      <use xlink:href="#m0000000003" x="457.854062" y="211.487187" style="fill: #0072b2; stroke: #0072b2"/>
     </g>
    </g>
    <g id="text_13">
     <!-- JVP -->
     <g transform="translate(475.854062 214.112187) scale(0.1 -0.1)">
      <defs>
       <path id="DejaVuSans-39" d="M 1831 0
L 50 4666
L 709 4666
L 2188 738
L 3669 4666
L 4325 4666
L 2547 0
L 1831 0
z
" transform="scale(0.015625)"/>
      </defs>
      <use xlink:href="#DejaVuSans-2d"/>
      <use xlink:href="#DejaVuSans-39" transform="translate(29.5 0)"/>
      <use xlink:href="#DejaVuSans-33" transform="translate(97.90625 0)"/>
     </g>
    </g>
    <g id="PathCollection_4">
     <g>
      <use xlink:href="#m0000000004" x="457.854062" y="226.487969" style="fill: #d55e00; stroke: #d55e00"/>
     </g>
    </g>
    <g id="text_14">
     <!-- VJP -->
     <g transform="translate(475.854062 229.112969) scale(0.1 -0.1)">
      <use xlink:href="#DejaVuSans-39"/>
      <use xlink:href="#DejaVuSans-2d" transform="translate(68.40625 0)"/>
      <use xlink:href="#DejaVuSans-33" transform="translate(97.90625 0)"/>
     </g>
    </g>
   </g>
  </g>
 </g>
 <defs>
  <clipPath id="p0000000001">
   <rect x="142.184375" y="7.2" width="358.49" height="233.315312"/>
  </clipPath>
 </defs>
</svg>
