<?xml version="1.0" encoding="utf-8" standalone="no"?>
<!DOCTYPE svg PUBLIC "-//W3C//DTD SVG 1.1//EN"
  "http://www.w3.org/Graphics/SVG/1.1/DTD/svg11.dtd">
<svg xmlns:xlink="http://www.w3.org/1999/xlink" width="510.618437pt" height="314.179605pt" viewBox="0 0 510.618437 314.179605" xmlns="http://www.w3.org/2000/svg" version="1.1">
 <metadata>
  <rdf:RDF xmlns:dc="http://purl.org/dc/elements/1.1/" xmlns:cc="http://creativecommons.org/ns#" xmlns:rdf="http://www.w3.org/1999/02/22-rdf-syntax-ns#">
   <cc:Work>
    <dc:type rdf:resource="http://purl.org/dc/dcmitype/StillImage"/>
    <dc:format>image/svg+xml</dc:format>
    <dc:creator>
     <cc:Agent>
      <dc:title>Matplotlib v3.11.0, https://matplotlib.org/</dc:title>
     </cc:Agent>
    </dc:creator>
   </cc:Work>
  </rdf:RDF>
 </metadata>
 <defs>
  <style type="text/css">*{stroke-linejoin: round; stroke-linecap: butt}</style>
 </defs>
 <g id="figure_1">
  <g id="patch_1">
   <path d="M 0 314.179605
L 510.618437 314.179605
L 510.618437 0
L 0 0
z
" style="fill: #ffffff"/>
  </g>
  <g id="axes_1">
   <g id="patch_2">
    <path d="M 51.700781 275.978043
L 503.418437 275.978043
L 503.418437 63.72503
L 51.700781 63.72503
z
" style="fill: #ffffff"/>
   </g>
   <g id="FillBetweenPolyCollection_1">
    <defs>
     <path id="m9a4a774363" d="M 72.233402 -77.525587
L 72.233402 -48.785114
L 140.675471 -87.64596
L 209.11754 -82.336233
L 277.559609 -57.755939
L 346.001679 -70.972105
L 414.443748 -131.10632
L 482.885817 -182.549049
L 482.885817 -187.464282
L 482.885817 -187.464282
L 414.443748 -134.502816
L 346.001679 -97.724303
L 277.559609 -91.065547
L 209.11754 -85.966037
L 140.675471 -88.938385
L 72.233402 -77.525587
z
"/>
    </defs>
    <g clip-path="url(#pdbccc6e4dc)">
     <use xlink:href="#m9a4a774363" x="0" y="314.179605" style="fill: #0072b2; fill-opacity: 0.16"/>
    </g>
   </g>
   <g id="FillBetweenPolyCollection_2">
    <defs>
     <path id="m3546aafbdc" d="M 72.233402 -82.710421
L 72.233402 -47.849427
L 140.675471 -52.498314
L 209.11754 -80.098868
L 277.559609 -61.086379
L 346.001679 -67.607028
L 414.443748 -100.604988
L 482.885817 -182.104473
L 482.885817 -184.129666
L 482.885817 -184.129666
L 414.443748 -126.353822
L 346.001679 -73.763899
L 277.559609 -67.864979
L 209.11754 -80.662668
L 140.675471 -82.564496
L 72.233402 -82.710421
z
"/>
    </defs>
    <g clip-path="url(#pdbccc6e4dc)">
     <use xlink:href="#m3546aafbdc" x="0" y="314.179605" style="fill: #d55e00; fill-opacity: 0.16"/>
    </g>
   </g>
   <g id="FillBetweenPolyCollection_3">
    <defs>
     <path id="m2f0e99859e" d="M 72.233402 -80.032611
L 72.233402 -63.028612
L 140.675471 -79.984313
L 209.11754 -80.320651
L 277.559609 -88.917978
L 346.001679 -104.051277
L 414.443748 -112.144561
L 482.885817 -207.597038
L 482.885817 -208.201342
L 482.885817 -208.201342
L 414.443748 -115.151072
L 346.001679 -110.827472
L 277.559609 -93.911947
L 209.11754 -82.111446
L 140.675471 -81.091687
L 72.233402 -80.032611
z
"/>
    </defs>
    <g clip-path="url(#pdbccc6e4dc)">
     <use xlink:href="#m2f0e99859e" x="0" y="314.179605" style="fill: #e69f00; fill-opacity: 0.16"/>
    </g>
   </g>
   <g id="FillBetweenPolyCollection_4">
    <defs>
     <path id="m5f0574f2be" d="M 72.233402 -76.976839
L 72.233402 -75.566319
L 140.675471 -77.717876
L 209.11754 -66.194137
L 277.559609 -61.281588
L 346.001679 -98.394302
L 414.443748 -99.077998
L 482.885817 -160.743179
L 482.885817 -168.300381
L 482.885817 -168.300381
L 414.443748 -106.269492
L 346.001679 -108.640267
L 277.559609 -68.863526
L 209.11754 -83.8709
L 140.675471 -82.804014
L 72.233402 -76.976839
z
"/>
    </defs>
    <g clip-path="url(#pdbccc6e4dc)">
     <use xlink:href="#m5f0574f2be" x="0" y="314.179605" style="fill: #009e73; fill-opacity: 0.16"/>
    </g>
   </g>
   <g id="FillBetweenPolyCollection_5">
    <defs>
     <path id="m7bd4325641" d="M 72.233402 -191.82629
L 72.233402 -180.469857
L 140.675471 -198.45737
L 209.11754 -183.317842
L 277.559609 -185.694457
L 346.001679 -191.078124
L 414.443748 -198.569394
L 482.885817 -212.290778
L 482.885817 -219.984872
L 482.885817 -219.984872
L 414.443748 -200.693471
L 346.001679 -191.988853
L 277.559609 -189.333176
L 209.11754 -197.789833
L 140.675471 -199.181436
L 72.233402 -191.82629
z
"/>
    </defs>
    <g clip-path="url(#pdbccc6e4dc)">
     <use xlink:href="#m7bd4325641" x="0" y="314.179605" style="fill: #cc79a7; fill-opacity: 0.16"/>
    </g>
   </g>
   <g id="FillBetweenPolyCollection_6">
    <defs>
     <path id="m8000a02e4d" d="M 72.233402 -167.82959
L 72.233402 -159.386537
L 140.675471 -165.013504
L 209.11754 -132.924876
L 277.559609 -137.933003
L 346.001679 -178.437581
L 414.443748 -197.873021
L 482.885817 -239.657737
L 482.885817 -240.806711
L 482.885817 -240.806711
L 414.443748 -198.941529
L 346.001679 -180.083493
L 277.559609 -168.705557
L 209.11754 -137.020596
L 140.675471 -165.702654
L 72.233402 -167.82959
z
"/>
    </defs>
    <g clip-path="url(#pdbccc6e4dc)">
     <use xlink:href="#m8000a02e4d" x="0" y="314.179605" style="fill: #56b4e9; fill-opacity: 0.16"/>
    </g>
   </g>
   <g id="FillBetweenPolyCollection_7">
    <defs>
     <path id="m4f76842f24" d="M 72.233402 -72.876181
L 72.233402 -71.588098
L 140.675471 -79.555474
L 209.11754 -76.489167
L 277.559609 -64.830538
L 346.001679 -87.873608
L 414.443748 -143.498348
L 482.885817 -233.880304
L 482.885817 -236.417343
L 482.885817 -236.417343
L 414.443748 -149.647505
L 346.001679 -106.521405
L 277.559609 -94.966922
L 209.11754 -80.303652
L 140.675471 -81.173395
L 72.233402 -72.876181
z
"/>
    </defs>
    <g clip-path="url(#pdbccc6e4dc)">
     <use xlink:href="#m4f76842f24" x="0" y="314.179605" style="fill: #333333; fill-opacity: 0.16"/>
    </g>
   </g>
   <g id="matplotlib.axis_1">
    <g id="xtick_1">
     <g id="line2d_1">
      <path d="M 72.233402 275.978043
L 72.233402 63.72503
" clip-path="url(#pdbccc6e4dc)" style="fill: none; stroke: #b0b0b0; stroke-opacity: 0.22; stroke-width: 0.8; stroke-linecap: square"/>
     </g>
     <g id="line2d_2">
      <defs>
       <path id="m05ba437d56" d="M 0 0
L 0 3.5
" style="stroke: #000000; stroke-width: 0.8"/>
      </defs>
      <g>
       <use xlink:href="#m05ba437d56" x="72.233402" y="275.978043" style="stroke: #000000; stroke-width: 0.8"/>
      </g>
     </g>
     <g id="text_1">
      <!-- 16 -->
      <g transform="translate(65.870902 290.575699) scale(0.1 -0.1)">
       <defs>
        <path id="DejaVuSans-14" d="M 794 531
L 1825 531
L 1825 4091
L 703 3866
L 703 4441
L 1819 4666
L 2450 4666
L 2450 531
L 3481 531
L 3481 0
L 794 0
L 794 531
z
" transform="scale(0.015625)"/>
        <path id="DejaVuSans-19" d="M 2113 2584
Q 1688 2584 1439 2293
Q 1191 2003 1191 1497
Q 1191 994 1439 701
Q 1688 409 2113 409
Q 2538 409 2786 701
Q 3034 994 3034 1497
Q 3034 2003 2786 2293
Q 2538 2584 2113 2584
z
M 3366 4563
L 3366 3988
Q 3128 4100 2886 4159
Q 2644 4219 2406 4219
Q 1781 4219 1451 3797
Q 1122 3375 1075 2522
Q 1259 2794 1537 2939
Q 1816 3084 2150 3084
Q 2853 3084 3261 2657
Q 3669 2231 3669 1497
Q 3669 778 3244 343
Q 2819 -91 2113 -91
Q 1303 -91 875 529
Q 447 1150 447 2328
Q 447 3434 972 4092
Q 1497 4750 2381 4750
Q 2619 4750 2861 4703
Q 3103 4656 3366 4563
z
" transform="scale(0.015625)"/>
       </defs>
       <use xlink:href="#DejaVuSans-14"/>
       <use xlink:href="#DejaVuSans-19" transform="translate(63.625 0)"/>
      </g>
     </g>
    </g>
    <g id="xtick_2">
     <g id="line2d_3">
      <path d="M 140.675471 275.978043
L 140.675471 63.72503
" clip-path="url(#pdbccc6e4dc)" style="fill: none; stroke: #b0b0b0; stroke-opacity: 0.22; stroke-width: 0.8; stroke-linecap: square"/>
     </g>
     <g id="line2d_4">
      <g>
       <use xlink:href="#m05ba437d56" x="140.675471" y="275.978043" style="stroke: #000000; stroke-width: 0.8"/>
      </g>
     </g>
     <g id="text_2">
      <!-- 64 -->
      <g transform="translate(134.312971 290.575699) scale(0.1 -0.1)">
       <defs>
        <path id="DejaVuSans-17" d="M 2419 4116
L 825 1625
L 2419 1625
L 2419 4116
z
M 2253 4666
L 3047 4666
L 3047 1625
L 3713 1625
L 3713 1100
L 3047 1100
L 3047 0
L 2419 0
L 2419 1100
L 313 1100
L 313 1709
L 2253 4666
z
" transform="scale(0.015625)"/>
       </defs>
       <use xlink:href="#DejaVuSans-19"/>
       <use xlink:href="#DejaVuSans-17" transform="translate(63.625 0)"/>
      </g>
     </g>
    </g>
    <g id="xtick_3">
     <g id="line2d_5">
      <path d="M 209.11754 275.978043
L 209.11754 63.72503
" clip-path="url(#pdbccc6e4dc)" style="fill: none; stroke: #b0b0b0; stroke-opacity: 0.22; stroke-width: 0.8; stroke-linecap: square"/>
     </g>
     <g id="line2d_6">
      <g>
       <use xlink:href="#m05ba437d56" x="209.11754" y="275.978043" style="stroke: #000000; stroke-width: 0.8"/>
      </g>
     </g>
     <g id="text_3">
      <!-- 256 -->
      <g transform="translate(199.57379 290.575699) scale(0.1 -0.1)">
       <defs>
        <path id="DejaVuSans-15" d="M 1228 531
L 3431 531
L 3431 0
L 469 0
L 469 531
Q 828 903 1448 1529
Q 2069 2156 2228 2338
Q 2531 2678 2651 2914
Q 2772 3150 2772 3378
Q 2772 3750 2511 3984
Q 2250 4219 1831 4219
Q 1534 4219 1204 4116
Q 875 4013 500 3803
L 500 4441
Q 881 4594 1212 4672
Q 1544 4750 1819 4750
Q 2544 4750 2975 4387
Q 3406 4025 3406 3419
Q 3406 3131 3298 2873
Q 3191 2616 2906 2266
Q 2828 2175 2409 1742
Q 1991 1309 1228 531
z
" transform="scale(0.015625)"/>
        <path id="DejaVuSans-18" d="M 691 4666
L 3169 4666
L 3169 4134
L 1269 4134
L 1269 2991
Q 1406 3038 1543 3061
Q 1681 3084 1819 3084
Q 2600 3084 3056 2656
Q 3513 2228 3513 1497
Q 3513 744 3044 326
Q 2575 -91 1722 -91
Q 1428 -91 1123 -41
Q 819 9 494 109
L 494 744
Q 775 591 1075 516
Q 1375 441 1709 441
Q 2250 441 2565 725
Q 2881 1009 2881 1497
Q 2881 1984 2565 2268
Q 2250 2553 1709 2553
Q 1456 2553 1204 2497
Q 953 2441 691 2322
L 691 4666
z
" transform="scale(0.015625)"/>
       </defs>
       <use xlink:href="#DejaVuSans-15"/>
       <use xlink:href="#DejaVuSans-18" transform="translate(63.625 0)"/>
       <use xlink:href="#DejaVuSans-19" transform="translate(127.25 0)"/>
      </g>
     </g>
    </g>
    <g id="xtick_4">
     <g id="line2d_7">
      <path d="M 277.559609 275.978043
L 277.559609 63.72503
" clip-path="url(#pdbccc6e4dc)" style="fill: none; stroke: #b0b0b0; stroke-opacity: 0.22; stroke-width: 0.8; stroke-linecap: square"/>
     </g>
     <g id="line2d_8">
      <g>
       <use xlink:href="#m05ba437d56" x="277.559609" y="275.978043" style="stroke: #000000; stroke-width: 0.8"/>
      </g>
     </g>
     <g id="text_4">
      <!-- 1k -->
      <g transform="translate(271.483047 290.57648) scale(0.1 -0.1)">
       <defs>
        <path id="DejaVuSans-4e" d="M 581 4863
L 1159 4863
L 1159 1991
L 2875 3500
L 3609 3500
L 1753 1863
L 3688 0
L 2938 0
L 1159 1709
L 1159 0
L 581 0
L 581 4863
z
" transform="scale(0.015625)"/>
       </defs>
       <use xlink:href="#DejaVuSans-14"/>
       <use xlink:href="#DejaVuSans-4e" transform="translate(63.625 0)"/>
      </g>
     </g>
    </g>
    <g id="xtick_5">
     <g id="line2d_9">
      <path d="M 346.001679 275.978043
L 346.001679 63.72503
" clip-path="url(#pdbccc6e4dc)" style="fill: none; stroke: #b0b0b0; stroke-opacity: 0.22; stroke-width: 0.8; stroke-linecap: square"/>
     </g>
     <g id="line2d_10">
      <g>
       <use xlink:href="#m05ba437d56" x="346.001679" y="275.978043" style="stroke: #000000; stroke-width: 0.8"/>
      </g>
     </g>
     <g id="text_5">
      <!-- 4k -->
      <g transform="translate(339.925116 290.57648) scale(0.1 -0.1)">
       <use xlink:href="#DejaVuSans-17"/>
       <use xlink:href="#DejaVuSans-4e" transform="translate(63.625 0)"/>
      </g>
     </g>
    </g>
    <g id="xtick_6">
     <g id="line2d_11">
      <path d="M 414.443748 275.978043
L 414.443748 63.72503
" clip-path="url(#pdbccc6e4dc)" style="fill: none; stroke: #b0b0b0; stroke-opacity: 0.22; stroke-width: 0.8; stroke-linecap: square"/>
     </g>
     <g id="line2d_12">
      <g>
       <use xlink:href="#m05ba437d56" x="414.443748" y="275.978043" style="stroke: #000000; stroke-width: 0.8"/>
      </g>
     </g>
     <g id="text_6">
      <!-- 16k -->
      <g transform="translate(405.185935 290.57648) scale(0.1 -0.1)">
       <use xlink:href="#DejaVuSans-14"/>
       <use xlink:href="#DejaVuSans-19" transform="translate(63.625 0)"/>
       <use xlink:href="#DejaVuSans-4e" transform="translate(127.25 0)"/>
      </g>
     </g>
    </g>
    <g id="xtick_7">
     <g id="line2d_13">
      <path d="M 482.885817 275.978043
L 482.885817 63.72503
" clip-path="url(#pdbccc6e4dc)" style="fill: none; stroke: #b0b0b0; stroke-opacity: 0.22; stroke-width: 0.8; stroke-linecap: square"/>
     </g>
     <g id="line2d_14">
      <g>
       <use xlink:href="#m05ba437d56" x="482.885817" y="275.978043" style="stroke: #000000; stroke-width: 0.8"/>
      </g>
     </g>
     <g id="text_7">
      <!-- 64k -->
      <g transform="translate(473.628004 290.57648) scale(0.1 -0.1)">
       <use xlink:href="#DejaVuSans-19"/>
       <use xlink:href="#DejaVuSans-17" transform="translate(63.625 0)"/>
       <use xlink:href="#DejaVuSans-4e" transform="translate(127.25 0)"/>
      </g>
     </g>
    </g>
    <g id="text_8">
     <!-- State-vector length, n -->
     <g transform="translate(222.921328 304.577261) scale(0.1 -0.1)">
      <defs>
       <path id="DejaVuSans-36" d="M 3425 4513
L 3425 3897
Q 3066 4069 2747 4153
Q 2428 4238 2131 4238
Q 1616 4238 1336 4038
Q 1056 3838 1056 3469
Q 1056 3159 1242 3001
Q 1428 2844 1947 2747
L 2328 2669
Q 3034 2534 3370 2195
Q 3706 1856 3706 1288
Q 3706 609 3251 259
Q 2797 -91 1919 -91
Q 1588 -91 1214 -16
Q 841 59 441 206
L 441 856
Q 825 641 1194 531
Q 1563 422 1919 422
Q 2459 422 2753 634
Q 3047 847 3047 1241
Q 3047 1584 2836 1778
Q 2625 1972 2144 2069
L 1759 2144
Q 1053 2284 737 2584
Q 422 2884 422 3419
Q 422 4038 858 4394
Q 1294 4750 2059 4750
Q 2388 4750 2728 4690
Q 3069 4631 3425 4513
z
" transform="scale(0.015625)"/>
       <path id="DejaVuSans-57" d="M 1172 4494
L 1172 3500
L 2356 3500
L 2356 3053
L 1172 3053
L 1172 1153
Q 1172 725 1289 603
Q 1406 481 1766 481
L 2356 481
L 2356 0
L 1766 0
Q 1100 0 847 248
Q 594 497 594 1153
L 594 3053
L 172 3053
L 172 3500
L 594 3500
L 594 4494
L 1172 4494
z
" transform="scale(0.015625)"/>
       <path id="DejaVuSans-44" d="M 2194 1759
Q 1497 1759 1228 1600
Q 959 1441 959 1056
Q 959 750 1161 570
Q 1363 391 1709 391
Q 2188 391 2477 730
Q 2766 1069 2766 1631
L 2766 1759
L 2194 1759
z
M 3341 1997
L 3341 0
L 2766 0
L 2766 531
Q 2569 213 2275 61
Q 1981 -91 1556 -91
Q 1019 -91 701 211
Q 384 513 384 1019
Q 384 1609 779 1909
Q 1175 2209 1959 2209
L 2766 2209
L 2766 2266
Q 2766 2663 2505 2880
Q 2244 3097 1772 3097
Q 1472 3097 1187 3025
Q 903 2953 641 2809
L 641 3341
Q 956 3463 1253 3523
Q 1550 3584 1831 3584
Q 2591 3584 2966 3190
Q 3341 2797 3341 1997
z
" transform="scale(0.015625)"/>
       <path id="DejaVuSans-48" d="M 3597 1894
L 3597 1613
L 953 1613
Q 991 1019 1311 708
Q 1631 397 2203 397
Q 2534 397 2845 478
Q 3156 559 3463 722
L 3463 178
Q 3153 47 2828 -22
Q 2503 -91 2169 -91
Q 1331 -91 842 396
Q 353 884 353 1716
Q 353 2575 817 3079
Q 1281 3584 2069 3584
Q 2775 3584 3186 3129
Q 3597 2675 3597 1894
z
M 3022 2063
Q 3016 2534 2758 2815
Q 2500 3097 2075 3097
Q 1594 3097 1305 2825
Q 1016 2553 972 2059
L 3022 2063
z
" transform="scale(0.015625)"/>
       <path id="DejaVuSans-10" d="M 313 2009
L 1997 2009
L 1997 1497
L 313 1497
L 313 2009
z
" transform="scale(0.015625)"/>
       <path id="DejaVuSans-59" d="M 191 3500
L 800 3500
L 1894 563
L 2988 3500
L 3597 3500
L 2284 0
L 1503 0
L 191 3500
z
" transform="scale(0.015625)"/>
       <path id="DejaVuSans-46" d="M 3122 3366
L 3122 2828
Q 2878 2963 2633 3030
Q 2388 3097 2138 3097
Q 1578 3097 1268 2742
Q 959 2388 959 1747
Q 959 1106 1268 751
Q 1578 397 2138 397
Q 2388 397 2633 464
Q 2878 531 3122 666
L 3122 134
Q 2881 22 2623 -34
Q 2366 -91 2075 -91
Q 1284 -91 818 406
Q 353 903 353 1747
Q 353 2603 823 3093
Q 1294 3584 2113 3584
Q 2378 3584 2631 3529
Q 2884 3475 3122 3366
z
" transform="scale(0.015625)"/>
       <path id="DejaVuSans-52" d="M 1959 3097
Q 1497 3097 1228 2736
Q 959 2375 959 1747
Q 959 1119 1226 758
Q 1494 397 1959 397
Q 2419 397 2687 759
Q 2956 1122 2956 1747
Q 2956 2369 2687 2733
Q 2419 3097 1959 3097
z
M 1959 3584
Q 2709 3584 3137 3096
Q 3566 2609 3566 1747
Q 3566 888 3137 398
Q 2709 -91 1959 -91
Q 1206 -91 779 398
Q 353 888 353 1747
Q 353 2609 779 3096
Q 1206 3584 1959 3584
z
" transform="scale(0.015625)"/>
       <path id="DejaVuSans-55" d="M 2631 2963
Q 2534 3019 2420 3045
Q 2306 3072 2169 3072
Q 1681 3072 1420 2755
Q 1159 2438 1159 1844
L 1159 0
L 581 0
L 581 3500
L 1159 3500
L 1159 2956
Q 1341 3275 1631 3429
Q 1922 3584 2338 3584
Q 2397 3584 2469 3576
Q 2541 3569 2628 3553
L 2631 2963
z
" transform="scale(0.015625)"/>
       <path id="DejaVuSans-3" transform="scale(0.015625)"/>
       <path id="DejaVuSans-4f" d="M 603 4863
L 1178 4863
L 1178 0
L 603 0
L 603 4863
z
" transform="scale(0.015625)"/>
       <path id="DejaVuSans-51" d="M 3513 2113
L 3513 0
L 2938 0
L 2938 2094
Q 2938 2591 2744 2837
Q 2550 3084 2163 3084
Q 1697 3084 1428 2787
Q 1159 2491 1159 1978
L 1159 0
L 581 0
L 581 3500
L 1159 3500
L 1159 2956
Q 1366 3272 1645 3428
Q 1925 3584 2291 3584
Q 2894 3584 3203 3211
Q 3513 2838 3513 2113
z
" transform="scale(0.015625)"/>
       <path id="DejaVuSans-4a" d="M 2906 1791
Q 2906 2416 2648 2759
Q 2391 3103 1925 3103
Q 1463 3103 1205 2759
Q 947 2416 947 1791
Q 947 1169 1205 825
Q 1463 481 1925 481
Q 2391 481 2648 825
Q 2906 1169 2906 1791
z
M 3481 434
Q 3481 -459 3084 -895
Q 2688 -1331 1869 -1331
Q 1566 -1331 1297 -1286
Q 1028 -1241 775 -1147
L 775 -588
Q 1028 -725 1275 -790
Q 1522 -856 1778 -856
Q 2344 -856 2625 -561
Q 2906 -266 2906 331
L 2906 616
Q 2728 306 2450 153
Q 2172 0 1784 0
Q 1141 0 747 490
Q 353 981 353 1791
Q 353 2603 747 3093
Q 1141 3584 1784 3584
Q 2172 3584 2450 3431
Q 2728 3278 2906 2969
L 2906 3500
L 3481 3500
L 3481 434
z
" transform="scale(0.015625)"/>
       <path id="DejaVuSans-4b" d="M 3513 2113
L 3513 0
L 2938 0
L 2938 2094
Q 2938 2591 2744 2837
Q 2550 3084 2163 3084
Q 1697 3084 1428 2787
Q 1159 2491 1159 1978
L 1159 0
L 581 0
L 581 4863
L 1159 4863
L 1159 2956
Q 1366 3272 1645 3428
Q 1925 3584 2291 3584
Q 2894 3584 3203 3211
Q 3513 2838 3513 2113
z
" transform="scale(0.015625)"/>
       <path id="DejaVuSans-f" d="M 750 794
L 1409 794
L 1409 256
L 897 -744
L 494 -744
L 750 256
L 750 794
z
" transform="scale(0.015625)"/>
      </defs>
      <use xlink:href="#DejaVuSans-36"/>
      <use xlink:href="#DejaVuSans-57" transform="translate(63.484375 0)"/>
      <use xlink:href="#DejaVuSans-44" transform="translate(102.6875 0)"/>
      <use xlink:href="#DejaVuSans-57" transform="translate(163.96875 0)"/>
      <use xlink:href="#DejaVuSans-48" transform="translate(203.171875 0)"/>
      <use xlink:href="#DejaVuSans-10" transform="translate(264.703125 0)"/>
      <use xlink:href="#DejaVuSans-59" transform="translate(298.09375 0)"/>
      <use xlink:href="#DejaVuSans-48" transform="translate(357.28125 0)"/>
      <use xlink:href="#DejaVuSans-46" transform="translate(418.8125 0)"/>
      <use xlink:href="#DejaVuSans-57" transform="translate(473.796875 0)"/>
      <use xlink:href="#DejaVuSans-52" transform="translate(513 0)"/>
      <use xlink:href="#DejaVuSans-55" transform="translate(574.1875 0)"/>
      <use xlink:href="#DejaVuSans-3" transform="translate(615.296875 0)"/>
      <use xlink:href="#DejaVuSans-4f" transform="translate(647.078125 0)"/>
      <use xlink:href="#DejaVuSans-48" transform="translate(674.859375 0)"/>
      <use xlink:href="#DejaVuSans-51" transform="translate(736.390625 0)"/>
      <use xlink:href="#DejaVuSans-4a" transform="translate(799.765625 0)"/>
      <use xlink:href="#DejaVuSans-57" transform="translate(863.25 0)"/>
      <use xlink:href="#DejaVuSans-4b" transform="translate(902.453125 0)"/>
      <use xlink:href="#DejaVuSans-f" transform="translate(965.828125 0)"/>
      <use xlink:href="#DejaVuSans-3" transform="translate(997.609375 0)"/>
      <use xlink:href="#DejaVuSans-51" transform="translate(1029.390625 0)"/>
     </g>
    </g>
   </g>
   <g id="matplotlib.axis_2">
    <g id="ytick_1">
     <g id="line2d_15">
      <path d="M 51.700781 240.992075
L 503.418437 240.992075
" clip-path="url(#pdbccc6e4dc)" style="fill: none; stroke: #b0b0b0; stroke-opacity: 0.22; stroke-width: 0.8; stroke-linecap: square"/>
     </g>
     <g id="line2d_16">
      <defs>
       <path id="m861e330616" d="M 0 0
L -3.5 0
" style="stroke: #000000; stroke-width: 0.8"/>
      </defs>
      <g>
       <use xlink:href="#m861e330616" x="51.700781" y="240.992075" style="stroke: #000000; stroke-width: 0.8"/>
      </g>
     </g>
     <g id="text_9">
      <!-- $\mathdefault{10^{-5}}$ -->
      <g transform="translate(21.200781 245.642075) scale(0.1 -0.1)">
       <defs>
        <path id="DejaVuSans-13" d="M 2034 4250
Q 1547 4250 1301 3770
Q 1056 3291 1056 2328
Q 1056 1369 1301 889
Q 1547 409 2034 409
Q 2525 409 2770 889
Q 3016 1369 3016 2328
Q 3016 3291 2770 3770
Q 2525 4250 2034 4250
z
M 2034 4750
Q 2819 4750 3233 4129
Q 3647 3509 3647 2328
Q 3647 1150 3233 529
Q 2819 -91 2034 -91
Q 1250 -91 836 529
Q 422 1150 422 2328
Q 422 3509 836 4129
Q 1250 4750 2034 4750
z
" transform="scale(0.015625)"/>
        <path id="DejaVuSans-c9c" d="M 678 2272
L 4684 2272
L 4684 1741
L 678 1741
L 678 2272
z
" transform="scale(0.015625)"/>
       </defs>
       <use xlink:href="#DejaVuSans-14" transform="translate(0 0.665625)"/>
       <use xlink:href="#DejaVuSans-13" transform="translate(63.623047 0.665625)"/>
       <use xlink:href="#DejaVuSans-c9c" transform="translate(128.203125 41.965625) scale(0.7)"/>
       <use xlink:href="#DejaVuSans-18" transform="translate(186.855469 41.965625) scale(0.7)"/>
      </g>
     </g>
    </g>
    <g id="ytick_2">
     <g id="line2d_17">
      <path d="M 51.700781 89.297248
L 503.418437 89.297248
" clip-path="url(#pdbccc6e4dc)" style="fill: none; stroke: #b0b0b0; stroke-opacity: 0.22; stroke-width: 0.8; stroke-linecap: square"/>
     </g>
     <g id="line2d_18">
      <g>
       <use xlink:href="#m861e330616" x="51.700781" y="89.297248" style="stroke: #000000; stroke-width: 0.8"/>
      </g>
     </g>
     <g id="text_10">
      <!-- $\mathdefault{10^{-4}}$ -->
      <g transform="translate(21.200781 93.947248) scale(0.1 -0.1)">
       <use xlink:href="#DejaVuSans-14" transform="translate(0 0.665625)"/>
       <use xlink:href="#DejaVuSans-13" transform="translate(63.623047 0.665625)"/>
       <use xlink:href="#DejaVuSans-c9c" transform="translate(128.203125 41.965625) scale(0.7)"/>
       <use xlink:href="#DejaVuSans-17" transform="translate(186.855469 41.965625) scale(0.7)"/>
      </g>
     </g>
    </g>
    <g id="ytick_3">
     <g id="line2d_19">
      <path d="M 51.700781 274.645382
L 503.418437 274.645382
" clip-path="url(#pdbccc6e4dc)" style="fill: none; stroke: #b0b0b0; stroke-opacity: 0.22; stroke-width: 0.8; stroke-linecap: square"/>
     </g>
     <g id="line2d_20">
      <defs>
       <path id="mbce1f29241" d="M 0 0
L -2 0
" style="stroke: #000000; stroke-width: 0.6"/>
      </defs>
      <g>
       <use xlink:href="#mbce1f29241" x="51.700781" y="274.645382" style="stroke: #000000; stroke-width: 0.6"/>
      </g>
     </g>
    </g>
    <g id="ytick_4">
     <g id="line2d_21">
      <path d="M 51.700781 264.4899
L 503.418437 264.4899
" clip-path="url(#pdbccc6e4dc)" style="fill: none; stroke: #b0b0b0; stroke-opacity: 0.22; stroke-width: 0.8; stroke-linecap: square"/>
     </g>
     <g id="line2d_22">
      <g>
       <use xlink:href="#mbce1f29241" x="51.700781" y="264.4899" style="stroke: #000000; stroke-width: 0.6"/>
      </g>
     </g>
    </g>
    <g id="ytick_5">
     <g id="line2d_23">
      <path d="M 51.700781 255.692822
L 503.418437 255.692822
" clip-path="url(#pdbccc6e4dc)" style="fill: none; stroke: #b0b0b0; stroke-opacity: 0.22; stroke-width: 0.8; stroke-linecap: square"/>
     </g>
     <g id="line2d_24">
      <g>
       <use xlink:href="#mbce1f29241" x="51.700781" y="255.692822" style="stroke: #000000; stroke-width: 0.6"/>
      </g>
     </g>
    </g>
    <g id="ytick_6">
     <g id="line2d_25">
      <path d="M 51.700781 247.933249
L 503.418437 247.933249
" clip-path="url(#pdbccc6e4dc)" style="fill: none; stroke: #b0b0b0; stroke-opacity: 0.22; stroke-width: 0.8; stroke-linecap: square"/>
     </g>
     <g id="line2d_26">
      <g>
       <use xlink:href="#mbce1f29241" x="51.700781" y="247.933249" style="stroke: #000000; stroke-width: 0.6"/>
      </g>
     </g>
    </g>
    <g id="ytick_7">
     <g id="line2d_27">
      <path d="M 51.700781 195.327382
L 503.418437 195.327382
" clip-path="url(#pdbccc6e4dc)" style="fill: none; stroke: #b0b0b0; stroke-opacity: 0.22; stroke-width: 0.8; stroke-linecap: square"/>
     </g>
     <g id="line2d_28">
      <g>
       <use xlink:href="#mbce1f29241" x="51.700781" y="195.327382" style="stroke: #000000; stroke-width: 0.6"/>
      </g>
     </g>
    </g>
    <g id="ytick_8">
     <g id="line2d_29">
      <path d="M 51.700781 168.615249
L 503.418437 168.615249
" clip-path="url(#pdbccc6e4dc)" style="fill: none; stroke: #b0b0b0; stroke-opacity: 0.22; stroke-width: 0.8; stroke-linecap: square"/>
     </g>
     <g id="line2d_30">
      <g>
       <use xlink:href="#mbce1f29241" x="51.700781" y="168.615249" style="stroke: #000000; stroke-width: 0.6"/>
      </g>
     </g>
    </g>
    <g id="ytick_9">
     <g id="line2d_31">
      <path d="M 51.700781 149.662689
L 503.418437 149.662689
" clip-path="url(#pdbccc6e4dc)" style="fill: none; stroke: #b0b0b0; stroke-opacity: 0.22; stroke-width: 0.8; stroke-linecap: square"/>
     </g>
     <g id="line2d_32">
      <g>
       <use xlink:href="#mbce1f29241" x="51.700781" y="149.662689" style="stroke: #000000; stroke-width: 0.6"/>
      </g>
     </g>
    </g>
    <g id="ytick_10">
     <g id="line2d_33">
      <path d="M 51.700781 134.961941
L 503.418437 134.961941
" clip-path="url(#pdbccc6e4dc)" style="fill: none; stroke: #b0b0b0; stroke-opacity: 0.22; stroke-width: 0.8; stroke-linecap: square"/>
     </g>
     <g id="line2d_34">
      <g>
       <use xlink:href="#mbce1f29241" x="51.700781" y="134.961941" style="stroke: #000000; stroke-width: 0.6"/>
      </g>
     </g>
    </g>
    <g id="ytick_11">
     <g id="line2d_35">
      <path d="M 51.700781 122.950556
L 503.418437 122.950556
" clip-path="url(#pdbccc6e4dc)" style="fill: none; stroke: #b0b0b0; stroke-opacity: 0.22; stroke-width: 0.8; stroke-linecap: square"/>
     </g>
     <g id="line2d_36">
      <g>
       <use xlink:href="#mbce1f29241" x="51.700781" y="122.950556" style="stroke: #000000; stroke-width: 0.6"/>
      </g>
     </g>
    </g>
    <g id="ytick_12">
     <g id="line2d_37">
      <path d="M 51.700781 112.795074
L 503.418437 112.795074
" clip-path="url(#pdbccc6e4dc)" style="fill: none; stroke: #b0b0b0; stroke-opacity: 0.22; stroke-width: 0.8; stroke-linecap: square"/>
     </g>
     <g id="line2d_38">
      <g>
       <use xlink:href="#mbce1f29241" x="51.700781" y="112.795074" style="stroke: #000000; stroke-width: 0.6"/>
      </g>
     </g>
    </g>
    <g id="ytick_13">
     <g id="line2d_39">
      <path d="M 51.700781 103.997996
L 503.418437 103.997996
" clip-path="url(#pdbccc6e4dc)" style="fill: none; stroke: #b0b0b0; stroke-opacity: 0.22; stroke-width: 0.8; stroke-linecap: square"/>
     </g>
     <g id="line2d_40">
      <g>
       <use xlink:href="#mbce1f29241" x="51.700781" y="103.997996" style="stroke: #000000; stroke-width: 0.6"/>
      </g>
     </g>
    </g>
    <g id="ytick_14">
     <g id="line2d_41">
      <path d="M 51.700781 96.238423
L 503.418437 96.238423
" clip-path="url(#pdbccc6e4dc)" style="fill: none; stroke: #b0b0b0; stroke-opacity: 0.22; stroke-width: 0.8; stroke-linecap: square"/>
     </g>
     <g id="line2d_42">
      <g>
       <use xlink:href="#mbce1f29241" x="51.700781" y="96.238423" style="stroke: #000000; stroke-width: 0.6"/>
      </g>
     </g>
    </g>
    <g id="text_11">
     <!-- PRIMAL time [s] -->
     <g transform="translate(14.798438 209.31638) rotate(-90) scale(0.1 -0.1)">
      <defs>
       <path id="DejaVuSans-33" d="M 1259 4147
L 1259 2394
L 2053 2394
Q 2494 2394 2734 2622
Q 2975 2850 2975 3272
Q 2975 3691 2734 3919
Q 2494 4147 2053 4147
L 1259 4147
z
M 628 4666
L 2053 4666
Q 2838 4666 3239 4311
Q 3641 3956 3641 3272
Q 3641 2581 3239 2228
Q 2838 1875 2053 1875
L 1259 1875
L 1259 0
L 628 0
L 628 4666
z
" transform="scale(0.015625)"/>
       <path id="DejaVuSans-35" d="M 2841 2188
Q 3044 2119 3236 1894
Q 3428 1669 3622 1275
L 4263 0
L 3584 0
L 2988 1197
Q 2756 1666 2539 1819
Q 2322 1972 1947 1972
L 1259 1972
L 1259 0
L 628 0
L 628 4666
L 2053 4666
Q 2853 4666 3247 4331
Q 3641 3997 3641 3322
Q 3641 2881 3436 2590
Q 3231 2300 2841 2188
z
M 1259 4147
L 1259 2491
L 2053 2491
Q 2509 2491 2742 2702
Q 2975 2913 2975 3322
Q 2975 3731 2742 3939
Q 2509 4147 2053 4147
L 1259 4147
z
" transform="scale(0.015625)"/>
       <path id="DejaVuSans-2c" d="M 628 4666
L 1259 4666
L 1259 0
L 628 0
L 628 4666
z
" transform="scale(0.015625)"/>
       <path id="DejaVuSans-30" d="M 628 4666
L 1569 4666
L 2759 1491
L 3956 4666
L 4897 4666
L 4897 0
L 4281 0
L 4281 4097
L 3078 897
L 2444 897
L 1241 4097
L 1241 0
L 628 0
L 628 4666
z
" transform="scale(0.015625)"/>
       <path id="DejaVuSans-24" d="M 2188 4044
L 1331 1722
L 3047 1722
L 2188 4044
z
M 1831 4666
L 2547 4666
L 4325 0
L 3669 0
L 3244 1197
L 1141 1197
L 716 0
L 50 0
L 1831 4666
z
" transform="scale(0.015625)"/>
       <path id="DejaVuSans-2f" d="M 628 4666
L 1259 4666
L 1259 531
L 3531 531
L 3531 0
L 628 0
L 628 4666
z
" transform="scale(0.015625)"/>
       <path id="DejaVuSans-4c" d="M 603 3500
L 1178 3500
L 1178 0
L 603 0
L 603 3500
z
M 603 4863
L 1178 4863
L 1178 4134
L 603 4134
L 603 4863
z
" transform="scale(0.015625)"/>
       <path id="DejaVuSans-50" d="M 3328 2828
Q 3544 3216 3844 3400
Q 4144 3584 4550 3584
Q 5097 3584 5394 3201
Q 5691 2819 5691 2113
L 5691 0
L 5113 0
L 5113 2094
Q 5113 2597 4934 2840
Q 4756 3084 4391 3084
Q 3944 3084 3684 2787
Q 3425 2491 3425 1978
L 3425 0
L 2847 0
L 2847 2094
Q 2847 2600 2669 2842
Q 2491 3084 2119 3084
Q 1678 3084 1418 2786
Q 1159 2488 1159 1978
L 1159 0
L 581 0
L 581 3500
L 1159 3500
L 1159 2956
Q 1356 3278 1631 3431
Q 1906 3584 2284 3584
Q 2666 3584 2933 3390
Q 3200 3197 3328 2828
z
" transform="scale(0.015625)"/>
       <path id="DejaVuSans-3e" d="M 550 4863
L 1875 4863
L 1875 4416
L 1125 4416
L 1125 -397
L 1875 -397
L 1875 -844
L 550 -844
L 550 4863
z
" transform="scale(0.015625)"/>
       <path id="DejaVuSans-56" d="M 2834 3397
L 2834 2853
Q 2591 2978 2328 3040
Q 2066 3103 1784 3103
Q 1356 3103 1142 2972
Q 928 2841 928 2578
Q 928 2378 1081 2264
Q 1234 2150 1697 2047
L 1894 2003
Q 2506 1872 2764 1633
Q 3022 1394 3022 966
Q 3022 478 2636 193
Q 2250 -91 1575 -91
Q 1294 -91 989 -36
Q 684 19 347 128
L 347 722
Q 666 556 975 473
Q 1284 391 1588 391
Q 1994 391 2212 530
Q 2431 669 2431 922
Q 2431 1156 2273 1281
Q 2116 1406 1581 1522
L 1381 1569
Q 847 1681 609 1914
Q 372 2147 372 2553
Q 372 3047 722 3315
Q 1072 3584 1716 3584
Q 2034 3584 2315 3537
Q 2597 3491 2834 3397
z
" transform="scale(0.015625)"/>
       <path id="DejaVuSans-40" d="M 1947 4863
L 1947 -844
L 622 -844
L 622 -397
L 1369 -397
L 1369 4416
L 622 4416
L 622 4863
L 1947 4863
z
" transform="scale(0.015625)"/>
      </defs>
      <use xlink:href="#DejaVuSans-33"/>
      <use xlink:href="#DejaVuSans-35" transform="translate(60.296875 0)"/>
      <use xlink:href="#DejaVuSans-2c" transform="translate(129.78125 0)"/>
      <use xlink:href="#DejaVuSans-30" transform="translate(159.28125 0)"/>
      <use xlink:href="#DejaVuSans-24" transform="translate(245.5625 0)"/>
      <use xlink:href="#DejaVuSans-2f" transform="translate(313.96875 0)"/>
      <use xlink:href="#DejaVuSans-3" transform="translate(369.6875 0)"/>
      <use xlink:href="#DejaVuSans-57" transform="translate(401.46875 0)"/>
      <use xlink:href="#DejaVuSans-4c" transform="translate(440.671875 0)"/>
      <use xlink:href="#DejaVuSans-50" transform="translate(468.453125 0)"/>
      <use xlink:href="#DejaVuSans-48" transform="translate(565.859375 0)"/>
      <use xlink:href="#DejaVuSans-3" transform="translate(627.390625 0)"/>
      <use xlink:href="#DejaVuSans-3e" transform="translate(659.171875 0)"/>
      <use xlink:href="#DejaVuSans-56" transform="translate(698.1875 0)"/>
      <use xlink:href="#DejaVuSans-40" transform="translate(750.28125 0)"/>
     </g>
    </g>
   </g>
   <g id="line2d_43">
    <path d="M 72.233402 255.255936
L 140.675471 226.495305
L 209.11754 229.313546
L 277.559609 231.871208
L 346.001679 216.647357
L 414.443748 180.150163
L 482.885817 128.881358
" clip-path="url(#pdbccc6e4dc)" style="fill: none; stroke: #0072b2; stroke-width: 1.8; stroke-linecap: square"/>
    <defs>
     <path id="mb9dc892a4c" d="M 0 2
C 0.530406 2 1.03916 1.789267 1.414214 1.414214
C 1.789267 1.03916 2 0.530406 2 0
C 2 -0.530406 1.789267 -1.03916 1.414214 -1.414214
C 1.03916 -1.789267 0.530406 -2 0 -2
C -0.530406 -2 -1.03916 -1.789267 -1.414214 -1.414214
C -1.789267 -1.03916 -2 -0.530406 -2 0
C -2 0.530406 -1.789267 1.03916 -1.414214 1.414214
C -1.03916 1.789267 -0.530406 2 0 2
z
" style="stroke: #0072b2"/>
    </defs>
    <g clip-path="url(#pdbccc6e4dc)">
     <use xlink:href="#mb9dc892a4c" x="72.233402" y="255.255936" style="fill: #0072b2; stroke: #0072b2"/>
     <use xlink:href="#mb9dc892a4c" x="140.675471" y="226.495305" style="fill: #0072b2; stroke: #0072b2"/>
     <use xlink:href="#mb9dc892a4c" x="209.11754" y="229.313546" style="fill: #0072b2; stroke: #0072b2"/>
     <use xlink:href="#mb9dc892a4c" x="277.559609" y="231.871208" style="fill: #0072b2; stroke: #0072b2"/>
     <use xlink:href="#mb9dc892a4c" x="346.001679" y="216.647357" style="fill: #0072b2; stroke: #0072b2"/>
     <use xlink:href="#mb9dc892a4c" x="414.443748" y="180.150163" style="fill: #0072b2; stroke: #0072b2"/>
     <use xlink:href="#mb9dc892a4c" x="482.885817" y="128.881358" style="fill: #0072b2; stroke: #0072b2"/>
    </g>
   </g>
   <g id="line2d_44">
    <path d="M 72.233402 238.207307
L 140.675471 254.115782
L 209.11754 233.916574
L 277.559609 249.56044
L 346.001679 245.606069
L 414.443748 209.042859
L 482.885817 131.700212
" clip-path="url(#pdbccc6e4dc)" style="fill: none; stroke: #d55e00; stroke-width: 1.8; stroke-linecap: square"/>
    <defs>
     <path id="m6f132ab36d" d="M -2 2
L 2 2
L 2 -2
L -2 -2
z
" style="stroke: #d55e00; stroke-linejoin: miter"/>
    </defs>
    <g clip-path="url(#pdbccc6e4dc)">
     <use xlink:href="#m6f132ab36d" x="72.233402" y="238.207307" style="fill: #d55e00; stroke: #d55e00; stroke-linejoin: miter"/>
     <use xlink:href="#m6f132ab36d" x="140.675471" y="254.115782" style="fill: #d55e00; stroke: #d55e00; stroke-linejoin: miter"/>
     <use xlink:href="#m6f132ab36d" x="209.11754" y="233.916574" style="fill: #d55e00; stroke: #d55e00; stroke-linejoin: miter"/>
     <use xlink:href="#m6f132ab36d" x="277.559609" y="249.56044" style="fill: #d55e00; stroke: #d55e00; stroke-linejoin: miter"/>
     <use xlink:href="#m6f132ab36d" x="346.001679" y="245.606069" style="fill: #d55e00; stroke: #d55e00; stroke-linejoin: miter"/>
     <use xlink:href="#m6f132ab36d" x="414.443748" y="209.042859" style="fill: #d55e00; stroke: #d55e00; stroke-linejoin: miter"/>
     <use xlink:href="#m6f132ab36d" x="482.885817" y="131.700212" style="fill: #d55e00; stroke: #d55e00; stroke-linejoin: miter"/>
    </g>
   </g>
   <g id="line2d_45">
    <path d="M 72.233402 238.388419
L 140.675471 233.215416
L 209.11754 233.839165
L 277.559609 221.16602
L 346.001679 206.710735
L 414.443748 199.137851
L 482.885817 106.434781
" clip-path="url(#pdbccc6e4dc)" style="fill: none; stroke: #e69f00; stroke-width: 1.8; stroke-linecap: square"/>
    <defs>
     <path id="m69889e5158" d="M 0 -2
L -2 2
L 2 2
z
" style="stroke: #e69f00; stroke-linejoin: miter"/>
    </defs>
    <g clip-path="url(#pdbccc6e4dc)">
     <use xlink:href="#m69889e5158" x="72.233402" y="238.388419" style="fill: #e69f00; stroke: #e69f00; stroke-linejoin: miter"/>
     <use xlink:href="#m69889e5158" x="140.675471" y="233.215416" style="fill: #e69f00; stroke: #e69f00; stroke-linejoin: miter"/>
     <use xlink:href="#m69889e5158" x="209.11754" y="233.839165" style="fill: #e69f00; stroke: #e69f00; stroke-linejoin: miter"/>
     <use xlink:href="#m69889e5158" x="277.559609" y="221.16602" style="fill: #e69f00; stroke: #e69f00; stroke-linejoin: miter"/>
     <use xlink:href="#m69889e5158" x="346.001679" y="206.710735" style="fill: #e69f00; stroke: #e69f00; stroke-linejoin: miter"/>
     <use xlink:href="#m69889e5158" x="414.443748" y="199.137851" style="fill: #e69f00; stroke: #e69f00; stroke-linejoin: miter"/>
     <use xlink:href="#m69889e5158" x="482.885817" y="106.434781" style="fill: #e69f00; stroke: #e69f00; stroke-linejoin: miter"/>
    </g>
   </g>
   <g id="line2d_46">
    <path d="M 72.233402 237.679511
L 140.675471 233.904545
L 209.11754 243.095017
L 277.559609 249.946394
L 346.001679 214.067768
L 414.443748 214.536817
L 482.885817 151.500301
" clip-path="url(#pdbccc6e4dc)" style="fill: none; stroke: #009e73; stroke-width: 1.8; stroke-linecap: square"/>
    <defs>
     <path id="m2bc010c2eb" d="M -0 2.828427
L 2.828427 0
L 0 -2.828427
L -2.828427 -0
z
" style="stroke: #009e73; stroke-linejoin: miter"/>
    </defs>
    <g clip-path="url(#pdbccc6e4dc)">
     <use xlink:href="#m2bc010c2eb" x="72.233402" y="237.679511" style="fill: #009e73; stroke: #009e73; stroke-linejoin: miter"/>
     <use xlink:href="#m2bc010c2eb" x="140.675471" y="233.904545" style="fill: #009e73; stroke: #009e73; stroke-linejoin: miter"/>
     <use xlink:href="#m2bc010c2eb" x="209.11754" y="243.095017" style="fill: #009e73; stroke: #009e73; stroke-linejoin: miter"/>
     <use xlink:href="#m2bc010c2eb" x="277.559609" y="249.946394" style="fill: #009e73; stroke: #009e73; stroke-linejoin: miter"/>
     <use xlink:href="#m2bc010c2eb" x="346.001679" y="214.067768" style="fill: #009e73; stroke: #009e73; stroke-linejoin: miter"/>
     <use xlink:href="#m2bc010c2eb" x="414.443748" y="214.536817" style="fill: #009e73; stroke: #009e73; stroke-linejoin: miter"/>
     <use xlink:href="#m2bc010c2eb" x="482.885817" y="151.500301" style="fill: #009e73; stroke: #009e73; stroke-linejoin: miter"/>
    </g>
   </g>
   <g id="line2d_47">
    <path d="M 72.233402 123.099246
L 140.675471 115.587317
L 209.11754 121.622898
L 277.559609 124.96383
L 346.001679 122.76185
L 414.443748 114.616131
L 482.885817 100.433383
" clip-path="url(#pdbccc6e4dc)" style="fill: none; stroke: #cc79a7; stroke-width: 1.8; stroke-linecap: square"/>
    <defs>
     <path id="mc2d96dcae7" d="M -0 2
L 2 -2
L -2 -2
z
" style="stroke: #cc79a7; stroke-linejoin: miter"/>
    </defs>
    <g clip-path="url(#pdbccc6e4dc)">
     <use xlink:href="#mc2d96dcae7" x="72.233402" y="123.099246" style="fill: #cc79a7; stroke: #cc79a7; stroke-linejoin: miter"/>
     <use xlink:href="#mc2d96dcae7" x="140.675471" y="115.587317" style="fill: #cc79a7; stroke: #cc79a7; stroke-linejoin: miter"/>
     <use xlink:href="#mc2d96dcae7" x="209.11754" y="121.622898" style="fill: #cc79a7; stroke: #cc79a7; stroke-linejoin: miter"/>
     <use xlink:href="#mc2d96dcae7" x="277.559609" y="124.96383" style="fill: #cc79a7; stroke: #cc79a7; stroke-linejoin: miter"/>
     <use xlink:href="#mc2d96dcae7" x="346.001679" y="122.76185" style="fill: #cc79a7; stroke: #cc79a7; stroke-linejoin: miter"/>
     <use xlink:href="#mc2d96dcae7" x="414.443748" y="114.616131" style="fill: #cc79a7; stroke: #cc79a7; stroke-linejoin: miter"/>
     <use xlink:href="#mc2d96dcae7" x="482.885817" y="100.433383" style="fill: #cc79a7; stroke: #cc79a7; stroke-linejoin: miter"/>
    </g>
   </g>
   <g id="line2d_48">
    <path d="M 72.233402 146.760753
L 140.675471 148.874836
L 209.11754 179.11016
L 277.559609 168.478158
L 346.001679 134.880855
L 414.443748 116.00425
L 482.885817 74.094549
" clip-path="url(#pdbccc6e4dc)" style="fill: none; stroke: #56b4e9; stroke-width: 1.8; stroke-linecap: square"/>
    <defs>
     <path id="m1aa69d48d7" d="M -0.666667 2
L 0.666667 2
L 0.666667 0.666667
L 2 0.666667
L 2 -0.666667
L 0.666667 -0.666667
L 0.666667 -2
L -0.666667 -2
L -0.666667 -0.666667
L -2 -0.666667
L -2 0.666667
L -0.666667 0.666667
z
" style="stroke: #56b4e9; stroke-linejoin: miter"/>
    </defs>
    <g clip-path="url(#pdbccc6e4dc)">
     <use xlink:href="#m1aa69d48d7" x="72.233402" y="146.760753" style="fill: #56b4e9; stroke: #56b4e9; stroke-linejoin: miter"/>
     <use xlink:href="#m1aa69d48d7" x="140.675471" y="148.874836" style="fill: #56b4e9; stroke: #56b4e9; stroke-linejoin: miter"/>
     <use xlink:href="#m1aa69d48d7" x="209.11754" y="179.11016" style="fill: #56b4e9; stroke: #56b4e9; stroke-linejoin: miter"/>
     <use xlink:href="#m1aa69d48d7" x="277.559609" y="168.478158" style="fill: #56b4e9; stroke: #56b4e9; stroke-linejoin: miter"/>
     <use xlink:href="#m1aa69d48d7" x="346.001679" y="134.880855" style="fill: #56b4e9; stroke: #56b4e9; stroke-linejoin: miter"/>
     <use xlink:href="#m1aa69d48d7" x="414.443748" y="116.00425" style="fill: #56b4e9; stroke: #56b4e9; stroke-linejoin: miter"/>
     <use xlink:href="#m1aa69d48d7" x="482.885817" y="74.094549" style="fill: #56b4e9; stroke: #56b4e9; stroke-linejoin: miter"/>
    </g>
   </g>
   <g id="line2d_49">
    <path d="M 72.233402 241.563379
L 140.675471 234.388593
L 209.11754 237.163224
L 277.559609 230.339894
L 346.001679 226.036904
L 414.443748 170.582098
L 482.885817 78.775753
" clip-path="url(#pdbccc6e4dc)" style="fill: none; stroke: #333333; stroke-width: 1.8; stroke-linecap: square"/>
    <defs>
     <path id="m5fdc38cc98" d="M -1 2
L 0 1
L 1 2
L 2 1
L 1 0
L 2 -1
L 1 -2
L 0 -1
L -1 -2
L -2 -1
L -1 0
L -2 1
z
" style="stroke: #333333; stroke-linejoin: miter"/>
    </defs>
    <g clip-path="url(#pdbccc6e4dc)">
     <use xlink:href="#m5fdc38cc98" x="72.233402" y="241.563379" style="fill: #333333; stroke: #333333; stroke-linejoin: miter"/>
     <use xlink:href="#m5fdc38cc98" x="140.675471" y="234.388593" style="fill: #333333; stroke: #333333; stroke-linejoin: miter"/>
     <use xlink:href="#m5fdc38cc98" x="209.11754" y="237.163224" style="fill: #333333; stroke: #333333; stroke-linejoin: miter"/>
     <use xlink:href="#m5fdc38cc98" x="277.559609" y="230.339894" style="fill: #333333; stroke: #333333; stroke-linejoin: miter"/>
     <use xlink:href="#m5fdc38cc98" x="346.001679" y="226.036904" style="fill: #333333; stroke: #333333; stroke-linejoin: miter"/>
     <use xlink:href="#m5fdc38cc98" x="414.443748" y="170.582098" style="fill: #333333; stroke: #333333; stroke-linejoin: miter"/>
     <use xlink:href="#m5fdc38cc98" x="482.885817" y="78.775753" style="fill: #333333; stroke: #333333; stroke-linejoin: miter"/>
    </g>
   </g>
   <g id="patch_3">
    <path d="M 51.700781 275.978043
L 51.700781 63.72503
" style="fill: none; stroke: #000000; stroke-width: 0.8; stroke-linejoin: miter; stroke-linecap: square"/>
   </g>
   <g id="patch_4">
    <path d="M 51.700781 275.978043
L 503.418437 275.978043
" style="fill: none; stroke: #000000; stroke-width: 0.8; stroke-linejoin: miter; stroke-linecap: square"/>
   </g>
   <g id="legend_1">
    <g id="line2d_50">
     <path d="M 143.602734 13.67875
L 151.602734 13.67875
L 159.602734 13.67875
" style="fill: none; stroke: #0072b2; stroke-width: 1.8; stroke-linecap: square"/>
     <g>
      <use xlink:href="#mb9dc892a4c" x="151.602734" y="13.67875" style="fill: #0072b2; stroke: #0072b2"/>
     </g>
    </g>
    <g id="text_12">
     <!-- Fortran analytical -->
     <g transform="translate(166.002734 16.47875) scale(0.08 -0.08)">
      <defs>
       <path id="DejaVuSans-29" d="M 628 4666
L 3309 4666
L 3309 4134
L 1259 4134
L 1259 2759
L 3109 2759
L 3109 2228
L 1259 2228
L 1259 0
L 628 0
L 628 4666
z
" transform="scale(0.015625)"/>
       <path id="DejaVuSans-5c" d="M 2059 -325
Q 1816 -950 1584 -1140
Q 1353 -1331 966 -1331
L 506 -1331
L 506 -850
L 844 -850
Q 1081 -850 1212 -737
Q 1344 -625 1503 -206
L 1606 56
L 191 3500
L 800 3500
L 1894 763
L 2988 3500
L 3597 3500
L 2059 -325
z
" transform="scale(0.015625)"/>
      </defs>
      <use xlink:href="#DejaVuSans-29"/>
      <use xlink:href="#DejaVuSans-52" transform="translate(53.953125 0)"/>
      <use xlink:href="#DejaVuSans-55" transform="translate(115.140625 0)"/>
      <use xlink:href="#DejaVuSans-57" transform="translate(156.25 0)"/>
      <use xlink:href="#DejaVuSans-55" transform="translate(195.453125 0)"/>
      <use xlink:href="#DejaVuSans-44" transform="translate(236.5625 0)"/>
      <use xlink:href="#DejaVuSans-51" transform="translate(297.84375 0)"/>
      <use xlink:href="#DejaVuSans-3" transform="translate(361.21875 0)"/>
      <use xlink:href="#DejaVuSans-44" transform="translate(393 0)"/>
      <use xlink:href="#DejaVuSans-51" transform="translate(454.28125 0)"/>
      <use xlink:href="#DejaVuSans-44" transform="translate(517.65625 0)"/>
      <use xlink:href="#DejaVuSans-4f" transform="translate(578.9375 0)"/>
      <use xlink:href="#DejaVuSans-5c" transform="translate(606.71875 0)"/>
      <use xlink:href="#DejaVuSans-57" transform="translate(665.90625 0)"/>
      <use xlink:href="#DejaVuSans-4c" transform="translate(705.109375 0)"/>
      <use xlink:href="#DejaVuSans-46" transform="translate(732.890625 0)"/>
      <use xlink:href="#DejaVuSans-44" transform="translate(787.875 0)"/>
      <use xlink:href="#DejaVuSans-4f" transform="translate(849.15625 0)"/>
     </g>
    </g>
    <g id="line2d_51">
     <path d="M 143.602734 25.679375
L 151.602734 25.679375
L 159.602734 25.679375
" style="fill: none; stroke: #d55e00; stroke-width: 1.8; stroke-linecap: square"/>
     <g>
      <use xlink:href="#m6f132ab36d" x="151.602734" y="25.679375" style="fill: #d55e00; stroke: #d55e00; stroke-linejoin: miter"/>
     </g>
    </g>
    <g id="text_13">
     <!-- Flang + Enzyme -->
     <g transform="translate(166.002734 28.479375) scale(0.08 -0.08)">
      <defs>
       <path id="DejaVuSans-e" d="M 2944 4013
L 2944 2272
L 4684 2272
L 4684 1741
L 2944 1741
L 2944 0
L 2419 0
L 2419 1741
L 678 1741
L 678 2272
L 2419 2272
L 2419 4013
L 2944 4013
z
" transform="scale(0.015625)"/>
       <path id="DejaVuSans-28" d="M 628 4666
L 3578 4666
L 3578 4134
L 1259 4134
L 1259 2753
L 3481 2753
L 3481 2222
L 1259 2222
L 1259 531
L 3634 531
L 3634 0
L 628 0
L 628 4666
z
" transform="scale(0.015625)"/>
       <path id="DejaVuSans-5d" d="M 353 3500
L 3084 3500
L 3084 2975
L 922 459
L 3084 459
L 3084 0
L 275 0
L 275 525
L 2438 3041
L 353 3041
L 353 3500
z
" transform="scale(0.015625)"/>
      </defs>
      <use xlink:href="#DejaVuSans-29"/>
      <use xlink:href="#DejaVuSans-4f" transform="translate(57.515625 0)"/>
      <use xlink:href="#DejaVuSans-44" transform="translate(85.296875 0)"/>
      <use xlink:href="#DejaVuSans-51" transform="translate(146.578125 0)"/>
      <use xlink:href="#DejaVuSans-4a" transform="translate(209.953125 0)"/>
      <use xlink:href="#DejaVuSans-3" transform="translate(273.4375 0)"/>
      <use xlink:href="#DejaVuSans-e" transform="translate(305.21875 0)"/>
      <use xlink:href="#DejaVuSans-3" transform="translate(389.015625 0)"/>
      <use xlink:href="#DejaVuSans-28" transform="translate(420.796875 0)"/>
      <use xlink:href="#DejaVuSans-51" transform="translate(483.984375 0)"/>
      <use xlink:href="#DejaVuSans-5d" transform="translate(547.359375 0)"/>
      <use xlink:href="#DejaVuSans-5c" transform="translate(599.84375 0)"/>
      <use xlink:href="#DejaVuSans-50" transform="translate(659.03125 0)"/>
      <use xlink:href="#DejaVuSans-48" transform="translate(756.4375 0)"/>
     </g>
    </g>
    <g id="line2d_52">
     <path d="M 143.602734 37.68
L 151.602734 37.68
L 159.602734 37.68
" style="fill: none; stroke: #e69f00; stroke-width: 1.8; stroke-linecap: square"/>
     <g>
      <use xlink:href="#m69889e5158" x="151.602734" y="37.68" style="fill: #e69f00; stroke: #e69f00; stroke-linejoin: miter"/>
     </g>
    </g>
    <g id="text_14">
     <!-- LFortran + Enzyme -->
     <g transform="translate(166.002734 40.48) scale(0.08 -0.08)">
      <use xlink:href="#DejaVuSans-2f"/>
      <use xlink:href="#DejaVuSans-29" transform="translate(55.71875 0)"/>
      <use xlink:href="#DejaVuSans-52" transform="translate(109.671875 0)"/>
      <use xlink:href="#DejaVuSans-55" transform="translate(170.859375 0)"/>
      <use xlink:href="#DejaVuSans-57" transform="translate(211.96875 0)"/>
      <use xlink:href="#DejaVuSans-55" transform="translate(251.171875 0)"/>
      <use xlink:href="#DejaVuSans-44" transform="translate(292.28125 0)"/>
      <use xlink:href="#DejaVuSans-51" transform="translate(353.5625 0)"/>
      <use xlink:href="#DejaVuSans-3" transform="translate(416.9375 0)"/>
      <use xlink:href="#DejaVuSans-e" transform="translate(448.71875 0)"/>
      <use xlink:href="#DejaVuSans-3" transform="translate(532.515625 0)"/>
      <use xlink:href="#DejaVuSans-28" transform="translate(564.296875 0)"/>
      <use xlink:href="#DejaVuSans-51" transform="translate(627.484375 0)"/>
      <use xlink:href="#DejaVuSans-5d" transform="translate(690.859375 0)"/>
      <use xlink:href="#DejaVuSans-5c" transform="translate(743.34375 0)"/>
      <use xlink:href="#DejaVuSans-50" transform="translate(802.53125 0)"/>
      <use xlink:href="#DejaVuSans-48" transform="translate(899.9375 0)"/>
     </g>
    </g>
    <g id="line2d_53">
     <path d="M 143.602734 49.680625
L 151.602734 49.680625
L 159.602734 49.680625
" style="fill: none; stroke: #009e73; stroke-width: 1.8; stroke-linecap: square"/>
     <g>
      <use xlink:href="#m2bc010c2eb" x="151.602734" y="49.680625" style="fill: #009e73; stroke: #009e73; stroke-linejoin: miter"/>
     </g>
    </g>
    <g id="text_15">
     <!-- JAX native (jit) -->
     <g transform="translate(166.002734 52.480625) scale(0.08 -0.08)">
      <defs>
       <path id="DejaVuSans-2d" d="M 628 4666
L 1259 4666
L 1259 325
Q 1259 -519 939 -900
Q 619 -1281 -91 -1281
L -331 -1281
L -331 -750
L -134 -750
Q 284 -750 456 -515
Q 628 -281 628 325
L 628 4666
z
" transform="scale(0.015625)"/>
       <path id="DejaVuSans-3b" d="M 403 4666
L 1081 4666
L 2241 2931
L 3406 4666
L 4084 4666
L 2584 2425
L 4184 0
L 3506 0
L 2194 1984
L 872 0
L 191 0
L 1856 2491
L 403 4666
z
" transform="scale(0.015625)"/>
       <path id="DejaVuSans-b" d="M 1984 4856
Q 1566 4138 1362 3434
Q 1159 2731 1159 2009
Q 1159 1288 1364 580
Q 1569 -128 1984 -844
L 1484 -844
Q 1016 -109 783 600
Q 550 1309 550 2009
Q 550 2706 781 3412
Q 1013 4119 1484 4856
L 1984 4856
z
" transform="scale(0.015625)"/>
       <path id="DejaVuSans-4d" d="M 603 3500
L 1178 3500
L 1178 -63
Q 1178 -731 923 -1031
Q 669 -1331 103 -1331
L -116 -1331
L -116 -844
L 38 -844
Q 366 -844 484 -692
Q 603 -541 603 -63
L 603 3500
z
M 603 4863
L 1178 4863
L 1178 4134
L 603 4134
L 603 4863
z
" transform="scale(0.015625)"/>
       <path id="DejaVuSans-c" d="M 513 4856
L 1013 4856
Q 1481 4119 1714 3412
Q 1947 2706 1947 2009
Q 1947 1309 1714 600
Q 1481 -109 1013 -844
L 513 -844
Q 928 -128 1133 580
Q 1338 1288 1338 2009
Q 1338 2731 1133 3434
Q 928 4138 513 4856
z
" transform="scale(0.015625)"/>
      </defs>
      <use xlink:href="#DejaVuSans-2d"/>
      <use xlink:href="#DejaVuSans-24" transform="translate(27.75 0)"/>
      <use xlink:href="#DejaVuSans-3b" transform="translate(96.15625 0)"/>
      <use xlink:href="#DejaVuSans-3" transform="translate(164.65625 0)"/>
      <use xlink:href="#DejaVuSans-51" transform="translate(196.4375 0)"/>
      <use xlink:href="#DejaVuSans-44" transform="translate(259.8125 0)"/>
      <use xlink:href="#DejaVuSans-57" transform="translate(321.09375 0)"/>
      <use xlink:href="#DejaVuSans-4c" transform="translate(360.296875 0)"/>
      <use xlink:href="#DejaVuSans-59" transform="translate(388.078125 0)"/>
      <use xlink:href="#DejaVuSans-48" transform="translate(447.265625 0)"/>
      <use xlink:href="#DejaVuSans-3" transform="translate(508.796875 0)"/>
      <use xlink:href="#DejaVuSans-b" transform="translate(540.578125 0)"/>
      <use xlink:href="#DejaVuSans-4d" transform="translate(579.59375 0)"/>
      <use xlink:href="#DejaVuSans-4c" transform="translate(607.375 0)"/>
      <use xlink:href="#DejaVuSans-57" transform="translate(635.15625 0)"/>
      <use xlink:href="#DejaVuSans-c" transform="translate(674.359375 0)"/>
     </g>
    </g>
    <g id="line2d_54">
     <path d="M 258.920234 13.67875
L 266.920234 13.67875
L 274.920234 13.67875
" style="fill: none; stroke: #cc79a7; stroke-width: 1.8; stroke-linecap: square"/>
     <g>
      <use xlink:href="#mc2d96dcae7" x="266.920234" y="13.67875" style="fill: #cc79a7; stroke: #cc79a7; stroke-linejoin: miter"/>
     </g>
    </g>
    <g id="text_16">
     <!-- PyTorch native (compile) -->
     <g transform="translate(281.320234 16.47875) scale(0.08 -0.08)">
      <defs>
       <path id="DejaVuSans-37" d="M -19 4666
L 3928 4666
L 3928 4134
L 2272 4134
L 2272 0
L 1638 0
L 1638 4134
L -19 4134
L -19 4666
z
" transform="scale(0.015625)"/>
       <path id="DejaVuSans-53" d="M 1159 525
L 1159 -1331
L 581 -1331
L 581 3500
L 1159 3500
L 1159 2969
Q 1341 3281 1617 3432
Q 1894 3584 2278 3584
Q 2916 3584 3314 3078
Q 3713 2572 3713 1747
Q 3713 922 3314 415
Q 2916 -91 2278 -91
Q 1894 -91 1617 61
Q 1341 213 1159 525
z
M 3116 1747
Q 3116 2381 2855 2742
Q 2594 3103 2138 3103
Q 1681 3103 1420 2742
Q 1159 2381 1159 1747
Q 1159 1113 1420 752
Q 1681 391 2138 391
Q 2594 391 2855 752
Q 3116 1113 3116 1747
z
" transform="scale(0.015625)"/>
      </defs>
      <use xlink:href="#DejaVuSans-33"/>
      <use xlink:href="#DejaVuSans-5c" transform="translate(60.296875 0)"/>
      <use xlink:href="#DejaVuSans-37" transform="translate(119.484375 0)"/>
      <use xlink:href="#DejaVuSans-52" transform="translate(163.578125 0)"/>
      <use xlink:href="#DejaVuSans-55" transform="translate(224.765625 0)"/>
      <use xlink:href="#DejaVuSans-46" transform="translate(263.671875 0)"/>
      <use xlink:href="#DejaVuSans-4b" transform="translate(318.65625 0)"/>
      <use xlink:href="#DejaVuSans-3" transform="translate(382.03125 0)"/>
      <use xlink:href="#DejaVuSans-51" transform="translate(413.8125 0)"/>
      <use xlink:href="#DejaVuSans-44" transform="translate(477.1875 0)"/>
      <use xlink:href="#DejaVuSans-57" transform="translate(538.46875 0)"/>
      <use xlink:href="#DejaVuSans-4c" transform="translate(577.671875 0)"/>
      <use xlink:href="#DejaVuSans-59" transform="translate(605.453125 0)"/>
      <use xlink:href="#DejaVuSans-48" transform="translate(664.640625 0)"/>
      <use xlink:href="#DejaVuSans-3" transform="translate(726.171875 0)"/>
      <use xlink:href="#DejaVuSans-b" transform="translate(757.953125 0)"/>
      <use xlink:href="#DejaVuSans-46" transform="translate(796.96875 0)"/>
      <use xlink:href="#DejaVuSans-52" transform="translate(851.953125 0)"/>
      <use xlink:href="#DejaVuSans-50" transform="translate(913.140625 0)"/>
      <use xlink:href="#DejaVuSans-53" transform="translate(1010.546875 0)"/>
      <use xlink:href="#DejaVuSans-4c" transform="translate(1074.03125 0)"/>
      <use xlink:href="#DejaVuSans-4f" transform="translate(1101.8125 0)"/>
      <use xlink:href="#DejaVuSans-48" transform="translate(1129.59375 0)"/>
      <use xlink:href="#DejaVuSans-c" transform="translate(1191.125 0)"/>
     </g>
    </g>
    <g id="line2d_55">
     <path d="M 258.920234 25.679375
L 266.920234 25.679375
L 274.920234 25.679375
" style="fill: none; stroke: #56b4e9; stroke-width: 1.8; stroke-linecap: square"/>
     <g>
      <use xlink:href="#m1aa69d48d7" x="266.920234" y="25.679375" style="fill: #56b4e9; stroke: #56b4e9; stroke-linejoin: miter"/>
     </g>
    </g>
    <g id="text_17">
     <!-- PyTorch native (eager) -->
     <g transform="translate(281.320234 28.479375) scale(0.08 -0.08)">
      <use xlink:href="#DejaVuSans-33"/>
      <use xlink:href="#DejaVuSans-5c" transform="translate(60.296875 0)"/>
      <use xlink:href="#DejaVuSans-37" transform="translate(119.484375 0)"/>
      <use xlink:href="#DejaVuSans-52" transform="translate(163.578125 0)"/>
      <use xlink:href="#DejaVuSans-55" transform="translate(224.765625 0)"/>
      <use xlink:href="#DejaVuSans-46" transform="translate(263.671875 0)"/>
      <use xlink:href="#DejaVuSans-4b" transform="translate(318.65625 0)"/>
      <use xlink:href="#DejaVuSans-3" transform="translate(382.03125 0)"/>
      <use xlink:href="#DejaVuSans-51" transform="translate(413.8125 0)"/>
      <use xlink:href="#DejaVuSans-44" transform="translate(477.1875 0)"/>
      <use xlink:href="#DejaVuSans-57" transform="translate(538.46875 0)"/>
      <use xlink:href="#DejaVuSans-4c" transform="translate(577.671875 0)"/>
      <use xlink:href="#DejaVuSans-59" transform="translate(605.453125 0)"/>
      <use xlink:href="#DejaVuSans-48" transform="translate(664.640625 0)"/>
      <use xlink:href="#DejaVuSans-3" transform="translate(726.171875 0)"/>
      <use xlink:href="#DejaVuSans-b" transform="translate(757.953125 0)"/>
      <use xlink:href="#DejaVuSans-48" transform="translate(796.96875 0)"/>
      <use xlink:href="#DejaVuSans-44" transform="translate(858.5 0)"/>
      <use xlink:href="#DejaVuSans-4a" transform="translate(919.78125 0)"/>
      <use xlink:href="#DejaVuSans-48" transform="translate(983.265625 0)"/>
      <use xlink:href="#DejaVuSans-55" transform="translate(1044.796875 0)"/>
      <use xlink:href="#DejaVuSans-c" transform="translate(1085.90625 0)"/>
     </g>
    </g>
    <g id="line2d_56">
     <path d="M 258.920234 37.68
L 266.920234 37.68
L 274.920234 37.68
" style="fill: none; stroke: #333333; stroke-width: 1.8; stroke-linecap: square"/>
     <g>
      <use xlink:href="#m5fdc38cc98" x="266.920234" y="37.68" style="fill: #333333; stroke: #333333; stroke-linejoin: miter"/>
     </g>
    </g>
    <g id="text_18">
     <!-- Python/NumPy Autograd (eager) -->
     <g transform="translate(281.320234 40.48) scale(0.08 -0.08)">
      <defs>
       <path id="DejaVuSans-12" d="M 1625 4666
L 2156 4666
L 531 -594
L 0 -594
L 1625 4666
z
" transform="scale(0.015625)"/>
       <path id="DejaVuSans-31" d="M 628 4666
L 1478 4666
L 3547 763
L 3547 4666
L 4159 4666
L 4159 0
L 3309 0
L 1241 3903
L 1241 0
L 628 0
L 628 4666
z
" transform="scale(0.015625)"/>
       <path id="DejaVuSans-58" d="M 544 1381
L 544 3500
L 1119 3500
L 1119 1403
Q 1119 906 1312 657
Q 1506 409 1894 409
Q 2359 409 2629 706
Q 2900 1003 2900 1516
L 2900 3500
L 3475 3500
L 3475 0
L 2900 0
L 2900 538
Q 2691 219 2414 64
Q 2138 -91 1772 -91
Q 1169 -91 856 284
Q 544 659 544 1381
z
M 1991 3584
L 1991 3584
z
" transform="scale(0.015625)"/>
       <path id="DejaVuSans-47" d="M 2906 2969
L 2906 4863
L 3481 4863
L 3481 0
L 2906 0
L 2906 525
Q 2725 213 2448 61
Q 2172 -91 1784 -91
Q 1150 -91 751 415
Q 353 922 353 1747
Q 353 2572 751 3078
Q 1150 3584 1784 3584
Q 2172 3584 2448 3432
Q 2725 3281 2906 2969
z
M 947 1747
Q 947 1113 1208 752
Q 1469 391 1925 391
Q 2381 391 2643 752
Q 2906 1113 2906 1747
Q 2906 2381 2643 2742
Q 2381 3103 1925 3103
Q 1469 3103 1208 2742
Q 947 2381 947 1747
z
" transform="scale(0.015625)"/>
      </defs>
      <use xlink:href="#DejaVuSans-33"/>
      <use xlink:href="#DejaVuSans-5c" transform="translate(60.296875 0)"/>
      <use xlink:href="#DejaVuSans-57" transform="translate(119.484375 0)"/>
      <use xlink:href="#DejaVuSans-4b" transform="translate(158.6875 0)"/>
      <use xlink:href="#DejaVuSans-52" transform="translate(222.0625 0)"/>
      <use xlink:href="#DejaVuSans-51" transform="translate(283.25 0)"/>
      <use xlink:href="#DejaVuSans-12" transform="translate(346.625 0)"/>
      <use xlink:href="#DejaVuSans-31" transform="translate(380.3125 0)"/>
      <use xlink:href="#DejaVuSans-58" transform="translate(455.125 0)"/>
      <use xlink:href="#DejaVuSans-50" transform="translate(518.5 0)"/>
      <use xlink:href="#DejaVuSans-33" transform="translate(615.90625 0)"/>
      <use xlink:href="#DejaVuSans-5c" transform="translate(676.203125 0)"/>
      <use xlink:href="#DejaVuSans-3" transform="translate(735.390625 0)"/>
      <use xlink:href="#DejaVuSans-24" transform="translate(767.171875 0)"/>
      <use xlink:href="#DejaVuSans-58" transform="translate(835.578125 0)"/>
      <use xlink:href="#DejaVuSans-57" transform="translate(898.953125 0)"/>
      <use xlink:href="#DejaVuSans-52" transform="translate(938.15625 0)"/>
      <use xlink:href="#DejaVuSans-4a" transform="translate(999.34375 0)"/>
      <use xlink:href="#DejaVuSans-55" transform="translate(1062.828125 0)"/>
      <use xlink:href="#DejaVuSans-44" transform="translate(1103.9375 0)"/>
      <use xlink:href="#DejaVuSans-47" transform="translate(1165.21875 0)"/>
      <use xlink:href="#DejaVuSans-3" transform="translate(1228.703125 0)"/>
      <use xlink:href="#DejaVuSans-b" transform="translate(1260.484375 0)"/>
      <use xlink:href="#DejaVuSans-48" transform="translate(1299.5 0)"/>
      <use xlink:href="#DejaVuSans-44" transform="translate(1361.03125 0)"/>
      <use xlink:href="#DejaVuSans-4a" transform="translate(1422.3125 0)"/>
      <use xlink:href="#DejaVuSans-48" transform="translate(1485.796875 0)"/>
      <use xlink:href="#DejaVuSans-55" transform="translate(1547.328125 0)"/>
      <use xlink:href="#DejaVuSans-c" transform="translate(1588.4375 0)"/>
     </g>
    </g>
   </g>
  </g>
 </g>
 <defs>
  <clipPath id="pdbccc6e4dc">
   <rect x="51.700781" y="63.72503" width="451.717656" height="212.253013"/>
  </clipPath>
 </defs>
</svg>
